FontAwesome.ufo
<glyph name="glass" format="2">
  <advance width="1200"/>
  <unicode hex="F000"/>
  <note>
glass
</note>
  <outline>
    <contour>
      <point x="1180" y="1202" type="curve" smooth="yes"/>
      <point x="1180" y="1237"/>
      <point x="1135" y="1244"/>
      <point x="1108" y="1244" type="curve" smooth="yes"/>
      <point x="92" y="1244" type="line" smooth="yes"/>
      <point x="65" y="1244"/>
      <point x="20" y="1237"/>
      <point x="20" y="1202" type="curve" smooth="yes"/>
      <point x="20" y="1181"/>
      <point x="37" y="1160"/>
      <point x="51" y="1146" type="curve" smooth="yes"/>
      <point x="508" y="689" type="line"/>
      <point x="508" y="135" type="line"/>
      <point x="276" y="135" type="line" smooth="yes"/>
      <point x="251" y="135"/>
      <point x="230" y="114"/>
      <point x="230" y="88" type="curve" smooth="yes"/>
      <point x="230" y="63"/>
      <point x="251" y="42"/>
      <point x="276" y="42" type="curve" smooth="yes"/>
      <point x="924" y="42" type="line" smooth="yes"/>
      <point x="949" y="42"/>
      <point x="970" y="63"/>
      <point x="970" y="88" type="curve" smooth="yes"/>
      <point x="970" y="114"/>
      <point x="949" y="135"/>
      <point x="924" y="135" type="curve" smooth="yes"/>
      <point x="692" y="135" type="line"/>
      <point x="692" y="689" type="line"/>
      <point x="1149" y="1146" type="line" smooth="yes"/>
      <point x="1163" y="1160"/>
      <point x="1180" y="1181"/>
    </contour>
  </outline>
</glyph>
<glyph name="music" format="2">
  <advance width="1200"/>
  <unicode hex="F001"/>
  <note>
music
</note>
  <outline>
    <contour>
      <point x="1180" y="372" type="curve" smooth="yes"/>
      <point x="1180" y="1218" type="line" smooth="yes"/>
      <point x="1180" y="1258"/>
      <point x="1148" y="1290"/>
      <point x="1108" y="1290" type="curve" smooth="yes"/>
      <point x="1100" y="1290"/>
      <point x="1093" y="1290"/>
      <point x="1086" y="1287" type="curve" smooth="yes"/>
      <point x="458" y="1094" type="line" smooth="yes"/>
      <point x="428" y="1084"/>
      <point x="407" y="1056"/>
      <point x="407" y="1025" type="curve" smooth="yes"/>
      <point x="407" y="294" type="line"/>
      <point x="361" y="315"/>
      <point x="312" y="324"/>
      <point x="262" y="324" type="curve" smooth="yes"/>
      <point x="179" y="324"/>
      <point x="20" y="285"/>
      <point x="20" y="179" type="curve" smooth="yes"/>
      <point x="20" y="72"/>
      <point x="179" y="34"/>
      <point x="262" y="34" type="curve" smooth="yes"/>
      <point x="344" y="34"/>
      <point x="503" y="72"/>
      <point x="503" y="179" type="curve" smooth="yes"/>
      <point x="503" y="714" type="line"/>
      <point x="1083" y="893" type="line"/>
      <point x="1083" y="488" type="line"/>
      <point x="1038" y="508"/>
      <point x="988" y="517"/>
      <point x="938" y="517" type="curve" smooth="yes"/>
      <point x="856" y="517"/>
      <point x="697" y="478"/>
      <point x="697" y="372" type="curve" smooth="yes"/>
      <point x="697" y="266"/>
      <point x="856" y="227"/>
      <point x="938" y="227" type="curve" smooth="yes"/>
      <point x="1021" y="227"/>
      <point x="1180" y="266"/>
    </contour>
  </outline>
</glyph>
<glyph name="search" format="2">
  <advance width="1200"/>
  <unicode hex="F002"/>
  <note>
search
</note>
  <outline>
    <contour>
      <point x="823" y="718" type="curve" smooth="yes"/>
      <point x="823" y="546"/>
      <point x="683" y="405"/>
      <point x="511" y="405" type="curve" smooth="yes"/>
      <point x="339" y="405"/>
      <point x="198" y="546"/>
      <point x="198" y="718" type="curve" smooth="yes"/>
      <point x="198" y="890"/>
      <point x="339" y="1030"/>
      <point x="511" y="1030" type="curve" smooth="yes"/>
      <point x="683" y="1030"/>
      <point x="823" y="890"/>
    </contour>
    <contour>
      <point x="1180" y="138" type="curve" smooth="yes"/>
      <point x="1180" y="161"/>
      <point x="1170" y="184"/>
      <point x="1154" y="201" type="curve" smooth="yes"/>
      <point x="915" y="440" type="line"/>
      <point x="972" y="521"/>
      <point x="1002" y="619"/>
      <point x="1002" y="718" type="curve" smooth="yes"/>
      <point x="1002" y="989"/>
      <point x="782" y="1209"/>
      <point x="511" y="1209" type="curve" smooth="yes"/>
      <point x="240" y="1209"/>
      <point x="20" y="989"/>
      <point x="20" y="718" type="curve" smooth="yes"/>
      <point x="20" y="447"/>
      <point x="240" y="227"/>
      <point x="511" y="227" type="curve" smooth="yes"/>
      <point x="610" y="227"/>
      <point x="707" y="257"/>
      <point x="789" y="313" type="curve"/>
      <point x="1028" y="75" type="line" smooth="yes"/>
      <point x="1044" y="58"/>
      <point x="1067" y="49"/>
      <point x="1091" y="49" type="curve" smooth="yes"/>
      <point x="1140" y="49"/>
      <point x="1180" y="89"/>
    </contour>
  </outline>
</glyph>
<glyph name="envelope" format="2">
  <advance width="1200"/>
  <unicode hex="F003"/>
  <note>
envelope
</note>
  <outline>
    <contour>
      <point x="1097" y="248" type="line" smooth="yes"/>
      <point x="1097" y="237"/>
      <point x="1087" y="227"/>
      <point x="1076" y="227" type="curve" smooth="yes"/>
      <point x="124" y="227" type="line" smooth="yes"/>
      <point x="113" y="227"/>
      <point x="103" y="237"/>
      <point x="103" y="248" type="curve" smooth="yes"/>
      <point x="103" y="745" type="line"/>
      <point x="116" y="729"/>
      <point x="131" y="715"/>
      <point x="148" y="702" type="curve" smooth="yes"/>
      <point x="240" y="631"/>
      <point x="333" y="558"/>
      <point x="423" y="483" type="curve" smooth="yes"/>
      <point x="472" y="443"/>
      <point x="532" y="393"/>
      <point x="599" y="393" type="curve" smooth="yes"/>
      <point x="600" y="393" type="line"/>
      <point x="601" y="393" type="line" smooth="yes"/>
      <point x="668" y="393"/>
      <point x="728" y="443"/>
      <point x="777" y="483" type="curve" smooth="yes"/>
      <point x="867" y="558"/>
      <point x="960" y="631"/>
      <point x="1052" y="702" type="curve" smooth="yes"/>
      <point x="1069" y="715"/>
      <point x="1084" y="729"/>
      <point x="1097" y="745" type="curve"/>
    </contour>
    <contour>
      <point x="1097" y="928" type="curve" smooth="yes"/>
      <point x="1097" y="873"/>
      <point x="1044" y="801"/>
      <point x="1002" y="768" type="curve" smooth="yes"/>
      <point x="915" y="700"/>
      <point x="829" y="632"/>
      <point x="742" y="563" type="curve" smooth="yes"/>
      <point x="708" y="535"/>
      <point x="646" y="476"/>
      <point x="601" y="476" type="curve" smooth="yes"/>
      <point x="600" y="476" type="line"/>
      <point x="599" y="476" type="line" smooth="yes"/>
      <point x="554" y="476"/>
      <point x="492" y="535"/>
      <point x="458" y="563" type="curve" smooth="yes"/>
      <point x="371" y="632"/>
      <point x="285" y="700"/>
      <point x="198" y="768" type="curve" smooth="yes"/>
      <point x="140" y="814"/>
      <point x="103" y="878"/>
      <point x="103" y="952" type="curve" smooth="yes"/>
      <point x="103" y="963"/>
      <point x="113" y="973"/>
      <point x="124" y="973" type="curve" smooth="yes"/>
      <point x="1076" y="973" type="line" smooth="yes"/>
      <point x="1101" y="973"/>
      <point x="1097" y="944"/>
    </contour>
    <contour>
      <point x="1180" y="248" type="curve" smooth="yes"/>
      <point x="1180" y="952" type="line" smooth="yes"/>
      <point x="1180" y="1009"/>
      <point x="1133" y="1056"/>
      <point x="1076" y="1056" type="curve" smooth="yes"/>
      <point x="124" y="1056" type="line" smooth="yes"/>
      <point x="67" y="1056"/>
      <point x="20" y="1009"/>
      <point x="20" y="952" type="curve" smooth="yes"/>
      <point x="20" y="248" type="line" smooth="yes"/>
      <point x="20" y="191"/>
      <point x="67" y="144"/>
      <point x="124" y="144" type="curve" smooth="yes"/>
      <point x="1076" y="144" type="line" smooth="yes"/>
      <point x="1133" y="144"/>
      <point x="1180" y="191"/>
    </contour>
  </outline>
</glyph>
<glyph name="heart" format="2">
  <advance width="1200"/>
  <unicode hex="F004"/>
  <note>
heart
</note>
  <outline>
    <contour>
      <point x="600" y="144" type="curve" smooth="yes"/>
      <point x="610" y="144"/>
      <point x="621" y="148"/>
      <point x="628" y="156" type="curve" smooth="yes"/>
      <point x="1032" y="544" type="line" smooth="yes"/>
      <point x="1038" y="550"/>
      <point x="1180" y="680"/>
      <point x="1180" y="835" type="curve" smooth="yes"/>
      <point x="1180" y="1025"/>
      <point x="1064" y="1138"/>
      <point x="871" y="1138" type="curve" smooth="yes"/>
      <point x="757" y="1138"/>
      <point x="651" y="1049"/>
      <point x="600" y="999" type="curve"/>
      <point x="549" y="1049"/>
      <point x="443" y="1138"/>
      <point x="329" y="1138" type="curve" smooth="yes"/>
      <point x="136" y="1138"/>
      <point x="20" y="1025"/>
      <point x="20" y="835" type="curve" smooth="yes"/>
      <point x="20" y="680"/>
      <point x="162" y="550"/>
      <point x="168" y="545" type="curve" smooth="yes"/>
      <point x="572" y="156" type="line" smooth="yes"/>
      <point x="579" y="148"/>
      <point x="590" y="144"/>
    </contour>
  </outline>
</glyph>
<glyph name="star" format="2">
  <advance width="1200"/>
  <unicode hex="F005"/>
  <note>
star
</note>
  <outline>
    <contour>
      <point x="1180" y="847" type="curve" smooth="yes"/>
      <point x="1180" y="868"/>
      <point x="1158" y="876"/>
      <point x="1141" y="879" type="curve" smooth="yes"/>
      <point x="791" y="930" type="line"/>
      <point x="634" y="1247" type="line" smooth="yes"/>
      <point x="628" y="1260"/>
      <point x="616" y="1275"/>
      <point x="600" y="1275" type="curve" smooth="yes"/>
      <point x="584" y="1275"/>
      <point x="572" y="1260"/>
      <point x="566" y="1247" type="curve" smooth="yes"/>
      <point x="409" y="930" type="line"/>
      <point x="59" y="879" type="line" smooth="yes"/>
      <point x="42" y="876"/>
      <point x="20" y="868"/>
      <point x="20" y="847" type="curve" smooth="yes"/>
      <point x="20" y="834"/>
      <point x="29" y="822"/>
      <point x="37" y="813" type="curve" smooth="yes"/>
      <point x="291" y="566" type="line"/>
      <point x="231" y="218" type="line" smooth="yes"/>
      <point x="231" y="213"/>
      <point x="230" y="209"/>
      <point x="230" y="204" type="curve" smooth="yes"/>
      <point x="230" y="186"/>
      <point x="239" y="169"/>
      <point x="259" y="169" type="curve" smooth="yes"/>
      <point x="269" y="169"/>
      <point x="278" y="173"/>
      <point x="287" y="178" type="curve" smooth="yes"/>
      <point x="600" y="342" type="line"/>
      <point x="913" y="178" type="line" smooth="yes"/>
      <point x="921" y="173"/>
      <point x="931" y="169"/>
      <point x="941" y="169" type="curve" smooth="yes"/>
      <point x="961" y="169"/>
      <point x="969" y="186"/>
      <point x="969" y="204" type="curve" smooth="yes"/>
      <point x="969" y="209"/>
      <point x="969" y="213"/>
      <point x="969" y="218" type="curve" smooth="yes"/>
      <point x="909" y="566" type="line"/>
      <point x="1162" y="813" type="line" smooth="yes"/>
      <point x="1171" y="822"/>
      <point x="1180" y="834"/>
    </contour>
  </outline>
</glyph>
<glyph name="star_empty" format="2">
  <advance width="1200"/>
  <unicode hex="F006"/>
  <note>
star_empty
</note>
  <outline>
    <contour>
      <point x="1026" y="805" type="line"/>
      <point x="813" y="598" type="line"/>
      <point x="863" y="304" type="line"/>
      <point x="600" y="443" type="line"/>
      <point x="336" y="304" type="line"/>
      <point x="387" y="598" type="line"/>
      <point x="174" y="805" type="line"/>
      <point x="468" y="848" type="line"/>
      <point x="600" y="1114" type="line"/>
      <point x="732" y="848" type="line"/>
    </contour>
    <contour>
      <point x="1180" y="847" type="curve" smooth="yes"/>
      <point x="1180" y="868"/>
      <point x="1158" y="876"/>
      <point x="1141" y="879" type="curve" smooth="yes"/>
      <point x="791" y="930" type="line"/>
      <point x="634" y="1247" type="line" smooth="yes"/>
      <point x="628" y="1260"/>
      <point x="616" y="1275"/>
      <point x="600" y="1275" type="curve" smooth="yes"/>
      <point x="584" y="1275"/>
      <point x="572" y="1260"/>
      <point x="566" y="1247" type="curve" smooth="yes"/>
      <point x="409" y="930" type="line"/>
      <point x="59" y="879" type="line" smooth="yes"/>
      <point x="42" y="876"/>
      <point x="20" y="868"/>
      <point x="20" y="847" type="curve" smooth="yes"/>
      <point x="20" y="834"/>
      <point x="29" y="822"/>
      <point x="37" y="813" type="curve" smooth="yes"/>
      <point x="291" y="566" type="line"/>
      <point x="231" y="218" type="line" smooth="yes"/>
      <point x="231" y="213"/>
      <point x="230" y="209"/>
      <point x="230" y="204" type="curve" smooth="yes"/>
      <point x="230" y="186"/>
      <point x="239" y="169"/>
      <point x="259" y="169" type="curve" smooth="yes"/>
      <point x="269" y="169"/>
      <point x="278" y="173"/>
      <point x="287" y="178" type="curve" smooth="yes"/>
      <point x="600" y="342" type="line"/>
      <point x="913" y="178" type="line" smooth="yes"/>
      <point x="921" y="173"/>
      <point x="931" y="169"/>
      <point x="941" y="169" type="curve" smooth="yes"/>
      <point x="961" y="169"/>
      <point x="969" y="185"/>
      <point x="969" y="204" type="curve" smooth="yes"/>
      <point x="969" y="209"/>
      <point x="969" y="213"/>
      <point x="969" y="218" type="curve" smooth="yes"/>
      <point x="909" y="566" type="line"/>
      <point x="1162" y="813" type="line" smooth="yes"/>
      <point x="1171" y="822"/>
      <point x="1180" y="834"/>
    </contour>
  </outline>
</glyph>
<glyph name="user" format="2">
  <advance width="1200"/>
  <unicode hex="F007"/>
  <note>
user
</note>
  <outline>
    <contour>
      <point x="1180" y="351" type="curve" smooth="yes"/>
      <point x="1180" y="590"/>
      <point x="1121" y="865"/>
      <point x="884" y="865" type="curve"/>
      <point x="810" y="793"/>
      <point x="711" y="749"/>
      <point x="600" y="749" type="curve" smooth="yes"/>
      <point x="489" y="749"/>
      <point x="390" y="793"/>
      <point x="316" y="865" type="curve"/>
      <point x="79" y="865"/>
      <point x="20" y="590"/>
      <point x="20" y="351" type="curve" smooth="yes"/>
      <point x="20" y="219"/>
      <point x="107" y="111"/>
      <point x="213" y="111" type="curve" smooth="yes"/>
      <point x="987" y="111" type="line" smooth="yes"/>
      <point x="1093" y="111"/>
      <point x="1180" y="219"/>
    </contour>
    <contour>
      <point x="948" y="1155" type="curve" smooth="yes"/>
      <point x="948" y="1347"/>
      <point x="792" y="1503"/>
      <point x="600" y="1503" type="curve" smooth="yes"/>
      <point x="408" y="1503"/>
      <point x="252" y="1347"/>
      <point x="252" y="1155" type="curve" smooth="yes"/>
      <point x="252" y="963"/>
      <point x="408" y="807"/>
      <point x="600" y="807" type="curve" smooth="yes"/>
      <point x="792" y="807"/>
      <point x="948" y="963"/>
    </contour>
  </outline>
</glyph>
<glyph name="film" format="2">
  <advance width="1200"/>
  <unicode hex="F008"/>
  <note>
film
</note>
  <outline>
    <contour>
      <point x="252" y="188" type="line" smooth="yes"/>
      <point x="252" y="167"/>
      <point x="234" y="150"/>
      <point x="213" y="150" type="curve" smooth="yes"/>
      <point x="136" y="150" type="line" smooth="yes"/>
      <point x="115" y="150"/>
      <point x="97" y="167"/>
      <point x="97" y="188" type="curve" smooth="yes"/>
      <point x="97" y="266" type="line" smooth="yes"/>
      <point x="97" y="287"/>
      <point x="115" y="304"/>
      <point x="136" y="304" type="curve" smooth="yes"/>
      <point x="213" y="304" type="line" smooth="yes"/>
      <point x="234" y="304"/>
      <point x="252" y="287"/>
      <point x="252" y="266" type="curve" smooth="yes"/>
    </contour>
    <contour>
      <point x="252" y="420" type="line" smooth="yes"/>
      <point x="252" y="399"/>
      <point x="234" y="382"/>
      <point x="213" y="382" type="curve" smooth="yes"/>
      <point x="136" y="382" type="line" smooth="yes"/>
      <point x="115" y="382"/>
      <point x="97" y="399"/>
      <point x="97" y="420" type="curve" smooth="yes"/>
      <point x="97" y="498" type="line" smooth="yes"/>
      <point x="97" y="519"/>
      <point x="115" y="536"/>
      <point x="136" y="536" type="curve" smooth="yes"/>
      <point x="213" y="536" type="line" smooth="yes"/>
      <point x="234" y="536"/>
      <point x="252" y="519"/>
      <point x="252" y="498" type="curve" smooth="yes"/>
    </contour>
    <contour>
      <point x="252" y="652" type="line" smooth="yes"/>
      <point x="252" y="631"/>
      <point x="234" y="614"/>
      <point x="213" y="614" type="curve" smooth="yes"/>
      <point x="136" y="614" type="line" smooth="yes"/>
      <point x="115" y="614"/>
      <point x="97" y="631"/>
      <point x="97" y="652" type="curve" smooth="yes"/>
      <point x="97" y="730" type="line" smooth="yes"/>
      <point x="97" y="751"/>
      <point x="115" y="768"/>
      <point x="136" y="768" type="curve" smooth="yes"/>
      <point x="213" y="768" type="line" smooth="yes"/>
      <point x="234" y="768"/>
      <point x="252" y="751"/>
      <point x="252" y="730" type="curve" smooth="yes"/>
    </contour>
    <contour>
      <point x="871" y="188" type="line" smooth="yes"/>
      <point x="871" y="167"/>
      <point x="853" y="150"/>
      <point x="832" y="150" type="curve" smooth="yes"/>
      <point x="368" y="150" type="line" smooth="yes"/>
      <point x="347" y="150"/>
      <point x="329" y="167"/>
      <point x="329" y="188" type="curve" smooth="yes"/>
      <point x="329" y="498" type="line" smooth="yes"/>
      <point x="329" y="519"/>
      <point x="347" y="536"/>
      <point x="368" y="536" type="curve" smooth="yes"/>
      <point x="832" y="536" type="line" smooth="yes"/>
      <point x="853" y="536"/>
      <point x="871" y="519"/>
      <point x="871" y="498" type="curve" smooth="yes"/>
    </contour>
    <contour>
      <point x="252" y="884" type="line" smooth="yes"/>
      <point x="252" y="863"/>
      <point x="234" y="846"/>
      <point x="213" y="846" type="curve" smooth="yes"/>
      <point x="136" y="846" type="line" smooth="yes"/>
      <point x="115" y="846"/>
      <point x="97" y="863"/>
      <point x="97" y="884" type="curve" smooth="yes"/>
      <point x="97" y="962" type="line" smooth="yes"/>
      <point x="97" y="983"/>
      <point x="115" y="1000"/>
      <point x="136" y="1000" type="curve" smooth="yes"/>
      <point x="213" y="1000" type="line" smooth="yes"/>
      <point x="234" y="1000"/>
      <point x="252" y="983"/>
      <point x="252" y="962" type="curve" smooth="yes"/>
    </contour>
    <contour>
      <point x="1103" y="188" type="line" smooth="yes"/>
      <point x="1103" y="167"/>
      <point x="1085" y="150"/>
      <point x="1064" y="150" type="curve" smooth="yes"/>
      <point x="987" y="150" type="line" smooth="yes"/>
      <point x="966" y="150"/>
      <point x="948" y="167"/>
      <point x="948" y="188" type="curve" smooth="yes"/>
      <point x="948" y="266" type="line" smooth="yes"/>
      <point x="948" y="287"/>
      <point x="966" y="304"/>
      <point x="987" y="304" type="curve" smooth="yes"/>
      <point x="1064" y="304" type="line" smooth="yes"/>
      <point x="1085" y="304"/>
      <point x="1103" y="287"/>
      <point x="1103" y="266" type="curve" smooth="yes"/>
    </contour>
    <contour>
      <point x="871" y="652" type="line" smooth="yes"/>
      <point x="871" y="631"/>
      <point x="853" y="614"/>
      <point x="832" y="614" type="curve" smooth="yes"/>
      <point x="368" y="614" type="line" smooth="yes"/>
      <point x="347" y="614"/>
      <point x="329" y="631"/>
      <point x="329" y="652" type="curve" smooth="yes"/>
      <point x="329" y="962" type="line" smooth="yes"/>
      <point x="329" y="983"/>
      <point x="347" y="1000"/>
      <point x="368" y="1000" type="curve" smooth="yes"/>
      <point x="832" y="1000" type="line" smooth="yes"/>
      <point x="853" y="1000"/>
      <point x="871" y="983"/>
      <point x="871" y="962" type="curve" smooth="yes"/>
    </contour>
    <contour>
      <point x="1103" y="420" type="line" smooth="yes"/>
      <point x="1103" y="399"/>
      <point x="1085" y="382"/>
      <point x="1064" y="382" type="curve" smooth="yes"/>
      <point x="987" y="382" type="line" smooth="yes"/>
      <point x="966" y="382"/>
      <point x="948" y="399"/>
      <point x="948" y="420" type="curve" smooth="yes"/>
      <point x="948" y="498" type="line" smooth="yes"/>
      <point x="948" y="519"/>
      <point x="966" y="536"/>
      <point x="987" y="536" type="curve" smooth="yes"/>
      <point x="1064" y="536" type="line" smooth="yes"/>
      <point x="1085" y="536"/>
      <point x="1103" y="519"/>
      <point x="1103" y="498" type="curve" smooth="yes"/>
    </contour>
    <contour>
      <point x="1103" y="652" type="line" smooth="yes"/>
      <point x="1103" y="631"/>
      <point x="1085" y="614"/>
      <point x="1064" y="614" type="curve" smooth="yes"/>
      <point x="987" y="614" type="line" smooth="yes"/>
      <point x="966" y="614"/>
      <point x="948" y="631"/>
      <point x="948" y="652" type="curve" smooth="yes"/>
      <point x="948" y="730" type="line" smooth="yes"/>
      <point x="948" y="751"/>
      <point x="966" y="768"/>
      <point x="987" y="768" type="curve" smooth="yes"/>
      <point x="1064" y="768" type="line" smooth="yes"/>
      <point x="1085" y="768"/>
      <point x="1103" y="751"/>
      <point x="1103" y="730" type="curve" smooth="yes"/>
    </contour>
    <contour>
      <point x="1103" y="884" type="line" smooth="yes"/>
      <point x="1103" y="863"/>
      <point x="1085" y="846"/>
      <point x="1064" y="846" type="curve" smooth="yes"/>
      <point x="987" y="846" type="line" smooth="yes"/>
      <point x="966" y="846"/>
      <point x="948" y="863"/>
      <point x="948" y="884" type="curve" smooth="yes"/>
      <point x="948" y="962" type="line" smooth="yes"/>
      <point x="948" y="983"/>
      <point x="966" y="1000"/>
      <point x="987" y="1000" type="curve" smooth="yes"/>
      <point x="1064" y="1000" type="line" smooth="yes"/>
      <point x="1085" y="1000"/>
      <point x="1103" y="983"/>
      <point x="1103" y="962" type="curve" smooth="yes"/>
    </contour>
    <contour>
      <point x="1180" y="169" type="curve" smooth="yes"/>
      <point x="1180" y="981" type="line" smooth="yes"/>
      <point x="1180" y="1034"/>
      <point x="1137" y="1078"/>
      <point x="1083" y="1078" type="curve" smooth="yes"/>
      <point x="117" y="1078" type="line" smooth="yes"/>
      <point x="64" y="1078"/>
      <point x="20" y="1034"/>
      <point x="20" y="981" type="curve" smooth="yes"/>
      <point x="20" y="169" type="line" smooth="yes"/>
      <point x="20" y="116"/>
      <point x="64" y="72"/>
      <point x="117" y="72" type="curve" smooth="yes"/>
      <point x="1083" y="72" type="line" smooth="yes"/>
      <point x="1137" y="72"/>
      <point x="1180" y="116"/>
    </contour>
  </outline>
</glyph>
<glyph name="th_large" format="2">
  <advance width="1200"/>
  <unicode hex="F009"/>
  <note>
th_large
</note>
  <outline>
    <contour>
      <point x="555" y="316" type="curve" smooth="yes"/>
      <point x="555" y="584" type="line" smooth="yes"/>
      <point x="555" y="633"/>
      <point x="515" y="673"/>
      <point x="466" y="673" type="curve" smooth="yes"/>
      <point x="109" y="673" type="line" smooth="yes"/>
      <point x="60" y="673"/>
      <point x="20" y="633"/>
      <point x="20" y="584" type="curve" smooth="yes"/>
      <point x="20" y="316" type="line" smooth="yes"/>
      <point x="20" y="267"/>
      <point x="60" y="227"/>
      <point x="109" y="227" type="curve" smooth="yes"/>
      <point x="466" y="227" type="line" smooth="yes"/>
      <point x="515" y="227"/>
      <point x="555" y="267"/>
    </contour>
    <contour>
      <point x="555" y="852" type="curve" smooth="yes"/>
      <point x="555" y="1119" type="line" smooth="yes"/>
      <point x="555" y="1168"/>
      <point x="515" y="1209"/>
      <point x="466" y="1209" type="curve" smooth="yes"/>
      <point x="109" y="1209" type="line" smooth="yes"/>
      <point x="60" y="1209"/>
      <point x="20" y="1168"/>
      <point x="20" y="1119" type="curve" smooth="yes"/>
      <point x="20" y="852" type="line" smooth="yes"/>
      <point x="20" y="803"/>
      <point x="60" y="762"/>
      <point x="109" y="762" type="curve" smooth="yes"/>
      <point x="466" y="762" type="line" smooth="yes"/>
      <point x="515" y="762"/>
      <point x="555" y="803"/>
    </contour>
    <contour>
      <point x="1180" y="316" type="curve" smooth="yes"/>
      <point x="1180" y="584" type="line" smooth="yes"/>
      <point x="1180" y="633"/>
      <point x="1140" y="673"/>
      <point x="1091" y="673" type="curve" smooth="yes"/>
      <point x="734" y="673" type="line" smooth="yes"/>
      <point x="685" y="673"/>
      <point x="645" y="633"/>
      <point x="645" y="584" type="curve" smooth="yes"/>
      <point x="645" y="316" type="line" smooth="yes"/>
      <point x="645" y="267"/>
      <point x="685" y="227"/>
      <point x="734" y="227" type="curve" smooth="yes"/>
      <point x="1091" y="227" type="line" smooth="yes"/>
      <point x="1140" y="227"/>
      <point x="1180" y="267"/>
    </contour>
    <contour>
      <point x="1180" y="852" type="curve" smooth="yes"/>
      <point x="1180" y="1119" type="line" smooth="yes"/>
      <point x="1180" y="1168"/>
      <point x="1140" y="1209"/>
      <point x="1091" y="1209" type="curve" smooth="yes"/>
      <point x="734" y="1209" type="line" smooth="yes"/>
      <point x="685" y="1209"/>
      <point x="645" y="1168"/>
      <point x="645" y="1119" type="curve" smooth="yes"/>
      <point x="645" y="852" type="line" smooth="yes"/>
      <point x="645" y="803"/>
      <point x="685" y="762"/>
      <point x="734" y="762" type="curve" smooth="yes"/>
      <point x="1091" y="762" type="line" smooth="yes"/>
      <point x="1140" y="762"/>
      <point x="1180" y="803"/>
    </contour>
  </outline>
</glyph>
<glyph name="th_list" format="2">
  <advance width="1200"/>
  <unicode hex="F00B"/>
  <note>
th_list
</note>
  <outline>
    <contour>
      <point x="351" y="289" type="curve" smooth="yes"/>
      <point x="351" y="413" type="line" smooth="yes"/>
      <point x="351" y="448"/>
      <point x="324" y="476"/>
      <point x="289" y="476" type="curve" smooth="yes"/>
      <point x="82" y="476" type="line" smooth="yes"/>
      <point x="48" y="476"/>
      <point x="20" y="448"/>
      <point x="20" y="413" type="curve" smooth="yes"/>
      <point x="20" y="289" type="line" smooth="yes"/>
      <point x="20" y="255"/>
      <point x="48" y="227"/>
      <point x="82" y="227" type="curve" smooth="yes"/>
      <point x="289" y="227" type="line" smooth="yes"/>
      <point x="324" y="227"/>
      <point x="351" y="255"/>
    </contour>
    <contour>
      <point x="351" y="621" type="curve" smooth="yes"/>
      <point x="351" y="745" type="line" smooth="yes"/>
      <point x="351" y="779"/>
      <point x="324" y="807"/>
      <point x="289" y="807" type="curve" smooth="yes"/>
      <point x="82" y="807" type="line" smooth="yes"/>
      <point x="48" y="807"/>
      <point x="20" y="779"/>
      <point x="20" y="745" type="curve" smooth="yes"/>
      <point x="20" y="621" type="line" smooth="yes"/>
      <point x="20" y="586"/>
      <point x="48" y="558"/>
      <point x="82" y="558" type="curve" smooth="yes"/>
      <point x="289" y="558" type="line" smooth="yes"/>
      <point x="324" y="558"/>
      <point x="351" y="586"/>
    </contour>
    <contour>
      <point x="1180" y="289" type="curve" smooth="yes"/>
      <point x="1180" y="413" type="line" smooth="yes"/>
      <point x="1180" y="448"/>
      <point x="1152" y="476"/>
      <point x="1118" y="476" type="curve" smooth="yes"/>
      <point x="496" y="476" type="line" smooth="yes"/>
      <point x="462" y="476"/>
      <point x="434" y="448"/>
      <point x="434" y="413" type="curve" smooth="yes"/>
      <point x="434" y="289" type="line" smooth="yes"/>
      <point x="434" y="255"/>
      <point x="462" y="227"/>
      <point x="496" y="227" type="curve" smooth="yes"/>
      <point x="1118" y="227" type="line" smooth="yes"/>
      <point x="1152" y="227"/>
      <point x="1180" y="255"/>
    </contour>
    <contour>
      <point x="351" y="952" type="curve" smooth="yes"/>
      <point x="351" y="1076" type="line" smooth="yes"/>
      <point x="351" y="1111"/>
      <point x="324" y="1138"/>
      <point x="289" y="1138" type="curve" smooth="yes"/>
      <point x="82" y="1138" type="line" smooth="yes"/>
      <point x="48" y="1138"/>
      <point x="20" y="1111"/>
      <point x="20" y="1076" type="curve" smooth="yes"/>
      <point x="20" y="952" type="line" smooth="yes"/>
      <point x="20" y="918"/>
      <point x="48" y="890"/>
      <point x="82" y="890" type="curve" smooth="yes"/>
      <point x="289" y="890" type="line" smooth="yes"/>
      <point x="324" y="890"/>
      <point x="351" y="918"/>
    </contour>
    <contour>
      <point x="1180" y="621" type="curve" smooth="yes"/>
      <point x="1180" y="745" type="line" smooth="yes"/>
      <point x="1180" y="779"/>
      <point x="1152" y="807"/>
      <point x="1118" y="807" type="curve" smooth="yes"/>
      <point x="496" y="807" type="line" smooth="yes"/>
      <point x="462" y="807"/>
      <point x="434" y="779"/>
      <point x="434" y="745" type="curve" smooth="yes"/>
      <point x="434" y="621" type="line" smooth="yes"/>
      <point x="434" y="586"/>
      <point x="462" y="558"/>
      <point x="496" y="558" type="curve" smooth="yes"/>
      <point x="1118" y="558" type="line" smooth="yes"/>
      <point x="1152" y="558"/>
      <point x="1180" y="586"/>
    </contour>
    <contour>
      <point x="1180" y="952" type="curve" smooth="yes"/>
      <point x="1180" y="1076" type="line" smooth="yes"/>
      <point x="1180" y="1111"/>
      <point x="1152" y="1138"/>
      <point x="1118" y="1138" type="curve" smooth="yes"/>
      <point x="496" y="1138" type="line" smooth="yes"/>
      <point x="462" y="1138"/>
      <point x="434" y="1111"/>
      <point x="434" y="1076" type="curve" smooth="yes"/>
      <point x="434" y="952" type="line" smooth="yes"/>
      <point x="434" y="918"/>
      <point x="462" y="890"/>
      <point x="496" y="890" type="curve" smooth="yes"/>
      <point x="1118" y="890" type="line" smooth="yes"/>
      <point x="1152" y="890"/>
      <point x="1180" y="918"/>
    </contour>
  </outline>
</glyph>
<glyph name="ok" format="2">
  <advance width="1200"/>
  <unicode hex="F00C"/>
  <note>
ok
</note>
  <outline>
    <contour>
      <point x="1180" y="953" type="curve" smooth="yes"/>
      <point x="1180" y="972"/>
      <point x="1173" y="990"/>
      <point x="1159" y="1004" type="curve" smooth="yes"/>
      <point x="1057" y="1106" type="line" smooth="yes"/>
      <point x="1044" y="1119"/>
      <point x="1025" y="1127"/>
      <point x="1006" y="1127" type="curve" smooth="yes"/>
      <point x="988" y="1127"/>
      <point x="969" y="1119"/>
      <point x="955" y="1106" type="curve" smooth="yes"/>
      <point x="465" y="614" type="line"/>
      <point x="245" y="835" type="line" smooth="yes"/>
      <point x="231" y="848"/>
      <point x="212" y="856"/>
      <point x="194" y="856" type="curve" smooth="yes"/>
      <point x="175" y="856"/>
      <point x="156" y="848"/>
      <point x="143" y="835" type="curve" smooth="yes"/>
      <point x="41" y="733" type="line" smooth="yes"/>
      <point x="27" y="719"/>
      <point x="20" y="701"/>
      <point x="20" y="682" type="curve" smooth="yes"/>
      <point x="20" y="663"/>
      <point x="27" y="645"/>
      <point x="41" y="631" type="curve" smooth="yes"/>
      <point x="312" y="360" type="line"/>
      <point x="414" y="258" type="line" smooth="yes"/>
      <point x="427" y="245"/>
      <point x="446" y="237"/>
      <point x="465" y="237" type="curve" smooth="yes"/>
      <point x="483" y="237"/>
      <point x="502" y="245"/>
      <point x="515" y="258" type="curve" smooth="yes"/>
      <point x="617" y="360" type="line"/>
      <point x="1159" y="902" type="line" smooth="yes"/>
      <point x="1173" y="916"/>
      <point x="1180" y="934"/>
    </contour>
  </outline>
</glyph>
<glyph name="remove" format="2">
  <advance width="1200"/>
  <unicode hex="F00D"/>
  <note>
remove
</note>
  <outline>
    <contour>
      <point x="1180" y="436" type="curve" smooth="yes"/>
      <point x="1180" y="460"/>
      <point x="1170" y="485"/>
      <point x="1153" y="502" type="curve" smooth="yes"/>
      <point x="866" y="789" type="line"/>
      <point x="1153" y="1076" type="line" smooth="yes"/>
      <point x="1170" y="1094"/>
      <point x="1180" y="1118"/>
      <point x="1180" y="1143" type="curve" smooth="yes"/>
      <point x="1180" y="1167"/>
      <point x="1170" y="1192"/>
      <point x="1153" y="1209" type="curve" smooth="yes"/>
      <point x="1020" y="1342" type="line" smooth="yes"/>
      <point x="1002" y="1360"/>
      <point x="978" y="1369"/>
      <point x="953" y="1369" type="curve" smooth="yes"/>
      <point x="929" y="1369"/>
      <point x="905" y="1360"/>
      <point x="887" y="1342" type="curve" smooth="yes"/>
      <point x="600" y="1055" type="line"/>
      <point x="313" y="1342" type="line" smooth="yes"/>
      <point x="295" y="1360"/>
      <point x="271" y="1369"/>
      <point x="247" y="1369" type="curve" smooth="yes"/>
      <point x="222" y="1369"/>
      <point x="198" y="1360"/>
      <point x="180" y="1342" type="curve" smooth="yes"/>
      <point x="47" y="1209" type="line" smooth="yes"/>
      <point x="30" y="1192"/>
      <point x="20" y="1167"/>
      <point x="20" y="1143" type="curve" smooth="yes"/>
      <point x="20" y="1118"/>
      <point x="30" y="1094"/>
      <point x="47" y="1076" type="curve" smooth="yes"/>
      <point x="334" y="789" type="line"/>
      <point x="47" y="502" type="line" smooth="yes"/>
      <point x="30" y="485"/>
      <point x="20" y="460"/>
      <point x="20" y="436" type="curve" smooth="yes"/>
      <point x="20" y="412"/>
      <point x="30" y="387"/>
      <point x="47" y="370" type="curve" smooth="yes"/>
      <point x="180" y="237" type="line" smooth="yes"/>
      <point x="198" y="219"/>
      <point x="222" y="209"/>
      <point x="247" y="209" type="curve" smooth="yes"/>
      <point x="271" y="209"/>
      <point x="295" y="219"/>
      <point x="313" y="237" type="curve" smooth="yes"/>
      <point x="600" y="524" type="line"/>
      <point x="887" y="237" type="line" smooth="yes"/>
      <point x="905" y="219"/>
      <point x="929" y="209"/>
      <point x="953" y="209" type="curve" smooth="yes"/>
      <point x="978" y="209"/>
      <point x="1002" y="219"/>
      <point x="1020" y="237" type="curve" smooth="yes"/>
      <point x="1153" y="370" type="line" smooth="yes"/>
      <point x="1170" y="387"/>
      <point x="1180" y="412"/>
    </contour>
  </outline>
</glyph>
<glyph name="zoom_out" format="2">
  <advance width="1200"/>
  <unicode hex="F010"/>
  <note>
zoom_out
</note>
  <outline>
    <contour>
      <point x="734" y="695" type="curve" smooth="yes"/>
      <point x="734" y="740" type="line" smooth="yes"/>
      <point x="734" y="752"/>
      <point x="723" y="762"/>
      <point x="712" y="762" type="curve" smooth="yes"/>
      <point x="310" y="762" type="line" smooth="yes"/>
      <point x="298" y="762"/>
      <point x="288" y="752"/>
      <point x="288" y="740" type="curve" smooth="yes"/>
      <point x="288" y="695" type="line" smooth="yes"/>
      <point x="288" y="684"/>
      <point x="298" y="673"/>
      <point x="310" y="673" type="curve" smooth="yes"/>
      <point x="712" y="673" type="line" smooth="yes"/>
      <point x="723" y="673"/>
      <point x="734" y="684"/>
    </contour>
    <contour>
      <point x="823" y="718" type="curve" smooth="yes"/>
      <point x="823" y="546"/>
      <point x="683" y="405"/>
      <point x="511" y="405" type="curve" smooth="yes"/>
      <point x="339" y="405"/>
      <point x="198" y="546"/>
      <point x="198" y="718" type="curve" smooth="yes"/>
      <point x="198" y="890"/>
      <point x="339" y="1030"/>
      <point x="511" y="1030" type="curve" smooth="yes"/>
      <point x="683" y="1030"/>
      <point x="823" y="890"/>
    </contour>
    <contour>
      <point x="1180" y="138" type="curve" smooth="yes"/>
      <point x="1180" y="161"/>
      <point x="1170" y="184"/>
      <point x="1154" y="201" type="curve" smooth="yes"/>
      <point x="915" y="440" type="line"/>
      <point x="972" y="521"/>
      <point x="1002" y="619"/>
      <point x="1002" y="718" type="curve" smooth="yes"/>
      <point x="1002" y="989"/>
      <point x="782" y="1209"/>
      <point x="511" y="1209" type="curve" smooth="yes"/>
      <point x="240" y="1209"/>
      <point x="20" y="989"/>
      <point x="20" y="718" type="curve" smooth="yes"/>
      <point x="20" y="447"/>
      <point x="240" y="227"/>
      <point x="511" y="227" type="curve" smooth="yes"/>
      <point x="610" y="227"/>
      <point x="707" y="257"/>
      <point x="789" y="313" type="curve"/>
      <point x="1028" y="75" type="line" smooth="yes"/>
      <point x="1044" y="58"/>
      <point x="1067" y="49"/>
      <point x="1091" y="49" type="curve" smooth="yes"/>
      <point x="1140" y="49"/>
      <point x="1180" y="88"/>
    </contour>
  </outline>
</glyph>
<glyph name="off" format="2">
  <advance width="1200"/>
  <unicode hex="F011"/>
  <note>
off
</note>
  <outline>
    <contour>
      <point x="1180" y="710" type="curve" smooth="yes"/>
      <point x="1180" y="894"/>
      <point x="1095" y="1063"/>
      <point x="948" y="1173" type="curve" smooth="yes"/>
      <point x="906" y="1206"/>
      <point x="845" y="1197"/>
      <point x="813" y="1154" type="curve" smooth="yes"/>
      <point x="780" y="1112"/>
      <point x="790" y="1051"/>
      <point x="832" y="1019" type="curve" smooth="yes"/>
      <point x="930" y="945"/>
      <point x="987" y="833"/>
      <point x="987" y="710" type="curve" smooth="yes"/>
      <point x="987" y="497"/>
      <point x="813" y="324"/>
      <point x="600" y="324" type="curve" smooth="yes"/>
      <point x="387" y="324"/>
      <point x="213" y="497"/>
      <point x="213" y="710" type="curve" smooth="yes"/>
      <point x="213" y="833"/>
      <point x="270" y="945"/>
      <point x="368" y="1019" type="curve" smooth="yes"/>
      <point x="410" y="1051"/>
      <point x="420" y="1112"/>
      <point x="387" y="1154" type="curve" smooth="yes"/>
      <point x="355" y="1197"/>
      <point x="295" y="1206"/>
      <point x="252" y="1173" type="curve" smooth="yes"/>
      <point x="105" y="1063"/>
      <point x="20" y="894"/>
      <point x="20" y="710" type="curve" smooth="yes"/>
      <point x="20" y="391"/>
      <point x="281" y="130"/>
      <point x="600" y="130" type="curve" smooth="yes"/>
      <point x="919" y="130"/>
      <point x="1180" y="391"/>
    </contour>
    <contour>
      <point x="697" y="807" type="curve" smooth="yes"/>
      <point x="697" y="1290" type="line" smooth="yes"/>
      <point x="697" y="1343"/>
      <point x="653" y="1387"/>
      <point x="600" y="1387" type="curve" smooth="yes"/>
      <point x="547" y="1387"/>
      <point x="503" y="1343"/>
      <point x="503" y="1290" type="curve" smooth="yes"/>
      <point x="503" y="807" type="line" smooth="yes"/>
      <point x="503" y="754"/>
      <point x="547" y="710"/>
      <point x="600" y="710" type="curve" smooth="yes"/>
      <point x="653" y="710"/>
      <point x="697" y="754"/>
    </contour>
  </outline>
</glyph>
<glyph name="signal" format="2">
  <advance width="1200"/>
  <unicode hex="F012"/>
  <note>
signal
</note>
  <outline>
    <contour>
      <point x="186" y="165" type="curve" smooth="yes"/>
      <point x="186" y="289" type="line" smooth="yes"/>
      <point x="186" y="301"/>
      <point x="177" y="310"/>
      <point x="165" y="310" type="curve" smooth="yes"/>
      <point x="41" y="310" type="line" smooth="yes"/>
      <point x="29" y="310"/>
      <point x="20" y="301"/>
      <point x="20" y="289" type="curve" smooth="yes"/>
      <point x="20" y="165" type="line" smooth="yes"/>
      <point x="20" y="153"/>
      <point x="29" y="144"/>
      <point x="41" y="144" type="curve" smooth="yes"/>
      <point x="165" y="144" type="line" smooth="yes"/>
      <point x="177" y="144"/>
      <point x="186" y="153"/>
    </contour>
    <contour>
      <point x="434" y="165" type="curve" smooth="yes"/>
      <point x="434" y="372" type="line" smooth="yes"/>
      <point x="434" y="384"/>
      <point x="425" y="393"/>
      <point x="414" y="393" type="curve" smooth="yes"/>
      <point x="289" y="393" type="line" smooth="yes"/>
      <point x="278" y="393"/>
      <point x="269" y="384"/>
      <point x="269" y="372" type="curve" smooth="yes"/>
      <point x="269" y="165" type="line" smooth="yes"/>
      <point x="269" y="153"/>
      <point x="278" y="144"/>
      <point x="289" y="144" type="curve" smooth="yes"/>
      <point x="414" y="144" type="line" smooth="yes"/>
      <point x="425" y="144"/>
      <point x="434" y="153"/>
    </contour>
    <contour>
      <point x="683" y="165" type="curve" smooth="yes"/>
      <point x="683" y="538" type="line" smooth="yes"/>
      <point x="683" y="549"/>
      <point x="674" y="558"/>
      <point x="662" y="558" type="curve" smooth="yes"/>
      <point x="538" y="558" type="line" smooth="yes"/>
      <point x="526" y="558"/>
      <point x="517" y="549"/>
      <point x="517" y="538" type="curve" smooth="yes"/>
      <point x="517" y="165" type="line" smooth="yes"/>
      <point x="517" y="153"/>
      <point x="526" y="144"/>
      <point x="538" y="144" type="curve" smooth="yes"/>
      <point x="662" y="144" type="line" smooth="yes"/>
      <point x="674" y="144"/>
      <point x="683" y="153"/>
    </contour>
    <contour>
      <point x="931" y="165" type="curve" smooth="yes"/>
      <point x="931" y="786" type="line" smooth="yes"/>
      <point x="931" y="798"/>
      <point x="922" y="807"/>
      <point x="911" y="807" type="curve" smooth="yes"/>
      <point x="786" y="807" type="line" smooth="yes"/>
      <point x="775" y="807"/>
      <point x="766" y="798"/>
      <point x="766" y="786" type="curve" smooth="yes"/>
      <point x="766" y="165" type="line" smooth="yes"/>
      <point x="766" y="153"/>
      <point x="775" y="144"/>
      <point x="786" y="144" type="curve" smooth="yes"/>
      <point x="911" y="144" type="line" smooth="yes"/>
      <point x="922" y="144"/>
      <point x="931" y="153"/>
    </contour>
    <contour>
      <point x="1180" y="165" type="curve" smooth="yes"/>
      <point x="1180" y="1118" type="line" smooth="yes"/>
      <point x="1180" y="1129"/>
      <point x="1171" y="1138"/>
      <point x="1159" y="1138" type="curve" smooth="yes"/>
      <point x="1035" y="1138" type="line" smooth="yes"/>
      <point x="1023" y="1138"/>
      <point x="1014" y="1129"/>
      <point x="1014" y="1118" type="curve" smooth="yes"/>
      <point x="1014" y="165" type="line" smooth="yes"/>
      <point x="1014" y="153"/>
      <point x="1023" y="144"/>
      <point x="1035" y="144" type="curve" smooth="yes"/>
      <point x="1159" y="144" type="line" smooth="yes"/>
      <point x="1171" y="144"/>
      <point x="1180" y="153"/>
    </contour>
  </outline>
</glyph>
<glyph name="cog" format="2">
  <advance width="1200"/>
  <unicode hex="F013"/>
  <note>
cog
</note>
  <outline>
    <contour>
      <point x="793" y="710" type="curve" smooth="yes"/>
      <point x="793" y="604"/>
      <point x="706" y="517"/>
      <point x="600" y="517" type="curve" smooth="yes"/>
      <point x="494" y="517"/>
      <point x="407" y="604"/>
      <point x="407" y="710" type="curve" smooth="yes"/>
      <point x="407" y="816"/>
      <point x="494" y="903"/>
      <point x="600" y="903" type="curve" smooth="yes"/>
      <point x="706" y="903"/>
      <point x="793" y="816"/>
    </contour>
    <contour>
      <point x="1180" y="625" type="curve" smooth="yes"/>
      <point x="1180" y="792" type="line" smooth="yes"/>
      <point x="1180" y="805"/>
      <point x="1171" y="817"/>
      <point x="1158" y="820" type="curve" smooth="yes"/>
      <point x="1020" y="841" type="line"/>
      <point x="1012" y="866"/>
      <point x="1002" y="890"/>
      <point x="989" y="915" type="curve"/>
      <point x="1015" y="950"/>
      <point x="1043" y="983"/>
      <point x="1068" y="1018" type="curve" smooth="yes"/>
      <point x="1072" y="1023"/>
      <point x="1074" y="1029"/>
      <point x="1074" y="1035" type="curve" smooth="yes"/>
      <point x="1074" y="1042"/>
      <point x="1073" y="1048"/>
      <point x="1069" y="1052" type="curve" smooth="yes"/>
      <point x="1037" y="1097"/>
      <point x="984" y="1143"/>
      <point x="944" y="1180" type="curve" smooth="yes"/>
      <point x="939" y="1185"/>
      <point x="932" y="1188"/>
      <point x="925" y="1188" type="curve" smooth="yes"/>
      <point x="919" y="1188"/>
      <point x="912" y="1186"/>
      <point x="907" y="1181" type="curve"/>
      <point x="800" y="1100" type="line"/>
      <point x="778" y="1112"/>
      <point x="756" y="1121"/>
      <point x="732" y="1128" type="curve"/>
      <point x="711" y="1267" type="line" smooth="yes"/>
      <point x="710" y="1280"/>
      <point x="697" y="1290"/>
      <point x="684" y="1290" type="curve" smooth="yes"/>
      <point x="516" y="1290" type="line" smooth="yes"/>
      <point x="503" y="1290"/>
      <point x="492" y="1281"/>
      <point x="489" y="1269" type="curve" smooth="yes"/>
      <point x="477" y="1224"/>
      <point x="472" y="1174"/>
      <point x="467" y="1128" type="curve"/>
      <point x="444" y="1121"/>
      <point x="420" y="1111"/>
      <point x="398" y="1100" type="curve"/>
      <point x="294" y="1180" type="line" smooth="yes"/>
      <point x="288" y="1185"/>
      <point x="281" y="1188"/>
      <point x="275" y="1188" type="curve" smooth="yes"/>
      <point x="249" y="1188"/>
      <point x="147" y="1078"/>
      <point x="129" y="1053" type="curve" smooth="yes"/>
      <point x="125" y="1048"/>
      <point x="122" y="1042"/>
      <point x="122" y="1035" type="curve" smooth="yes"/>
      <point x="122" y="1029"/>
      <point x="125" y="1023"/>
      <point x="130" y="1017" type="curve" smooth="yes"/>
      <point x="157" y="983"/>
      <point x="185" y="949"/>
      <point x="210" y="913" type="curve"/>
      <point x="198" y="890"/>
      <point x="188" y="868"/>
      <point x="181" y="844" type="curve"/>
      <point x="40" y="823" type="line" smooth="yes"/>
      <point x="29" y="820"/>
      <point x="20" y="807"/>
      <point x="20" y="795" type="curve" smooth="yes"/>
      <point x="20" y="628" type="line" smooth="yes"/>
      <point x="20" y="615"/>
      <point x="29" y="603"/>
      <point x="42" y="600" type="curve" smooth="yes"/>
      <point x="180" y="580" type="line"/>
      <point x="188" y="554"/>
      <point x="198" y="530"/>
      <point x="211" y="505" type="curve"/>
      <point x="185" y="470"/>
      <point x="157" y="437"/>
      <point x="132" y="402" type="curve" smooth="yes"/>
      <point x="128" y="397"/>
      <point x="126" y="391"/>
      <point x="126" y="385" type="curve" smooth="yes"/>
      <point x="126" y="378"/>
      <point x="127" y="372"/>
      <point x="131" y="367" type="curve" smooth="yes"/>
      <point x="163" y="323"/>
      <point x="216" y="277"/>
      <point x="256" y="240" type="curve" smooth="yes"/>
      <point x="261" y="235"/>
      <point x="268" y="232"/>
      <point x="275" y="232" type="curve" smooth="yes"/>
      <point x="281" y="232"/>
      <point x="288" y="234"/>
      <point x="293" y="239" type="curve" smooth="yes"/>
      <point x="400" y="320" type="line"/>
      <point x="422" y="308"/>
      <point x="444" y="299"/>
      <point x="468" y="292" type="curve"/>
      <point x="489" y="153" type="line" smooth="yes"/>
      <point x="490" y="140"/>
      <point x="503" y="130"/>
      <point x="516" y="130" type="curve" smooth="yes"/>
      <point x="684" y="130" type="line" smooth="yes"/>
      <point x="697" y="130"/>
      <point x="708" y="139"/>
      <point x="711" y="151" type="curve" smooth="yes"/>
      <point x="723" y="196"/>
      <point x="728" y="246"/>
      <point x="733" y="292" type="curve"/>
      <point x="756" y="299"/>
      <point x="780" y="309"/>
      <point x="802" y="320" type="curve"/>
      <point x="906" y="239" type="line"/>
      <point x="912" y="235"/>
      <point x="919" y="232"/>
      <point x="925" y="232" type="curve" smooth="yes"/>
      <point x="951" y="232"/>
      <point x="1053" y="343"/>
      <point x="1071" y="367" type="curve" smooth="yes"/>
      <point x="1076" y="372"/>
      <point x="1078" y="378"/>
      <point x="1078" y="385" type="curve" smooth="yes"/>
      <point x="1078" y="391"/>
      <point x="1075" y="398"/>
      <point x="1070" y="403" type="curve" smooth="yes"/>
      <point x="1043" y="437"/>
      <point x="1015" y="471"/>
      <point x="990" y="508" type="curve"/>
      <point x="1002" y="530"/>
      <point x="1011" y="552"/>
      <point x="1019" y="576" type="curve"/>
      <point x="1159" y="597" type="line" smooth="yes"/>
      <point x="1171" y="600"/>
      <point x="1180" y="613"/>
    </contour>
  </outline>
</glyph>
<glyph name="trash" format="2">
  <advance width="1200"/>
  <unicode hex="F014"/>
  <note>
trash
</note>
  <outline>
    <contour>
      <point x="442" y="412" type="curve" smooth="yes"/>
      <point x="442" y="886" type="line" smooth="yes"/>
      <point x="442" y="901"/>
      <point x="430" y="912"/>
      <point x="415" y="912" type="curve" smooth="yes"/>
      <point x="363" y="912" type="line" smooth="yes"/>
      <point x="348" y="912"/>
      <point x="336" y="901"/>
      <point x="336" y="886" type="curve" smooth="yes"/>
      <point x="336" y="412" type="line" smooth="yes"/>
      <point x="336" y="397"/>
      <point x="348" y="385"/>
      <point x="363" y="385" type="curve" smooth="yes"/>
      <point x="415" y="385" type="line" smooth="yes"/>
      <point x="430" y="385"/>
      <point x="442" y="397"/>
    </contour>
    <contour>
      <point x="653" y="412" type="curve" smooth="yes"/>
      <point x="653" y="886" type="line" smooth="yes"/>
      <point x="653" y="901"/>
      <point x="641" y="912"/>
      <point x="626" y="912" type="curve" smooth="yes"/>
      <point x="574" y="912" type="line" smooth="yes"/>
      <point x="559" y="912"/>
      <point x="547" y="901"/>
      <point x="547" y="886" type="curve" smooth="yes"/>
      <point x="547" y="412" type="line" smooth="yes"/>
      <point x="547" y="397"/>
      <point x="559" y="385"/>
      <point x="574" y="385" type="curve" smooth="yes"/>
      <point x="626" y="385" type="line" smooth="yes"/>
      <point x="641" y="385"/>
      <point x="653" y="397"/>
    </contour>
    <contour>
      <point x="864" y="412" type="curve" smooth="yes"/>
      <point x="864" y="886" type="line" smooth="yes"/>
      <point x="864" y="901"/>
      <point x="852" y="912"/>
      <point x="837" y="912" type="curve" smooth="yes"/>
      <point x="785" y="912" type="line" smooth="yes"/>
      <point x="770" y="912"/>
      <point x="758" y="901"/>
      <point x="758" y="886" type="curve" smooth="yes"/>
      <point x="758" y="412" type="line" smooth="yes"/>
      <point x="758" y="397"/>
      <point x="770" y="385"/>
      <point x="785" y="385" type="curve" smooth="yes"/>
      <point x="837" y="385" type="line" smooth="yes"/>
      <point x="852" y="385"/>
      <point x="864" y="397"/>
    </contour>
    <contour>
      <point x="969" y="290" type="line" smooth="yes"/>
      <point x="969" y="250"/>
      <point x="947" y="227"/>
      <point x="943" y="227" type="curve" smooth="yes"/>
      <point x="257" y="227" type="line" smooth="yes"/>
      <point x="253" y="227"/>
      <point x="231" y="250"/>
      <point x="231" y="290" type="curve" smooth="yes"/>
      <point x="231" y="1071" type="line"/>
      <point x="969" y="1071" type="line"/>
    </contour>
    <contour>
      <point x="785" y="1176" type="line"/>
      <point x="415" y="1176" type="line"/>
      <point x="456" y="1272" type="line"/>
      <point x="458" y="1276"/>
      <point x="465" y="1281"/>
      <point x="470" y="1282" type="curve"/>
      <point x="731" y="1282" type="line"/>
      <point x="735" y="1281"/>
      <point x="743" y="1276"/>
      <point x="745" y="1272" type="curve"/>
    </contour>
    <contour>
      <point x="1180" y="1097" type="curve" smooth="yes"/>
      <point x="1180" y="1150" type="line" smooth="yes"/>
      <point x="1180" y="1165"/>
      <point x="1168" y="1176"/>
      <point x="1154" y="1176" type="curve" smooth="yes"/>
      <point x="899" y="1176" type="line"/>
      <point x="841" y="1314" type="line" smooth="yes"/>
      <point x="825" y="1354"/>
      <point x="775" y="1387"/>
      <point x="732" y="1387" type="curve" smooth="yes"/>
      <point x="468" y="1387" type="line" smooth="yes"/>
      <point x="425" y="1387"/>
      <point x="375" y="1354"/>
      <point x="359" y="1314" type="curve" smooth="yes"/>
      <point x="301" y="1176" type="line"/>
      <point x="46" y="1176" type="line" smooth="yes"/>
      <point x="32" y="1176"/>
      <point x="20" y="1165"/>
      <point x="20" y="1150" type="curve" smooth="yes"/>
      <point x="20" y="1097" type="line" smooth="yes"/>
      <point x="20" y="1082"/>
      <point x="32" y="1071"/>
      <point x="46" y="1071" type="curve" smooth="yes"/>
      <point x="125" y="1071" type="line"/>
      <point x="125" y="286" type="line" smooth="yes"/>
      <point x="125" y="196"/>
      <point x="185" y="122"/>
      <point x="257" y="122" type="curve" smooth="yes"/>
      <point x="943" y="122" type="line" smooth="yes"/>
      <point x="1015" y="122"/>
      <point x="1075" y="199"/>
      <point x="1075" y="290" type="curve" smooth="yes"/>
      <point x="1075" y="1071" type="line"/>
      <point x="1154" y="1071" type="line" smooth="yes"/>
      <point x="1168" y="1071"/>
      <point x="1180" y="1082"/>
    </contour>
  </outline>
</glyph>
<glyph name="home" format="2">
  <advance width="1200"/>
  <unicode hex="F015"/>
  <note>
home
</note>
  <outline>
    <contour>
      <point x="1014" y="273" type="curve" smooth="yes"/>
      <point x="1014" y="618" type="line" smooth="yes"/>
      <point x="1014" y="620"/>
      <point x="1014" y="621"/>
      <point x="1014" y="623" type="curve"/>
      <point x="600" y="964" type="line"/>
      <point x="186" y="623" type="line"/>
      <point x="186" y="621"/>
      <point x="186" y="620"/>
      <point x="186" y="618" type="curve" smooth="yes"/>
      <point x="186" y="273" type="line" smooth="yes"/>
      <point x="186" y="248"/>
      <point x="206" y="227"/>
      <point x="232" y="227" type="curve" smooth="yes"/>
      <point x="508" y="227" type="line"/>
      <point x="508" y="503" type="line"/>
      <point x="692" y="503" type="line"/>
      <point x="692" y="227" type="line"/>
      <point x="968" y="227" type="line" smooth="yes"/>
      <point x="994" y="227"/>
      <point x="1014" y="248"/>
    </contour>
    <contour>
      <point x="1175" y="668" type="line" smooth="yes"/>
      <point x="1183" y="677"/>
      <point x="1181" y="693"/>
      <point x="1172" y="700" type="curve" smooth="yes"/>
      <point x="1014" y="831" type="line"/>
      <point x="1014" y="1125" type="line" smooth="yes"/>
      <point x="1014" y="1138"/>
      <point x="1004" y="1148"/>
      <point x="991" y="1148" type="curve" smooth="yes"/>
      <point x="853" y="1148" type="line" smooth="yes"/>
      <point x="840" y="1148"/>
      <point x="830" y="1138"/>
      <point x="830" y="1125" type="curve" smooth="yes"/>
      <point x="830" y="985" type="line"/>
      <point x="655" y="1131" type="line" smooth="yes"/>
      <point x="624" y="1157"/>
      <point x="576" y="1157"/>
      <point x="545" y="1131" type="curve" smooth="yes"/>
      <point x="28" y="700" type="line" smooth="yes"/>
      <point x="19" y="693"/>
      <point x="17" y="677"/>
      <point x="25" y="668" type="curve" smooth="yes"/>
      <point x="70" y="615" type="line" smooth="yes"/>
      <point x="73" y="610"/>
      <point x="79" y="608"/>
      <point x="85" y="607" type="curve" smooth="yes"/>
      <point x="91" y="606"/>
      <point x="97" y="608"/>
      <point x="102" y="612" type="curve" smooth="yes"/>
      <point x="600" y="1027" type="line"/>
      <point x="1098" y="612" type="line" smooth="yes"/>
      <point x="1102" y="608"/>
      <point x="1107" y="607"/>
      <point x="1113" y="607" type="curve" smooth="yes"/>
      <point x="1114" y="607"/>
      <point x="1114" y="607"/>
      <point x="1115" y="607" type="curve" smooth="yes"/>
      <point x="1121" y="608"/>
      <point x="1127" y="610"/>
      <point x="1130" y="615" type="curve" smooth="yes"/>
    </contour>
  </outline>
</glyph>
<glyph name="file_alt" format="2">
  <advance width="1200"/>
  <unicode hex="F016"/>
  <note>
file_alt
</note>
  <outline>
    <contour>
      <point x="1129" y="1100" type="curve" smooth="yes"/>
      <point x="893" y="1335" type="line" smooth="yes"/>
      <point x="865" y="1363"/>
      <point x="809" y="1387"/>
      <point x="769" y="1387" type="curve" smooth="yes"/>
      <point x="93" y="1387" type="line" smooth="yes"/>
      <point x="52" y="1387"/>
      <point x="20" y="1354"/>
      <point x="20" y="1314" type="curve" smooth="yes"/>
      <point x="20" y="106" type="line" smooth="yes"/>
      <point x="20" y="66"/>
      <point x="52" y="33"/>
      <point x="93" y="33" type="curve" smooth="yes"/>
      <point x="1108" y="33" type="line" smooth="yes"/>
      <point x="1148" y="33"/>
      <point x="1180" y="66"/>
      <point x="1180" y="106" type="curve" smooth="yes"/>
      <point x="1180" y="976" type="line" smooth="yes"/>
      <point x="1180" y="1016"/>
      <point x="1157" y="1072"/>
    </contour>
    <contour>
      <point x="793" y="1000" type="line"/>
      <point x="793" y="1284" type="line"/>
      <point x="806" y="1279"/>
      <point x="819" y="1273"/>
      <point x="824" y="1267" type="curve" smooth="yes"/>
      <point x="1061" y="1031" type="line" smooth="yes"/>
      <point x="1066" y="1026"/>
      <point x="1073" y="1013"/>
      <point x="1077" y="1000" type="curve"/>
    </contour>
    <contour>
      <point x="1083" y="903" type="line"/>
      <point x="1083" y="130" type="line"/>
      <point x="117" y="130" type="line"/>
      <point x="117" y="1290" type="line"/>
      <point x="697" y="1290" type="line"/>
      <point x="697" y="976" type="line" smooth="yes"/>
      <point x="697" y="936"/>
      <point x="729" y="903"/>
      <point x="769" y="903" type="curve" smooth="yes"/>
    </contour>
  </outline>
</glyph>
<glyph name="time" format="2">
  <advance width="1200"/>
  <unicode hex="F017"/>
  <note>
time
</note>
  <outline>
    <contour>
      <point x="697" y="638" type="curve" smooth="yes"/>
      <point x="697" y="976" type="line" smooth="yes"/>
      <point x="697" y="990"/>
      <point x="686" y="1000"/>
      <point x="673" y="1000" type="curve" smooth="yes"/>
      <point x="624" y="1000" type="line" smooth="yes"/>
      <point x="611" y="1000"/>
      <point x="600" y="990"/>
      <point x="600" y="976" type="curve" smooth="yes"/>
      <point x="600" y="710" type="line"/>
      <point x="431" y="710" type="line" smooth="yes"/>
      <point x="417" y="710"/>
      <point x="407" y="700"/>
      <point x="407" y="686" type="curve" smooth="yes"/>
      <point x="407" y="638" type="line" smooth="yes"/>
      <point x="407" y="624"/>
      <point x="417" y="614"/>
      <point x="431" y="614" type="curve" smooth="yes"/>
      <point x="673" y="614" type="line" smooth="yes"/>
      <point x="686" y="614"/>
      <point x="697" y="624"/>
    </contour>
    <contour>
      <point x="1011" y="710" type="curve" smooth="yes"/>
      <point x="1011" y="484"/>
      <point x="827" y="300"/>
      <point x="600" y="300" type="curve" smooth="yes"/>
      <point x="373" y="300"/>
      <point x="189" y="484"/>
      <point x="189" y="710" type="curve" smooth="yes"/>
      <point x="189" y="937"/>
      <point x="373" y="1121"/>
      <point x="600" y="1121" type="curve" smooth="yes"/>
      <point x="827" y="1121"/>
      <point x="1011" y="937"/>
    </contour>
    <contour>
      <point x="1180" y="710" type="curve" smooth="yes"/>
      <point x="1180" y="1031"/>
      <point x="920" y="1290"/>
      <point x="600" y="1290" type="curve" smooth="yes"/>
      <point x="280" y="1290"/>
      <point x="20" y="1031"/>
      <point x="20" y="710" type="curve" smooth="yes"/>
      <point x="20" y="390"/>
      <point x="280" y="130"/>
      <point x="600" y="130" type="curve" smooth="yes"/>
      <point x="920" y="130"/>
      <point x="1180" y="390"/>
    </contour>
  </outline>
</glyph>
<glyph name="road" format="2">
  <advance width="1200"/>
  <unicode hex="F018"/>
  <note>
road
</note>
  <outline>
    <contour>
      <point x="696" y="571" type="line" smooth="yes"/>
      <point x="697" y="561"/>
      <point x="687" y="553"/>
      <point x="678" y="553" type="curve" smooth="yes"/>
      <point x="522" y="553" type="line" smooth="yes"/>
      <point x="513" y="553"/>
      <point x="503" y="561"/>
      <point x="504" y="571" type="curve" smooth="yes"/>
      <point x="504" y="574" type="line"/>
      <point x="519" y="778" type="line" smooth="yes"/>
      <point x="520" y="789"/>
      <point x="530" y="798"/>
      <point x="541" y="798" type="curve" smooth="yes"/>
      <point x="659" y="798" type="line" smooth="yes"/>
      <point x="670" y="798"/>
      <point x="680" y="789"/>
      <point x="681" y="778" type="curve" smooth="yes"/>
      <point x="696" y="574" type="line"/>
    </contour>
    <contour>
      <point x="1180" y="274" type="curve" smooth="yes"/>
      <point x="1180" y="299"/>
      <point x="1173" y="325"/>
      <point x="1163" y="347" type="curve" smooth="yes"/>
      <point x="898" y="1013" type="line" smooth="yes"/>
      <point x="891" y="1029"/>
      <point x="874" y="1043"/>
      <point x="857" y="1043" type="curve" smooth="yes"/>
      <point x="641" y="1043" type="line" smooth="yes"/>
      <point x="652" y="1043"/>
      <point x="662" y="1034"/>
      <point x="662" y="1022" type="curve" smooth="yes"/>
      <point x="672" y="900" type="line" smooth="yes"/>
      <point x="673" y="889"/>
      <point x="664" y="880"/>
      <point x="653" y="880" type="curve" smooth="yes"/>
      <point x="547" y="880" type="line" smooth="yes"/>
      <point x="536" y="880"/>
      <point x="527" y="889"/>
      <point x="528" y="900" type="curve" smooth="yes"/>
      <point x="538" y="1022" type="line" smooth="yes"/>
      <point x="538" y="1034"/>
      <point x="548" y="1043"/>
      <point x="559" y="1043" type="curve" smooth="yes"/>
      <point x="343" y="1043" type="line" smooth="yes"/>
      <point x="326" y="1043"/>
      <point x="309" y="1029"/>
      <point x="302" y="1013" type="curve" smooth="yes"/>
      <point x="37" y="347" type="line" smooth="yes"/>
      <point x="27" y="325"/>
      <point x="20" y="299"/>
      <point x="20" y="274" type="curve" smooth="yes"/>
      <point x="20" y="255"/>
      <point x="25" y="227"/>
      <point x="49" y="227" type="curve" smooth="yes"/>
      <point x="498" y="227" type="line" smooth="yes"/>
      <point x="487" y="227"/>
      <point x="478" y="236"/>
      <point x="479" y="247" type="curve" smooth="yes"/>
      <point x="492" y="411" type="line" smooth="yes"/>
      <point x="492" y="422"/>
      <point x="502" y="431"/>
      <point x="513" y="431" type="curve" smooth="yes"/>
      <point x="687" y="431" type="line" smooth="yes"/>
      <point x="698" y="431"/>
      <point x="708" y="422"/>
      <point x="708" y="411" type="curve" smooth="yes"/>
      <point x="721" y="247" type="line" smooth="yes"/>
      <point x="722" y="236"/>
      <point x="713" y="227"/>
      <point x="702" y="227" type="curve" smooth="yes"/>
      <point x="1151" y="227" type="line" smooth="yes"/>
      <point x="1175" y="227"/>
      <point x="1180" y="255"/>
    </contour>
  </outline>
</glyph>
<glyph name="download_alt" format="2">
  <advance width="1200"/>
  <unicode hex="F019"/>
  <note>
download_alt
</note>
  <outline>
    <contour>
      <point x="912" y="361" type="curve" smooth="yes"/>
      <point x="912" y="336"/>
      <point x="892" y="316"/>
      <point x="868" y="316" type="curve" smooth="yes"/>
      <point x="843" y="316"/>
      <point x="823" y="336"/>
      <point x="823" y="361" type="curve" smooth="yes"/>
      <point x="823" y="385"/>
      <point x="843" y="405"/>
      <point x="868" y="405" type="curve" smooth="yes"/>
      <point x="892" y="405"/>
      <point x="912" y="385"/>
    </contour>
    <contour>
      <point x="1091" y="361" type="curve" smooth="yes"/>
      <point x="1091" y="336"/>
      <point x="1071" y="316"/>
      <point x="1046" y="316" type="curve" smooth="yes"/>
      <point x="1022" y="316"/>
      <point x="1002" y="336"/>
      <point x="1002" y="361" type="curve" smooth="yes"/>
      <point x="1002" y="385"/>
      <point x="1022" y="405"/>
      <point x="1046" y="405" type="curve" smooth="yes"/>
      <point x="1071" y="405"/>
      <point x="1091" y="385"/>
    </contour>
    <contour>
      <point x="1180" y="294" type="curve" smooth="yes"/>
      <point x="1180" y="517" type="line" smooth="yes"/>
      <point x="1180" y="554"/>
      <point x="1150" y="584"/>
      <point x="1113" y="584" type="curve" smooth="yes"/>
      <point x="790" y="584" type="line"/>
      <point x="695" y="489" type="line" smooth="yes"/>
      <point x="669" y="464"/>
      <point x="636" y="450"/>
      <point x="600" y="450" type="curve" smooth="yes"/>
      <point x="564" y="450"/>
      <point x="531" y="464"/>
      <point x="505" y="489" type="curve" smooth="yes"/>
      <point x="411" y="584" type="line"/>
      <point x="87" y="584" type="line" smooth="yes"/>
      <point x="50" y="584"/>
      <point x="20" y="554"/>
      <point x="20" y="517" type="curve" smooth="yes"/>
      <point x="20" y="294" type="line" smooth="yes"/>
      <point x="20" y="257"/>
      <point x="50" y="227"/>
      <point x="87" y="227" type="curve" smooth="yes"/>
      <point x="1113" y="227" type="line" smooth="yes"/>
      <point x="1150" y="227"/>
      <point x="1180" y="257"/>
    </contour>
    <contour>
      <point x="953" y="914" type="curve" smooth="yes"/>
      <point x="946" y="930"/>
      <point x="930" y="941"/>
      <point x="912" y="941" type="curve" smooth="yes"/>
      <point x="734" y="941" type="line"/>
      <point x="734" y="1253" type="line" smooth="yes"/>
      <point x="734" y="1278"/>
      <point x="714" y="1298"/>
      <point x="689" y="1298" type="curve" smooth="yes"/>
      <point x="511" y="1298" type="line" smooth="yes"/>
      <point x="486" y="1298"/>
      <point x="466" y="1278"/>
      <point x="466" y="1253" type="curve" smooth="yes"/>
      <point x="466" y="941" type="line"/>
      <point x="288" y="941" type="line" smooth="yes"/>
      <point x="270" y="941"/>
      <point x="254" y="930"/>
      <point x="247" y="914" type="curve" smooth="yes"/>
      <point x="240" y="897"/>
      <point x="243" y="877"/>
      <point x="256" y="865" type="curve" smooth="yes"/>
      <point x="569" y="553" type="line" smooth="yes"/>
      <point x="577" y="543"/>
      <point x="589" y="539"/>
      <point x="600" y="539" type="curve" smooth="yes"/>
      <point x="611" y="539"/>
      <point x="623" y="543"/>
      <point x="631" y="553" type="curve" smooth="yes"/>
      <point x="944" y="865" type="line" smooth="yes"/>
      <point x="957" y="877"/>
      <point x="960" y="897"/>
    </contour>
  </outline>
</glyph>
<glyph name="download" format="2">
  <advance width="1200"/>
  <unicode hex="F01A"/>
  <note>
download
</note>
  <outline>
    <contour>
      <point x="866" y="686" type="curve" smooth="yes"/>
      <point x="866" y="699"/>
      <point x="855" y="710"/>
      <point x="842" y="710" type="curve"/>
      <point x="842" y="710" type="line"/>
      <point x="697" y="710" type="line"/>
      <point x="697" y="976" type="line" smooth="yes"/>
      <point x="697" y="989"/>
      <point x="686" y="1000"/>
      <point x="673" y="1000" type="curve" smooth="yes"/>
      <point x="528" y="1000" type="line" smooth="yes"/>
      <point x="514" y="1000"/>
      <point x="503" y="989"/>
      <point x="503" y="976" type="curve" smooth="yes"/>
      <point x="503" y="710" type="line"/>
      <point x="358" y="710" type="line" smooth="yes"/>
      <point x="349" y="710"/>
      <point x="339" y="704"/>
      <point x="336" y="695" type="curve" smooth="yes"/>
      <point x="332" y="686"/>
      <point x="334" y="676"/>
      <point x="341" y="668" type="curve" smooth="yes"/>
      <point x="583" y="427" type="line" smooth="yes"/>
      <point x="588" y="422"/>
      <point x="594" y="420"/>
      <point x="600" y="420" type="curve" smooth="yes"/>
      <point x="606" y="420"/>
      <point x="612" y="422"/>
      <point x="617" y="427" type="curve" smooth="yes"/>
      <point x="858" y="668" type="line" smooth="yes"/>
      <point x="863" y="673"/>
      <point x="866" y="679"/>
    </contour>
    <contour>
      <point x="600" y="1121" type="curve" smooth="yes"/>
      <point x="373" y="1121"/>
      <point x="189" y="937"/>
      <point x="189" y="710" type="curve" smooth="yes"/>
      <point x="189" y="483"/>
      <point x="373" y="299"/>
      <point x="600" y="299" type="curve" smooth="yes"/>
      <point x="827" y="299"/>
      <point x="1011" y="483"/>
      <point x="1011" y="710" type="curve" smooth="yes"/>
      <point x="1011" y="937"/>
      <point x="827" y="1121"/>
    </contour>
    <contour>
      <point x="1180" y="710" type="curve" smooth="yes"/>
      <point x="1180" y="1030"/>
      <point x="920" y="1290"/>
      <point x="600" y="1290" type="curve"/>
      <point x="600" y="1290" type="line"/>
      <point x="280" y="1290"/>
      <point x="20" y="1030"/>
      <point x="20" y="710" type="curve" smooth="yes"/>
      <point x="20" y="390"/>
      <point x="280" y="130"/>
      <point x="600" y="130" type="curve" smooth="yes"/>
      <point x="920" y="130"/>
      <point x="1180" y="390"/>
    </contour>
  </outline>
</glyph>
<glyph name="upload" format="2">
  <advance width="1200"/>
  <unicode hex="F01B"/>
  <note>
upload
</note>
  <outline>
    <contour>
      <point x="864" y="725" type="curve" smooth="yes"/>
      <point x="868" y="734"/>
      <point x="866" y="744"/>
      <point x="859" y="752" type="curve" smooth="yes"/>
      <point x="617" y="993" type="line" smooth="yes"/>
      <point x="612" y="998"/>
      <point x="606" y="1000"/>
      <point x="600" y="1000" type="curve" smooth="yes"/>
      <point x="594" y="1000"/>
      <point x="588" y="998"/>
      <point x="583" y="993" type="curve" smooth="yes"/>
      <point x="342" y="752" type="line" smooth="yes"/>
      <point x="337" y="747"/>
      <point x="334" y="741"/>
      <point x="334" y="734" type="curve" smooth="yes"/>
      <point x="334" y="721"/>
      <point x="345" y="710"/>
      <point x="358" y="710" type="curve"/>
      <point x="358" y="710" type="line"/>
      <point x="503" y="710" type="line"/>
      <point x="503" y="444" type="line" smooth="yes"/>
      <point x="503" y="431"/>
      <point x="514" y="420"/>
      <point x="528" y="420" type="curve" smooth="yes"/>
      <point x="673" y="420" type="line" smooth="yes"/>
      <point x="686" y="420"/>
      <point x="697" y="431"/>
      <point x="697" y="444" type="curve" smooth="yes"/>
      <point x="697" y="710" type="line"/>
      <point x="842" y="710" type="line" smooth="yes"/>
      <point x="851" y="710"/>
      <point x="861" y="716"/>
    </contour>
    <contour>
      <point x="600" y="1121" type="curve" smooth="yes"/>
      <point x="373" y="1121"/>
      <point x="189" y="937"/>
      <point x="189" y="710" type="curve" smooth="yes"/>
      <point x="189" y="483"/>
      <point x="373" y="299"/>
      <point x="600" y="299" type="curve" smooth="yes"/>
      <point x="827" y="299"/>
      <point x="1011" y="483"/>
      <point x="1011" y="710" type="curve" smooth="yes"/>
      <point x="1011" y="937"/>
      <point x="827" y="1121"/>
    </contour>
    <contour>
      <point x="1180" y="710" type="curve" smooth="yes"/>
      <point x="1180" y="1030"/>
      <point x="920" y="1290"/>
      <point x="600" y="1290" type="curve"/>
      <point x="600" y="1290" type="line"/>
      <point x="280" y="1290"/>
      <point x="20" y="1030"/>
      <point x="20" y="710" type="curve" smooth="yes"/>
      <point x="20" y="390"/>
      <point x="280" y="130"/>
      <point x="600" y="130" type="curve" smooth="yes"/>
      <point x="920" y="130"/>
      <point x="1180" y="390"/>
    </contour>
  </outline>
</glyph>
<glyph name="inbox" format="2">
  <advance width="1200"/>
  <unicode hex="F01C"/>
  <note>
inbox
</note>
  <outline>
    <contour>
      <point x="1031" y="662" type="curve"/>
      <point x="793" y="662" type="line"/>
      <point x="721" y="517" type="line"/>
      <point x="479" y="517" type="line"/>
      <point x="407" y="662" type="line"/>
      <point x="169" y="662" type="line"/>
      <point x="170" y="665"/>
      <point x="171" y="670"/>
      <point x="173" y="674" type="curve" smooth="yes"/>
      <point x="333" y="1048" type="line"/>
      <point x="867" y="1048" type="line"/>
      <point x="1027" y="674" type="line" smooth="yes"/>
      <point x="1029" y="670"/>
      <point x="1030" y="665"/>
    </contour>
    <contour>
      <point x="1180" y="275" type="curve" smooth="yes"/>
      <point x="1180" y="639" type="line" smooth="yes"/>
      <point x="1180" y="666"/>
      <point x="1172" y="706"/>
      <point x="1161" y="732" type="curve" smooth="yes"/>
      <point x="981" y="1149" type="line" smooth="yes"/>
      <point x="971" y="1174"/>
      <point x="941" y="1193"/>
      <point x="914" y="1193" type="curve" smooth="yes"/>
      <point x="286" y="1193" type="line" smooth="yes"/>
      <point x="259" y="1193"/>
      <point x="229" y="1174"/>
      <point x="219" y="1149" type="curve" smooth="yes"/>
      <point x="39" y="732" type="line" smooth="yes"/>
      <point x="28" y="706"/>
      <point x="20" y="666"/>
      <point x="20" y="639" type="curve" smooth="yes"/>
      <point x="20" y="275" type="line" smooth="yes"/>
      <point x="20" y="249"/>
      <point x="42" y="227"/>
      <point x="68" y="227" type="curve" smooth="yes"/>
      <point x="1132" y="227" type="line" smooth="yes"/>
      <point x="1158" y="227"/>
      <point x="1180" y="249"/>
    </contour>
  </outline>
</glyph>
<glyph name="play_circle" format="2">
  <advance width="1200"/>
  <unicode hex="F01D"/>
  <note>
play_circle
</note>
  <outline>
    <contour>
      <point x="914" y="710" type="curve" smooth="yes"/>
      <point x="914" y="727"/>
      <point x="905" y="743"/>
      <point x="890" y="752" type="curve" smooth="yes"/>
      <point x="479" y="993" type="line" smooth="yes"/>
      <point x="465" y="1002"/>
      <point x="446" y="1002"/>
      <point x="431" y="994" type="curve" smooth="yes"/>
      <point x="416" y="985"/>
      <point x="407" y="969"/>
      <point x="407" y="952" type="curve" smooth="yes"/>
      <point x="407" y="468" type="line" smooth="yes"/>
      <point x="407" y="451"/>
      <point x="416" y="435"/>
      <point x="431" y="426" type="curve" smooth="yes"/>
      <point x="438" y="422"/>
      <point x="447" y="420"/>
      <point x="455" y="420" type="curve" smooth="yes"/>
      <point x="463" y="420"/>
      <point x="472" y="422"/>
      <point x="479" y="427" type="curve" smooth="yes"/>
      <point x="890" y="668" type="line" smooth="yes"/>
      <point x="905" y="677"/>
      <point x="914" y="693"/>
    </contour>
    <contour>
      <point x="1011" y="710" type="curve" smooth="yes"/>
      <point x="1011" y="937"/>
      <point x="827" y="1121"/>
      <point x="600" y="1121" type="curve" smooth="yes"/>
      <point x="373" y="1121"/>
      <point x="189" y="937"/>
      <point x="189" y="710" type="curve" smooth="yes"/>
      <point x="189" y="483"/>
      <point x="373" y="299"/>
      <point x="600" y="299" type="curve" smooth="yes"/>
      <point x="827" y="299"/>
      <point x="1011" y="483"/>
    </contour>
    <contour>
      <point x="1180" y="710" type="curve" smooth="yes"/>
      <point x="1180" y="1030"/>
      <point x="920" y="1290"/>
      <point x="600" y="1290" type="curve" smooth="yes"/>
      <point x="280" y="1290"/>
      <point x="20" y="1030"/>
      <point x="20" y="710" type="curve" smooth="yes"/>
      <point x="20" y="390"/>
      <point x="280" y="130"/>
      <point x="600" y="130" type="curve" smooth="yes"/>
      <point x="920" y="130"/>
      <point x="1180" y="390"/>
    </contour>
  </outline>
</glyph>
<glyph name="repeat" format="2">
  <advance width="1200"/>
  <unicode hex="F01E"/>
  <note>
repeat
</note>
  <outline>
    <contour>
      <point x="1180" y="855" type="curve" smooth="yes"/>
      <point x="1180" y="1193" type="line" smooth="yes"/>
      <point x="1180" y="1213"/>
      <point x="1168" y="1230"/>
      <point x="1151" y="1238" type="curve" smooth="yes"/>
      <point x="1132" y="1245"/>
      <point x="1111" y="1242"/>
      <point x="1098" y="1227" type="curve" smooth="yes"/>
      <point x="1000" y="1130" type="line"/>
      <point x="893" y="1230"/>
      <point x="749" y="1290"/>
      <point x="600" y="1290" type="curve" smooth="yes"/>
      <point x="281" y="1290"/>
      <point x="20" y="1029"/>
      <point x="20" y="710" type="curve" smooth="yes"/>
      <point x="20" y="391"/>
      <point x="281" y="130"/>
      <point x="600" y="130" type="curve" smooth="yes"/>
      <point x="773" y="130"/>
      <point x="936" y="206"/>
      <point x="1046" y="339" type="curve" smooth="yes"/>
      <point x="1054" y="349"/>
      <point x="1054" y="363"/>
      <point x="1045" y="372" type="curve" smooth="yes"/>
      <point x="941" y="476" type="line" smooth="yes"/>
      <point x="936" y="480"/>
      <point x="929" y="483"/>
      <point x="922" y="483" type="curve" smooth="yes"/>
      <point x="916" y="482"/>
      <point x="909" y="479"/>
      <point x="905" y="474" type="curve" smooth="yes"/>
      <point x="831" y="378"/>
      <point x="720" y="323"/>
      <point x="600" y="323" type="curve" smooth="yes"/>
      <point x="387" y="323"/>
      <point x="213" y="497"/>
      <point x="213" y="710" type="curve" smooth="yes"/>
      <point x="213" y="923"/>
      <point x="387" y="1097"/>
      <point x="600" y="1097" type="curve" smooth="yes"/>
      <point x="699" y="1097"/>
      <point x="793" y="1059"/>
      <point x="864" y="993" type="curve"/>
      <point x="759" y="889" type="line" smooth="yes"/>
      <point x="745" y="875"/>
      <point x="741" y="854"/>
      <point x="749" y="837" type="curve" smooth="yes"/>
      <point x="756" y="819"/>
      <point x="774" y="807"/>
      <point x="793" y="807" type="curve" smooth="yes"/>
      <point x="1132" y="807" type="line" smooth="yes"/>
      <point x="1158" y="807"/>
      <point x="1180" y="829"/>
    </contour>
  </outline>
</glyph>
<glyph name="refresh" format="2">
  <advance width="1200"/>
  <unicode hex="F021"/>
  <note>
refresh
</note>
  <outline>
    <contour>
      <point x="1161" y="590" type="curve" smooth="yes"/>
      <point x="1161" y="602"/>
      <point x="1151" y="614"/>
      <point x="1137" y="614" type="curve" smooth="yes"/>
      <point x="992" y="614" type="line" smooth="yes"/>
      <point x="981" y="614"/>
      <point x="973" y="607"/>
      <point x="969" y="596" type="curve" smooth="yes"/>
      <point x="956" y="566"/>
      <point x="947" y="537"/>
      <point x="929" y="508" type="curve" smooth="yes"/>
      <point x="859" y="393"/>
      <point x="734" y="324"/>
      <point x="600" y="324" type="curve" smooth="yes"/>
      <point x="503" y="324"/>
      <point x="408" y="361"/>
      <point x="337" y="428" type="curve"/>
      <point x="441" y="531" type="line" smooth="yes"/>
      <point x="450" y="540"/>
      <point x="455" y="552"/>
      <point x="455" y="565" type="curve" smooth="yes"/>
      <point x="455" y="592"/>
      <point x="433" y="614"/>
      <point x="407" y="614" type="curve" smooth="yes"/>
      <point x="68" y="614" type="line" smooth="yes"/>
      <point x="42" y="614"/>
      <point x="20" y="592"/>
      <point x="20" y="565" type="curve" smooth="yes"/>
      <point x="20" y="227" type="line" smooth="yes"/>
      <point x="20" y="201"/>
      <point x="42" y="179"/>
      <point x="68" y="179" type="curve" smooth="yes"/>
      <point x="81" y="179"/>
      <point x="93" y="184"/>
      <point x="102" y="193" type="curve" smooth="yes"/>
      <point x="200" y="290" type="line"/>
      <point x="307" y="188"/>
      <point x="450" y="130"/>
      <point x="597" y="130" type="curve" smooth="yes"/>
      <point x="876" y="130"/>
      <point x="1096" y="317"/>
      <point x="1160" y="584" type="curve"/>
      <point x="1161" y="586"/>
      <point x="1161" y="588"/>
    </contour>
    <contour>
      <point x="1180" y="855" type="curve" smooth="yes"/>
      <point x="1180" y="1194" type="line" smooth="yes"/>
      <point x="1180" y="1220"/>
      <point x="1158" y="1242"/>
      <point x="1132" y="1242" type="curve" smooth="yes"/>
      <point x="1119" y="1242"/>
      <point x="1107" y="1237"/>
      <point x="1098" y="1228" type="curve" smooth="yes"/>
      <point x="1000" y="1130" type="line"/>
      <point x="892" y="1231"/>
      <point x="748" y="1290"/>
      <point x="600" y="1290" type="curve" smooth="yes"/>
      <point x="321" y="1290"/>
      <point x="99" y="1105"/>
      <point x="34" y="836" type="curve"/>
      <point x="34" y="835"/>
      <point x="34" y="833"/>
      <point x="34" y="831" type="curve" smooth="yes"/>
      <point x="34" y="818"/>
      <point x="44" y="807"/>
      <point x="58" y="807" type="curve" smooth="yes"/>
      <point x="208" y="807" type="line" smooth="yes"/>
      <point x="219" y="807"/>
      <point x="227" y="814"/>
      <point x="231" y="824" type="curve" smooth="yes"/>
      <point x="244" y="855"/>
      <point x="253" y="883"/>
      <point x="271" y="913" type="curve" smooth="yes"/>
      <point x="341" y="1028"/>
      <point x="466" y="1097"/>
      <point x="600" y="1097" type="curve" smooth="yes"/>
      <point x="697" y="1097"/>
      <point x="792" y="1060"/>
      <point x="864" y="994" type="curve"/>
      <point x="759" y="889" type="line" smooth="yes"/>
      <point x="750" y="880"/>
      <point x="745" y="868"/>
      <point x="745" y="855" type="curve" smooth="yes"/>
      <point x="745" y="829"/>
      <point x="767" y="807"/>
      <point x="793" y="807" type="curve" smooth="yes"/>
      <point x="1132" y="807" type="line" smooth="yes"/>
      <point x="1158" y="807"/>
      <point x="1180" y="829"/>
    </contour>
  </outline>
</glyph>
<glyph name="list_alt" format="2">
  <advance width="1200"/>
  <unicode hex="F022"/>
  <note>
list_alt
</note>
  <outline>
    <contour>
      <point x="269" y="413" type="curve" smooth="yes"/>
      <point x="269" y="455" type="line" smooth="yes"/>
      <point x="269" y="466"/>
      <point x="259" y="476"/>
      <point x="248" y="476" type="curve" smooth="yes"/>
      <point x="206" y="476" type="line" smooth="yes"/>
      <point x="195" y="476"/>
      <point x="186" y="466"/>
      <point x="186" y="455" type="curve" smooth="yes"/>
      <point x="186" y="413" type="line" smooth="yes"/>
      <point x="186" y="402"/>
      <point x="195" y="393"/>
      <point x="206" y="393" type="curve" smooth="yes"/>
      <point x="248" y="393" type="line" smooth="yes"/>
      <point x="259" y="393"/>
      <point x="269" y="402"/>
    </contour>
    <contour>
      <point x="269" y="579" type="curve" smooth="yes"/>
      <point x="269" y="621" type="line" smooth="yes"/>
      <point x="269" y="632"/>
      <point x="259" y="641"/>
      <point x="248" y="641" type="curve" smooth="yes"/>
      <point x="206" y="641" type="line" smooth="yes"/>
      <point x="195" y="641"/>
      <point x="186" y="632"/>
      <point x="186" y="621" type="curve" smooth="yes"/>
      <point x="186" y="579" type="line" smooth="yes"/>
      <point x="186" y="568"/>
      <point x="195" y="558"/>
      <point x="206" y="558" type="curve" smooth="yes"/>
      <point x="248" y="558" type="line" smooth="yes"/>
      <point x="259" y="558"/>
      <point x="269" y="568"/>
    </contour>
    <contour>
      <point x="269" y="745" type="curve" smooth="yes"/>
      <point x="269" y="786" type="line" smooth="yes"/>
      <point x="269" y="797"/>
      <point x="259" y="807"/>
      <point x="248" y="807" type="curve" smooth="yes"/>
      <point x="206" y="807" type="line" smooth="yes"/>
      <point x="195" y="807"/>
      <point x="186" y="797"/>
      <point x="186" y="786" type="curve" smooth="yes"/>
      <point x="186" y="745" type="line" smooth="yes"/>
      <point x="186" y="734"/>
      <point x="195" y="724"/>
      <point x="206" y="724" type="curve" smooth="yes"/>
      <point x="248" y="724" type="line" smooth="yes"/>
      <point x="259" y="724"/>
      <point x="269" y="734"/>
    </contour>
    <contour>
      <point x="1014" y="413" type="curve" smooth="yes"/>
      <point x="1014" y="455" type="line" smooth="yes"/>
      <point x="1014" y="466"/>
      <point x="1005" y="476"/>
      <point x="994" y="476" type="curve" smooth="yes"/>
      <point x="372" y="476" type="line" smooth="yes"/>
      <point x="361" y="476"/>
      <point x="351" y="466"/>
      <point x="351" y="455" type="curve" smooth="yes"/>
      <point x="351" y="413" type="line" smooth="yes"/>
      <point x="351" y="402"/>
      <point x="361" y="393"/>
      <point x="372" y="393" type="curve" smooth="yes"/>
      <point x="994" y="393" type="line" smooth="yes"/>
      <point x="1005" y="393"/>
      <point x="1014" y="402"/>
    </contour>
    <contour>
      <point x="1014" y="579" type="curve" smooth="yes"/>
      <point x="1014" y="621" type="line" smooth="yes"/>
      <point x="1014" y="632"/>
      <point x="1005" y="641"/>
      <point x="994" y="641" type="curve" smooth="yes"/>
      <point x="372" y="641" type="line" smooth="yes"/>
      <point x="361" y="641"/>
      <point x="351" y="632"/>
      <point x="351" y="621" type="curve" smooth="yes"/>
      <point x="351" y="579" type="line" smooth="yes"/>
      <point x="351" y="568"/>
      <point x="361" y="558"/>
      <point x="372" y="558" type="curve" smooth="yes"/>
      <point x="994" y="558" type="line" smooth="yes"/>
      <point x="1005" y="558"/>
      <point x="1014" y="568"/>
    </contour>
    <contour>
      <point x="1014" y="745" type="curve" smooth="yes"/>
      <point x="1014" y="786" type="line" smooth="yes"/>
      <point x="1014" y="797"/>
      <point x="1005" y="807"/>
      <point x="994" y="807" type="curve" smooth="yes"/>
      <point x="372" y="807" type="line" smooth="yes"/>
      <point x="361" y="807"/>
      <point x="351" y="797"/>
      <point x="351" y="786" type="curve" smooth="yes"/>
      <point x="351" y="745" type="line" smooth="yes"/>
      <point x="351" y="734"/>
      <point x="361" y="724"/>
      <point x="372" y="724" type="curve" smooth="yes"/>
      <point x="994" y="724" type="line" smooth="yes"/>
      <point x="1005" y="724"/>
      <point x="1014" y="734"/>
    </contour>
    <contour>
      <point x="1097" y="331" type="line" smooth="yes"/>
      <point x="1097" y="320"/>
      <point x="1087" y="310"/>
      <point x="1076" y="310" type="curve" smooth="yes"/>
      <point x="124" y="310" type="line" smooth="yes"/>
      <point x="113" y="310"/>
      <point x="103" y="320"/>
      <point x="103" y="331" type="curve" smooth="yes"/>
      <point x="103" y="869" type="line" smooth="yes"/>
      <point x="103" y="880"/>
      <point x="113" y="890"/>
      <point x="124" y="890" type="curve" smooth="yes"/>
      <point x="1076" y="890" type="line" smooth="yes"/>
      <point x="1087" y="890"/>
      <point x="1097" y="880"/>
      <point x="1097" y="869" type="curve" smooth="yes"/>
    </contour>
    <contour>
      <point x="1180" y="331" type="curve" smooth="yes"/>
      <point x="1180" y="1035" type="line" smooth="yes"/>
      <point x="1180" y="1092"/>
      <point x="1133" y="1138"/>
      <point x="1076" y="1138" type="curve" smooth="yes"/>
      <point x="124" y="1138" type="line" smooth="yes"/>
      <point x="67" y="1138"/>
      <point x="20" y="1092"/>
      <point x="20" y="1035" type="curve" smooth="yes"/>
      <point x="20" y="331" type="line" smooth="yes"/>
      <point x="20" y="274"/>
      <point x="67" y="227"/>
      <point x="124" y="227" type="curve" smooth="yes"/>
      <point x="1076" y="227" type="line" smooth="yes"/>
      <point x="1133" y="227"/>
      <point x="1180" y="274"/>
    </contour>
  </outline>
</glyph>
<glyph name="lock" format="2">
  <advance width="1200"/>
  <unicode hex="F023"/>
  <note>
lock
</note>
  <outline>
    <contour>
      <point x="858" y="1002" type="line"/>
      <point x="342" y="1002" type="line"/>
      <point x="342" y="1195" type="line" smooth="yes"/>
      <point x="342" y="1337"/>
      <point x="458" y="1453"/>
      <point x="600" y="1453" type="curve" smooth="yes"/>
      <point x="742" y="1453"/>
      <point x="858" y="1337"/>
      <point x="858" y="1195" type="curve" smooth="yes"/>
    </contour>
    <contour>
      <point x="1181" y="324" type="curve" smooth="yes"/>
      <point x="1181" y="905" type="line" smooth="yes"/>
      <point x="1181" y="958"/>
      <point x="1138" y="1002"/>
      <point x="1084" y="1002" type="curve" smooth="yes"/>
      <point x="1052" y="1002" type="line"/>
      <point x="1052" y="1195" type="line" smooth="yes"/>
      <point x="1052" y="1443"/>
      <point x="848" y="1647"/>
      <point x="600" y="1647" type="curve" smooth="yes"/>
      <point x="352" y="1647"/>
      <point x="148" y="1443"/>
      <point x="148" y="1195" type="curve" smooth="yes"/>
      <point x="148" y="1002" type="line"/>
      <point x="116" y="1002" type="line" smooth="yes"/>
      <point x="62" y="1002"/>
      <point x="19" y="958"/>
      <point x="19" y="905" type="curve" smooth="yes"/>
      <point x="19" y="324" type="line" smooth="yes"/>
      <point x="19" y="270"/>
      <point x="62" y="227"/>
      <point x="116" y="227" type="curve" smooth="yes"/>
      <point x="1084" y="227" type="line" smooth="yes"/>
      <point x="1138" y="227"/>
      <point x="1181" y="270"/>
    </contour>
  </outline>
</glyph>
<glyph name="flag" format="2">
  <advance width="1200"/>
  <unicode hex="F024"/>
  <note>
flag
</note>
  <outline>
    <contour>
      <point x="192" y="1086" type="curve" smooth="yes"/>
      <point x="192" y="1134"/>
      <point x="154" y="1172"/>
      <point x="106" y="1172" type="curve" smooth="yes"/>
      <point x="58" y="1172"/>
      <point x="20" y="1134"/>
      <point x="20" y="1086" type="curve" smooth="yes"/>
      <point x="20" y="1055"/>
      <point x="37" y="1028"/>
      <point x="63" y="1012" type="curve"/>
      <point x="63" y="163" type="line" smooth="yes"/>
      <point x="63" y="151"/>
      <point x="73" y="141"/>
      <point x="84" y="141" type="curve" smooth="yes"/>
      <point x="127" y="141" type="line" smooth="yes"/>
      <point x="139" y="141"/>
      <point x="149" y="151"/>
      <point x="149" y="163" type="curve" smooth="yes"/>
      <point x="149" y="1012" type="line"/>
      <point x="175" y="1028"/>
      <point x="192" y="1055"/>
    </contour>
    <contour>
      <point x="1180" y="531" type="curve" smooth="yes"/>
      <point x="1180" y="1043" type="line" smooth="yes"/>
      <point x="1180" y="1067"/>
      <point x="1161" y="1086"/>
      <point x="1137" y="1086" type="curve" smooth="yes"/>
      <point x="1108" y="1086"/>
      <point x="994" y="995"/>
      <point x="889" y="995" type="curve" smooth="yes"/>
      <point x="868" y="995"/>
      <point x="848" y="998"/>
      <point x="830" y="1008" type="curve" smooth="yes"/>
      <point x="736" y="1051"/>
      <point x="654" y="1086"/>
      <point x="548" y="1086" type="curve" smooth="yes"/>
      <point x="453" y="1086"/>
      <point x="350" y="1049"/>
      <point x="266" y="1006" type="curve" smooth="yes"/>
      <point x="248" y="997"/>
      <point x="229" y="988"/>
      <point x="213" y="977" type="curve" smooth="yes"/>
      <point x="200" y="967"/>
      <point x="192" y="956"/>
      <point x="192" y="940" type="curve" smooth="yes"/>
      <point x="192" y="442" type="line" smooth="yes"/>
      <point x="192" y="418"/>
      <point x="211" y="399"/>
      <point x="235" y="399" type="curve" smooth="yes"/>
      <point x="243" y="399"/>
      <point x="250" y="401"/>
      <point x="257" y="405" type="curve" smooth="yes"/>
      <point x="350" y="455"/>
      <point x="462" y="503"/>
      <point x="568" y="503" type="curve" smooth="yes"/>
      <point x="715" y="503"/>
      <point x="774" y="409"/>
      <point x="897" y="409" type="curve" smooth="yes"/>
      <point x="985" y="409"/>
      <point x="1069" y="446"/>
      <point x="1145" y="487" type="curve" smooth="yes"/>
      <point x="1165" y="497"/>
      <point x="1180" y="506"/>
    </contour>
  </outline>
</glyph>
<glyph name="headphones" format="2">
  <advance width="1200"/>
  <unicode hex="F025"/>
  <note>
headphones
</note>
  <outline>
    <contour>
      <point x="1180" y="680" type="curve" smooth="yes"/>
      <point x="1180" y="967"/>
      <point x="914" y="1209"/>
      <point x="600" y="1209" type="curve" smooth="yes"/>
      <point x="286" y="1209"/>
      <point x="20" y="967"/>
      <point x="20" y="680" type="curve" smooth="yes"/>
      <point x="20" y="604"/>
      <point x="34" y="530"/>
      <point x="62" y="461" type="curve" smooth="yes"/>
      <point x="76" y="427" type="line"/>
      <point x="205" y="404" type="line"/>
      <point x="225" y="328"/>
      <point x="294" y="272"/>
      <point x="377" y="272" type="curve"/>
      <point x="377" y="249" type="line" smooth="yes"/>
      <point x="377" y="237"/>
      <point x="387" y="227"/>
      <point x="399" y="227" type="curve" smooth="yes"/>
      <point x="444" y="227" type="line" smooth="yes"/>
      <point x="456" y="227"/>
      <point x="466" y="237"/>
      <point x="466" y="249" type="curve" smooth="yes"/>
      <point x="466" y="651" type="line" smooth="yes"/>
      <point x="466" y="663"/>
      <point x="456" y="673"/>
      <point x="444" y="673" type="curve" smooth="yes"/>
      <point x="399" y="673" type="line" smooth="yes"/>
      <point x="387" y="673"/>
      <point x="377" y="663"/>
      <point x="377" y="651" type="curve" smooth="yes"/>
      <point x="377" y="629" type="line"/>
      <point x="310" y="629"/>
      <point x="252" y="592"/>
      <point x="221" y="537" type="curve"/>
      <point x="174" y="546" type="line"/>
      <point x="161" y="589"/>
      <point x="154" y="633"/>
      <point x="154" y="680" type="curve" smooth="yes"/>
      <point x="154" y="891"/>
      <point x="362" y="1075"/>
      <point x="600" y="1075" type="curve" smooth="yes"/>
      <point x="838" y="1075"/>
      <point x="1046" y="891"/>
      <point x="1046" y="680" type="curve" smooth="yes"/>
      <point x="1046" y="633"/>
      <point x="1039" y="589"/>
      <point x="1026" y="546" type="curve"/>
      <point x="979" y="537" type="line"/>
      <point x="948" y="592"/>
      <point x="890" y="629"/>
      <point x="823" y="629" type="curve"/>
      <point x="823" y="651" type="line" smooth="yes"/>
      <point x="823" y="663"/>
      <point x="813" y="673"/>
      <point x="801" y="673" type="curve" smooth="yes"/>
      <point x="756" y="673" type="line" smooth="yes"/>
      <point x="744" y="673"/>
      <point x="734" y="663"/>
      <point x="734" y="651" type="curve" smooth="yes"/>
      <point x="734" y="249" type="line" smooth="yes"/>
      <point x="734" y="237"/>
      <point x="744" y="227"/>
      <point x="756" y="227" type="curve" smooth="yes"/>
      <point x="801" y="227" type="line" smooth="yes"/>
      <point x="813" y="227"/>
      <point x="823" y="237"/>
      <point x="823" y="249" type="curve" smooth="yes"/>
      <point x="823" y="272" type="line"/>
      <point x="906" y="272"/>
      <point x="975" y="328"/>
      <point x="995" y="404" type="curve"/>
      <point x="1124" y="427" type="line"/>
      <point x="1138" y="461" type="line" smooth="yes"/>
      <point x="1166" y="530"/>
      <point x="1180" y="604"/>
    </contour>
  </outline>
</glyph>
<glyph name="volume_off" format="2">
  <advance width="1200"/>
  <unicode hex="F026"/>
  <note>
volume_off
</note>
  <outline>
    <contour>
      <point x="868" y="294" type="curve" smooth="yes"/>
      <point x="868" y="1052" type="line" smooth="yes"/>
      <point x="868" y="1077"/>
      <point x="847" y="1097"/>
      <point x="823" y="1097" type="curve" smooth="yes"/>
      <point x="811" y="1097"/>
      <point x="800" y="1092"/>
      <point x="792" y="1084" type="curve" smooth="yes"/>
      <point x="560" y="852" type="line"/>
      <point x="377" y="852" type="line" smooth="yes"/>
      <point x="353" y="852"/>
      <point x="332" y="831"/>
      <point x="332" y="807" type="curve" smooth="yes"/>
      <point x="332" y="539" type="line" smooth="yes"/>
      <point x="332" y="515"/>
      <point x="353" y="495"/>
      <point x="377" y="495" type="curve" smooth="yes"/>
      <point x="560" y="495" type="line"/>
      <point x="792" y="263" type="line" smooth="yes"/>
      <point x="800" y="254"/>
      <point x="811" y="249"/>
      <point x="823" y="249" type="curve" smooth="yes"/>
      <point x="847" y="249"/>
      <point x="868" y="270"/>
    </contour>
  </outline>
</glyph>
<glyph name="volume_down" format="2">
  <advance width="1200"/>
  <unicode hex="F027"/>
  <note>
volume_down
</note>
  <outline>
    <contour>
      <point x="734" y="294" type="curve" smooth="yes"/>
      <point x="734" y="1052" type="line" smooth="yes"/>
      <point x="734" y="1077"/>
      <point x="714" y="1097"/>
      <point x="689" y="1097" type="curve" smooth="yes"/>
      <point x="677" y="1097"/>
      <point x="666" y="1092"/>
      <point x="658" y="1084" type="curve" smooth="yes"/>
      <point x="426" y="852" type="line"/>
      <point x="243" y="852" type="line" smooth="yes"/>
      <point x="219" y="852"/>
      <point x="198" y="831"/>
      <point x="198" y="807" type="curve" smooth="yes"/>
      <point x="198" y="539" type="line" smooth="yes"/>
      <point x="198" y="515"/>
      <point x="219" y="495"/>
      <point x="243" y="495" type="curve" smooth="yes"/>
      <point x="426" y="495" type="line"/>
      <point x="658" y="263" type="line" smooth="yes"/>
      <point x="666" y="254"/>
      <point x="677" y="249"/>
      <point x="689" y="249" type="curve" smooth="yes"/>
      <point x="714" y="249"/>
      <point x="734" y="270"/>
    </contour>
    <contour>
      <point x="1002" y="673" type="curve" smooth="yes"/>
      <point x="1002" y="743"/>
      <point x="959" y="811"/>
      <point x="893" y="837" type="curve" smooth="yes"/>
      <point x="888" y="840"/>
      <point x="882" y="840"/>
      <point x="876" y="840" type="curve" smooth="yes"/>
      <point x="852" y="840"/>
      <point x="831" y="821"/>
      <point x="831" y="796" type="curve" smooth="yes"/>
      <point x="831" y="743"/>
      <point x="912" y="758"/>
      <point x="912" y="673" type="curve" smooth="yes"/>
      <point x="912" y="589"/>
      <point x="831" y="603"/>
      <point x="831" y="550" type="curve" smooth="yes"/>
      <point x="831" y="525"/>
      <point x="852" y="506"/>
      <point x="876" y="506" type="curve" smooth="yes"/>
      <point x="882" y="506"/>
      <point x="888" y="507"/>
      <point x="893" y="509" type="curve" smooth="yes"/>
      <point x="959" y="536"/>
      <point x="1002" y="603"/>
    </contour>
  </outline>
</glyph>
<glyph name="volume_up" format="2">
  <advance width="1200"/>
  <unicode hex="F028"/>
  <note>
volume_up
</note>
  <outline>
    <contour>
      <point x="555" y="294" type="curve" smooth="yes"/>
      <point x="555" y="1052" type="line" smooth="yes"/>
      <point x="555" y="1077"/>
      <point x="535" y="1097"/>
      <point x="511" y="1097" type="curve" smooth="yes"/>
      <point x="499" y="1097"/>
      <point x="488" y="1092"/>
      <point x="479" y="1084" type="curve" smooth="yes"/>
      <point x="247" y="852" type="line"/>
      <point x="65" y="852" type="line" smooth="yes"/>
      <point x="40" y="852"/>
      <point x="20" y="831"/>
      <point x="20" y="807" type="curve" smooth="yes"/>
      <point x="20" y="539" type="line" smooth="yes"/>
      <point x="20" y="515"/>
      <point x="40" y="495"/>
      <point x="65" y="495" type="curve" smooth="yes"/>
      <point x="247" y="495" type="line"/>
      <point x="479" y="263" type="line" smooth="yes"/>
      <point x="488" y="254"/>
      <point x="499" y="249"/>
      <point x="511" y="249" type="curve" smooth="yes"/>
      <point x="535" y="249"/>
      <point x="555" y="270"/>
    </contour>
    <contour>
      <point x="823" y="673" type="curve" smooth="yes"/>
      <point x="823" y="743"/>
      <point x="781" y="811"/>
      <point x="715" y="837" type="curve" smooth="yes"/>
      <point x="709" y="840"/>
      <point x="703" y="840"/>
      <point x="698" y="840" type="curve" smooth="yes"/>
      <point x="673" y="840"/>
      <point x="653" y="821"/>
      <point x="653" y="796" type="curve" smooth="yes"/>
      <point x="653" y="743"/>
      <point x="734" y="758"/>
      <point x="734" y="673" type="curve" smooth="yes"/>
      <point x="734" y="589"/>
      <point x="653" y="603"/>
      <point x="653" y="550" type="curve" smooth="yes"/>
      <point x="653" y="525"/>
      <point x="673" y="506"/>
      <point x="698" y="506" type="curve" smooth="yes"/>
      <point x="703" y="506"/>
      <point x="709" y="507"/>
      <point x="715" y="509" type="curve" smooth="yes"/>
      <point x="781" y="536"/>
      <point x="823" y="603"/>
    </contour>
    <contour>
      <point x="1002" y="673" type="curve" smooth="yes"/>
      <point x="1002" y="815"/>
      <point x="916" y="946"/>
      <point x="785" y="1001" type="curve" smooth="yes"/>
      <point x="780" y="1004"/>
      <point x="774" y="1005"/>
      <point x="767" y="1005" type="curve" smooth="yes"/>
      <point x="743" y="1005"/>
      <point x="723" y="985"/>
      <point x="723" y="960" type="curve" smooth="yes"/>
      <point x="723" y="941"/>
      <point x="734" y="928"/>
      <point x="750" y="919" type="curve" smooth="yes"/>
      <point x="769" y="909"/>
      <point x="786" y="901"/>
      <point x="803" y="889" type="curve" smooth="yes"/>
      <point x="872" y="838"/>
      <point x="912" y="758"/>
      <point x="912" y="673" type="curve" smooth="yes"/>
      <point x="912" y="588"/>
      <point x="872" y="508"/>
      <point x="803" y="458" type="curve" smooth="yes"/>
      <point x="786" y="445"/>
      <point x="769" y="437"/>
      <point x="750" y="427" type="curve" smooth="yes"/>
      <point x="734" y="419"/>
      <point x="723" y="405"/>
      <point x="723" y="386" type="curve" smooth="yes"/>
      <point x="723" y="362"/>
      <point x="743" y="341"/>
      <point x="768" y="341" type="curve" smooth="yes"/>
      <point x="774" y="341"/>
      <point x="780" y="343"/>
      <point x="785" y="345" type="curve" smooth="yes"/>
      <point x="916" y="400"/>
      <point x="1002" y="532"/>
    </contour>
    <contour>
      <point x="1180" y="673" type="curve" smooth="yes"/>
      <point x="1180" y="887"/>
      <point x="1052" y="1081"/>
      <point x="856" y="1165" type="curve" smooth="yes"/>
      <point x="850" y="1167"/>
      <point x="844" y="1169"/>
      <point x="838" y="1169" type="curve" smooth="yes"/>
      <point x="813" y="1169"/>
      <point x="793" y="1149"/>
      <point x="793" y="1124" type="curve" smooth="yes"/>
      <point x="793" y="1104"/>
      <point x="804" y="1093"/>
      <point x="820" y="1083" type="curve" smooth="yes"/>
      <point x="830" y="1077"/>
      <point x="841" y="1074"/>
      <point x="852" y="1068" type="curve" smooth="yes"/>
      <point x="871" y="1058"/>
      <point x="891" y="1046"/>
      <point x="909" y="1033" type="curve" smooth="yes"/>
      <point x="1023" y="949"/>
      <point x="1091" y="815"/>
      <point x="1091" y="673" type="curve" smooth="yes"/>
      <point x="1091" y="531"/>
      <point x="1023" y="398"/>
      <point x="909" y="313" type="curve" smooth="yes"/>
      <point x="891" y="300"/>
      <point x="871" y="288"/>
      <point x="852" y="278" type="curve" smooth="yes"/>
      <point x="841" y="272"/>
      <point x="830" y="269"/>
      <point x="820" y="263" type="curve" smooth="yes"/>
      <point x="804" y="253"/>
      <point x="793" y="242"/>
      <point x="793" y="222" type="curve" smooth="yes"/>
      <point x="793" y="198"/>
      <point x="813" y="178"/>
      <point x="838" y="178" type="curve" smooth="yes"/>
      <point x="844" y="178"/>
      <point x="850" y="179"/>
      <point x="856" y="181" type="curve" smooth="yes"/>
      <point x="1052" y="265"/>
      <point x="1180" y="459"/>
    </contour>
  </outline>
</glyph>
<glyph name="qrcode" format="2">
  <advance width="1200"/>
  <unicode hex="F029"/>
  <note>
qrcode
</note>
  <outline>
    <contour>
      <point x="336" y="438" type="line"/>
      <point x="336" y="543" type="line"/>
      <point x="231" y="543" type="line"/>
      <point x="231" y="438" type="line"/>
    </contour>
    <contour>
      <point x="336" y="1071" type="line"/>
      <point x="336" y="1176" type="line"/>
      <point x="231" y="1176" type="line"/>
      <point x="231" y="1071" type="line"/>
    </contour>
    <contour>
      <point x="969" y="1071" type="line"/>
      <point x="969" y="1176" type="line"/>
      <point x="864" y="1176" type="line"/>
      <point x="864" y="1071" type="line"/>
    </contour>
    <contour>
      <point x="442" y="333" type="line"/>
      <point x="125" y="333" type="line"/>
      <point x="125" y="649" type="line"/>
      <point x="442" y="649" type="line"/>
    </contour>
    <contour>
      <point x="442" y="965" type="line"/>
      <point x="125" y="965" type="line"/>
      <point x="125" y="1282" type="line"/>
      <point x="442" y="1282" type="line"/>
    </contour>
    <contour>
      <point x="1075" y="965" type="line"/>
      <point x="758" y="965" type="line"/>
      <point x="758" y="1282" type="line"/>
      <point x="1075" y="1282" type="line"/>
    </contour>
    <contour>
      <point x="547" y="227" type="line"/>
      <point x="547" y="754" type="line"/>
      <point x="20" y="754" type="line"/>
      <point x="20" y="227" type="line"/>
    </contour>
    <contour>
      <point x="969" y="227" type="line"/>
      <point x="969" y="332" type="line"/>
      <point x="864" y="332" type="line"/>
      <point x="864" y="227" type="line"/>
    </contour>
    <contour>
      <point x="1180" y="227" type="line"/>
      <point x="1180" y="332" type="line"/>
      <point x="1075" y="332" type="line"/>
      <point x="1075" y="227" type="line"/>
    </contour>
    <contour>
      <point x="1180" y="438" type="line"/>
      <point x="1180" y="754" type="line"/>
      <point x="1075" y="754" type="line"/>
      <point x="1075" y="649" type="line"/>
      <point x="969" y="649" type="line"/>
      <point x="969" y="754" type="line"/>
      <point x="653" y="754" type="line"/>
      <point x="653" y="227" type="line"/>
      <point x="758" y="227" type="line"/>
      <point x="758" y="543" type="line"/>
      <point x="864" y="543" type="line"/>
      <point x="864" y="438" type="line"/>
    </contour>
    <contour>
      <point x="547" y="860" type="line"/>
      <point x="547" y="1387" type="line"/>
      <point x="20" y="1387" type="line"/>
      <point x="20" y="860" type="line"/>
    </contour>
    <contour>
      <point x="1180" y="860" type="line"/>
      <point x="1180" y="1387" type="line"/>
      <point x="653" y="1387" type="line"/>
      <point x="653" y="860" type="line"/>
    </contour>
  </outline>
</glyph>
<glyph name="barcode" format="2">
  <advance width="1200"/>
  <unicode hex="F02A"/>
  <note>
barcode
</note>
  <outline>
    <contour>
      <point x="61" y="227" type="curve"/>
      <point x="61" y="532"/>
      <point x="61" y="835"/>
      <point x="61" y="1138" type="curve"/>
      <point x="47" y="1138"/>
      <point x="34" y="1138"/>
      <point x="20" y="1138" type="curve"/>
      <point x="20" y="835"/>
      <point x="20" y="531"/>
      <point x="20" y="227" type="curve"/>
      <point x="34" y="227"/>
      <point x="47" y="227"/>
    </contour>
    <contour>
      <point x="102" y="228" type="curve"/>
      <point x="102" y="532"/>
      <point x="102" y="835"/>
      <point x="102" y="1138" type="curve"/>
      <point x="94" y="1138"/>
      <point x="88" y="1138"/>
      <point x="81" y="1138" type="curve"/>
      <point x="81" y="835"/>
      <point x="81" y="531"/>
      <point x="81" y="228" type="curve"/>
      <point x="89" y="228"/>
      <point x="94" y="228"/>
    </contour>
    <contour>
      <point x="162" y="228" type="curve"/>
      <point x="162" y="532"/>
      <point x="162" y="835"/>
      <point x="162" y="1138" type="curve"/>
      <point x="156" y="1138"/>
      <point x="149" y="1138"/>
      <point x="142" y="1138" type="curve"/>
      <point x="142" y="835"/>
      <point x="142" y="531"/>
      <point x="142" y="228" type="curve"/>
      <point x="149" y="228"/>
      <point x="156" y="228"/>
    </contour>
    <contour>
      <point x="264" y="228" type="curve"/>
      <point x="264" y="532"/>
      <point x="264" y="835"/>
      <point x="264" y="1138" type="curve"/>
      <point x="258" y="1138"/>
      <point x="250" y="1138"/>
      <point x="244" y="1138" type="curve"/>
      <point x="244" y="835"/>
      <point x="244" y="531"/>
      <point x="244" y="228" type="curve"/>
      <point x="252" y="228"/>
      <point x="258" y="228"/>
    </contour>
    <contour>
      <point x="366" y="228" type="curve"/>
      <point x="366" y="532"/>
      <point x="366" y="835"/>
      <point x="366" y="1138" type="curve"/>
      <point x="353" y="1138"/>
      <point x="339" y="1138"/>
      <point x="326" y="1138" type="curve"/>
      <point x="326" y="835"/>
      <point x="326" y="531"/>
      <point x="326" y="228" type="curve"/>
      <point x="340" y="228"/>
      <point x="353" y="228"/>
    </contour>
    <contour>
      <point x="447" y="228" type="curve"/>
      <point x="447" y="532"/>
      <point x="447" y="835"/>
      <point x="447" y="1138" type="curve"/>
      <point x="441" y="1138"/>
      <point x="434" y="1138"/>
      <point x="427" y="1138" type="curve"/>
      <point x="427" y="835"/>
      <point x="427" y="531"/>
      <point x="427" y="228" type="curve"/>
      <point x="434" y="228"/>
      <point x="441" y="228"/>
    </contour>
    <contour>
      <point x="488" y="228" type="curve"/>
      <point x="488" y="532"/>
      <point x="488" y="835"/>
      <point x="488" y="1138" type="curve"/>
      <point x="482" y="1138"/>
      <point x="474" y="1138"/>
      <point x="468" y="1138" type="curve"/>
      <point x="468" y="835"/>
      <point x="468" y="531"/>
      <point x="468" y="228" type="curve"/>
      <point x="475" y="228"/>
      <point x="482" y="228"/>
    </contour>
    <contour>
      <point x="529" y="228" type="curve"/>
      <point x="529" y="532"/>
      <point x="529" y="835"/>
      <point x="529" y="1138" type="curve"/>
      <point x="522" y="1138"/>
      <point x="515" y="1138"/>
      <point x="509" y="1138" type="curve"/>
      <point x="509" y="835"/>
      <point x="509" y="531"/>
      <point x="509" y="228" type="curve"/>
      <point x="516" y="228"/>
      <point x="522" y="228"/>
    </contour>
    <contour>
      <point x="630" y="228" type="curve"/>
      <point x="630" y="532"/>
      <point x="630" y="835"/>
      <point x="630" y="1138" type="curve"/>
      <point x="617" y="1138"/>
      <point x="603" y="1138"/>
      <point x="590" y="1138" type="curve"/>
      <point x="590" y="835"/>
      <point x="590" y="531"/>
      <point x="590" y="228" type="curve"/>
      <point x="605" y="228"/>
      <point x="617" y="228"/>
    </contour>
    <contour>
      <point x="732" y="228" type="curve"/>
      <point x="732" y="532"/>
      <point x="732" y="835"/>
      <point x="732" y="1138" type="curve"/>
      <point x="718" y="1138"/>
      <point x="705" y="1138"/>
      <point x="691" y="1138" type="curve"/>
      <point x="691" y="835"/>
      <point x="691" y="531"/>
      <point x="691" y="228" type="curve"/>
      <point x="706" y="228"/>
      <point x="719" y="228"/>
    </contour>
    <contour>
      <point x="814" y="228" type="curve"/>
      <point x="814" y="532"/>
      <point x="814" y="835"/>
      <point x="814" y="1138" type="curve"/>
      <point x="800" y="1138"/>
      <point x="786" y="1138"/>
      <point x="773" y="1138" type="curve"/>
      <point x="773" y="835"/>
      <point x="773" y="531"/>
      <point x="773" y="228" type="curve"/>
      <point x="787" y="228"/>
      <point x="800" y="228"/>
    </contour>
    <contour>
      <point x="895" y="228" type="curve"/>
      <point x="895" y="532"/>
      <point x="895" y="835"/>
      <point x="895" y="1138" type="curve"/>
      <point x="882" y="1138"/>
      <point x="868" y="1138"/>
      <point x="854" y="1138" type="curve"/>
      <point x="854" y="835"/>
      <point x="854" y="531"/>
      <point x="854" y="228" type="curve"/>
      <point x="869" y="228"/>
      <point x="882" y="228"/>
    </contour>
    <contour>
      <point x="956" y="228" type="curve"/>
      <point x="956" y="532"/>
      <point x="956" y="835"/>
      <point x="956" y="1138" type="curve"/>
      <point x="942" y="1138"/>
      <point x="929" y="1138"/>
      <point x="915" y="1138" type="curve"/>
      <point x="915" y="835"/>
      <point x="915" y="531"/>
      <point x="915" y="228" type="curve"/>
      <point x="930" y="228"/>
      <point x="942" y="228"/>
    </contour>
    <contour>
      <point x="1078" y="228" type="curve"/>
      <point x="1078" y="532"/>
      <point x="1078" y="835"/>
      <point x="1078" y="1138" type="curve"/>
      <point x="1058" y="1138"/>
      <point x="1038" y="1138"/>
      <point x="1018" y="1138" type="curve"/>
      <point x="1018" y="835"/>
      <point x="1018" y="531"/>
      <point x="1018" y="228" type="curve"/>
      <point x="1038" y="228"/>
      <point x="1058" y="228"/>
    </contour>
    <contour>
      <point x="1119" y="228" type="curve"/>
      <point x="1119" y="532"/>
      <point x="1119" y="835"/>
      <point x="1119" y="1138" type="curve"/>
      <point x="1112" y="1138"/>
      <point x="1106" y="1138"/>
      <point x="1098" y="1138" type="curve"/>
      <point x="1098" y="835"/>
      <point x="1098" y="531"/>
      <point x="1098" y="228" type="curve"/>
      <point x="1106" y="228"/>
      <point x="1112" y="228"/>
    </contour>
    <contour>
      <point x="1180" y="227" type="curve"/>
      <point x="1180" y="531"/>
      <point x="1180" y="835"/>
      <point x="1180" y="1138" type="curve"/>
      <point x="1166" y="1138"/>
      <point x="1153" y="1138"/>
      <point x="1139" y="1138" type="curve"/>
      <point x="1139" y="835"/>
      <point x="1139" y="531"/>
      <point x="1139" y="227" type="curve"/>
      <point x="1154" y="227"/>
      <point x="1167" y="227"/>
    </contour>
  </outline>
</glyph>
<glyph name="tag" format="2">
  <advance width="1200"/>
  <unicode hex="F02B"/>
  <note>
tag
</note>
  <outline>
    <contour>
      <point x="411" y="892" type="curve" smooth="yes"/>
      <point x="411" y="848"/>
      <point x="376" y="813"/>
      <point x="333" y="813" type="curve" smooth="yes"/>
      <point x="289" y="813"/>
      <point x="255" y="848"/>
      <point x="255" y="892" type="curve" smooth="yes"/>
      <point x="255" y="935"/>
      <point x="289" y="970"/>
      <point x="333" y="970" type="curve" smooth="yes"/>
      <point x="376" y="970"/>
      <point x="411" y="935"/>
    </contour>
    <contour>
      <point x="1063" y="540" type="curve" smooth="yes"/>
      <point x="1063" y="561"/>
      <point x="1054" y="581"/>
      <point x="1040" y="595" type="curve" smooth="yes"/>
      <point x="603" y="1031" type="line" smooth="yes"/>
      <point x="572" y="1063"/>
      <point x="513" y="1087"/>
      <point x="470" y="1087" type="curve" smooth="yes"/>
      <point x="215" y="1087" type="line" smooth="yes"/>
      <point x="173" y="1087"/>
      <point x="137" y="1052"/>
      <point x="137" y="1009" type="curve" smooth="yes"/>
      <point x="137" y="755" type="line" smooth="yes"/>
      <point x="137" y="711"/>
      <point x="162" y="652"/>
      <point x="193" y="622" type="curve" smooth="yes"/>
      <point x="630" y="184" type="line" smooth="yes"/>
      <point x="644" y="170"/>
      <point x="664" y="162"/>
      <point x="685" y="162" type="curve" smooth="yes"/>
      <point x="705" y="162"/>
      <point x="726" y="170"/>
      <point x="740" y="184" type="curve" smooth="yes"/>
      <point x="1040" y="485" type="line" smooth="yes"/>
      <point x="1054" y="499"/>
      <point x="1063" y="519"/>
    </contour>
  </outline>
</glyph>
<glyph name="tags" format="2">
  <advance width="1200"/>
  <unicode hex="F02C"/>
  <note>
tags
</note>
  <outline>
    <contour>
      <point x="294" y="892" type="curve" smooth="yes"/>
      <point x="294" y="848"/>
      <point x="259" y="813"/>
      <point x="215" y="813" type="curve" smooth="yes"/>
      <point x="172" y="813"/>
      <point x="137" y="848"/>
      <point x="137" y="892" type="curve" smooth="yes"/>
      <point x="137" y="935"/>
      <point x="172" y="970"/>
      <point x="215" y="970" type="curve" smooth="yes"/>
      <point x="259" y="970"/>
      <point x="294" y="935"/>
    </contour>
    <contour>
      <point x="945" y="540" type="curve" smooth="yes"/>
      <point x="945" y="561"/>
      <point x="937" y="581"/>
      <point x="923" y="595" type="curve" smooth="yes"/>
      <point x="486" y="1031" type="line" smooth="yes"/>
      <point x="455" y="1063"/>
      <point x="396" y="1087"/>
      <point x="352" y="1087" type="curve" smooth="yes"/>
      <point x="98" y="1087" type="line" smooth="yes"/>
      <point x="55" y="1087"/>
      <point x="20" y="1052"/>
      <point x="20" y="1009" type="curve" smooth="yes"/>
      <point x="20" y="755" type="line" smooth="yes"/>
      <point x="20" y="711"/>
      <point x="44" y="652"/>
      <point x="76" y="622" type="curve" smooth="yes"/>
      <point x="512" y="184" type="line" smooth="yes"/>
      <point x="526" y="170"/>
      <point x="547" y="162"/>
      <point x="567" y="162" type="curve" smooth="yes"/>
      <point x="588" y="162"/>
      <point x="608" y="170"/>
      <point x="623" y="184" type="curve" smooth="yes"/>
      <point x="923" y="485" type="line" smooth="yes"/>
      <point x="937" y="499"/>
      <point x="945" y="519"/>
    </contour>
    <contour>
      <point x="1180" y="540" type="curve" smooth="yes"/>
      <point x="1180" y="561"/>
      <point x="1171" y="581"/>
      <point x="1157" y="595" type="curve" smooth="yes"/>
      <point x="721" y="1031" type="line" smooth="yes"/>
      <point x="689" y="1063"/>
      <point x="630" y="1087"/>
      <point x="587" y="1087" type="curve" smooth="yes"/>
      <point x="450" y="1087" type="line" smooth="yes"/>
      <point x="493" y="1087"/>
      <point x="553" y="1063"/>
      <point x="584" y="1031" type="curve" smooth="yes"/>
      <point x="1021" y="595" type="line" smooth="yes"/>
      <point x="1035" y="581"/>
      <point x="1043" y="561"/>
      <point x="1043" y="540" type="curve" smooth="yes"/>
      <point x="1043" y="519"/>
      <point x="1035" y="499"/>
      <point x="1021" y="485" type="curve" smooth="yes"/>
      <point x="733" y="198" type="line"/>
      <point x="754" y="176"/>
      <point x="770" y="162"/>
      <point x="802" y="162" type="curve" smooth="yes"/>
      <point x="823" y="162"/>
      <point x="843" y="170"/>
      <point x="857" y="184" type="curve" smooth="yes"/>
      <point x="1157" y="485" type="line" smooth="yes"/>
      <point x="1171" y="499"/>
      <point x="1180" y="519"/>
    </contour>
  </outline>
</glyph>
<glyph name="book" format="2">
  <advance width="1200"/>
  <unicode hex="F02D"/>
  <note>
book
</note>
  <outline>
    <contour>
      <point x="1162" y="964" type="curve" smooth="yes"/>
      <point x="1152" y="978"/>
      <point x="1137" y="988"/>
      <point x="1121" y="994" type="curve"/>
      <point x="1122" y="982"/>
      <point x="1122" y="968"/>
      <point x="1118" y="955" type="curve" smooth="yes"/>
      <point x="909" y="267" type="line" smooth="yes"/>
      <point x="901" y="242"/>
      <point x="871" y="227"/>
      <point x="845" y="227" type="curve" smooth="yes"/>
      <point x="202" y="227" type="line" smooth="yes"/>
      <point x="164" y="227"/>
      <point x="116" y="235"/>
      <point x="102" y="276" type="curve" smooth="yes"/>
      <point x="96" y="291"/>
      <point x="97" y="297"/>
      <point x="102" y="306" type="curve" smooth="yes"/>
      <point x="109" y="314"/>
      <point x="120" y="316"/>
      <point x="129" y="316" type="curve" smooth="yes"/>
      <point x="735" y="316" type="line" smooth="yes"/>
      <point x="823" y="316"/>
      <point x="841" y="340"/>
      <point x="874" y="447" type="curve" smooth="yes"/>
      <point x="1065" y="1079" type="line" smooth="yes"/>
      <point x="1075" y="1111"/>
      <point x="1070" y="1144"/>
      <point x="1052" y="1169" type="curve" smooth="yes"/>
      <point x="1035" y="1194"/>
      <point x="1006" y="1208"/>
      <point x="973" y="1208" type="curve" smooth="yes"/>
      <point x="443" y="1208" type="line" smooth="yes"/>
      <point x="431" y="1208"/>
      <point x="419" y="1205"/>
      <point x="407" y="1202" type="curve"/>
      <point x="408" y="1204" type="line"/>
      <point x="319" y="1229"/>
      <point x="314" y="1134"/>
      <point x="284" y="1091" type="curve" smooth="yes"/>
      <point x="273" y="1074"/>
      <point x="256" y="1061"/>
      <point x="254" y="1047" type="curve" smooth="yes"/>
      <point x="252" y="1035"/>
      <point x="259" y="1023"/>
      <point x="257" y="1011" type="curve" smooth="yes"/>
      <point x="253" y="974"/>
      <point x="225" y="908"/>
      <point x="208" y="885" type="curve" smooth="yes"/>
      <point x="198" y="871"/>
      <point x="183" y="864"/>
      <point x="178" y="848" type="curve" smooth="yes"/>
      <point x="174" y="837"/>
      <point x="180" y="821"/>
      <point x="179" y="806" type="curve" smooth="yes"/>
      <point x="176" y="773"/>
      <point x="151" y="711"/>
      <point x="132" y="679" type="curve" smooth="yes"/>
      <point x="125" y="667"/>
      <point x="112" y="657"/>
      <point x="109" y="644" type="curve" smooth="yes"/>
      <point x="105" y="632"/>
      <point x="112" y="617"/>
      <point x="109" y="603" type="curve" smooth="yes"/>
      <point x="101" y="567"/>
      <point x="77" y="511"/>
      <point x="56" y="476" type="curve" smooth="yes"/>
      <point x="45" y="457"/>
      <point x="31" y="445"/>
      <point x="28" y="428" type="curve" smooth="yes"/>
      <point x="26" y="420"/>
      <point x="33" y="411"/>
      <point x="32" y="400" type="curve" smooth="yes"/>
      <point x="31" y="383"/>
      <point x="29" y="369"/>
      <point x="27" y="355" type="curve"/>
      <point x="17" y="329"/>
      <point x="17" y="298"/>
      <point x="29" y="267" type="curve" smooth="yes"/>
      <point x="54" y="194"/>
      <point x="130" y="138"/>
      <point x="201" y="138" type="curve" smooth="yes"/>
      <point x="845" y="138" type="line" smooth="yes"/>
      <point x="905" y="138"/>
      <point x="966" y="184"/>
      <point x="983" y="243" type="curve" smooth="yes"/>
      <point x="1175" y="874" type="line" smooth="yes"/>
      <point x="1185" y="907"/>
      <point x="1180" y="939"/>
    </contour>
    <contour>
      <point x="421" y="963" type="curve" smooth="yes"/>
      <point x="436" y="1008" type="line" smooth="yes"/>
      <point x="440" y="1020"/>
      <point x="453" y="1030"/>
      <point x="465" y="1030" type="curve" smooth="yes"/>
      <point x="889" y="1030" type="line" smooth="yes"/>
      <point x="901" y="1030"/>
      <point x="908" y="1020"/>
      <point x="904" y="1008" type="curve" smooth="yes"/>
      <point x="889" y="963" type="line" smooth="yes"/>
      <point x="885" y="950"/>
      <point x="872" y="941"/>
      <point x="860" y="941" type="curve" smooth="yes"/>
      <point x="436" y="941" type="line" smooth="yes"/>
      <point x="424" y="941"/>
      <point x="417" y="950"/>
    </contour>
    <contour>
      <point x="363" y="785" type="curve" smooth="yes"/>
      <point x="378" y="829" type="line" smooth="yes"/>
      <point x="382" y="842"/>
      <point x="395" y="851"/>
      <point x="407" y="851" type="curve" smooth="yes"/>
      <point x="831" y="851" type="line" smooth="yes"/>
      <point x="843" y="851"/>
      <point x="850" y="842"/>
      <point x="846" y="829" type="curve" smooth="yes"/>
      <point x="831" y="785" type="line" smooth="yes"/>
      <point x="827" y="772"/>
      <point x="814" y="762"/>
      <point x="802" y="762" type="curve" smooth="yes"/>
      <point x="378" y="762" type="line" smooth="yes"/>
      <point x="366" y="762"/>
      <point x="359" y="772"/>
    </contour>
  </outline>
</glyph>
<glyph name="bookmark" format="2">
  <advance width="1200"/>
  <unicode hex="F02E"/>
  <note>
bookmark
</note>
  <outline>
    <contour>
      <point x="1075" y="1503" type="curve" smooth="yes"/>
      <point x="1047" y="1503"/>
      <point x="153" y="1503"/>
      <point x="125" y="1503" type="curve" smooth="yes"/>
      <point x="112" y="1503"/>
      <point x="98" y="1500"/>
      <point x="85" y="1495" type="curve" smooth="yes"/>
      <point x="45" y="1479"/>
      <point x="20" y="1442"/>
      <point x="20" y="1402" type="curve" smooth="yes"/>
      <point x="20" y="233" type="line" smooth="yes"/>
      <point x="20" y="193"/>
      <point x="45" y="155"/>
      <point x="85" y="140" type="curve" smooth="yes"/>
      <point x="98" y="135"/>
      <point x="112" y="132"/>
      <point x="125" y="132" type="curve" smooth="yes"/>
      <point x="153" y="132"/>
      <point x="180" y="143"/>
      <point x="200" y="162" type="curve" smooth="yes"/>
      <point x="600" y="546" type="line"/>
      <point x="1000" y="162" type="line" smooth="yes"/>
      <point x="1021" y="143"/>
      <point x="1047" y="133"/>
      <point x="1075" y="133" type="curve" smooth="yes"/>
      <point x="1088" y="133"/>
      <point x="1102" y="135"/>
      <point x="1115" y="140" type="curve" smooth="yes"/>
      <point x="1155" y="155"/>
      <point x="1180" y="193"/>
      <point x="1180" y="233" type="curve" smooth="yes"/>
      <point x="1180" y="1402" type="line" smooth="yes"/>
      <point x="1180" y="1442"/>
      <point x="1155" y="1479"/>
      <point x="1115" y="1495" type="curve" smooth="yes"/>
      <point x="1102" y="1500"/>
      <point x="1088" y="1503"/>
    </contour>
  </outline>
</glyph>
<glyph name="print" format="2">
  <advance width="1200"/>
  <unicode hex="F02F"/>
  <note>
print
</note>
  <outline>
    <contour>
      <point x="912" y="227" type="line"/>
      <point x="288" y="227" type="line"/>
      <point x="288" y="405" type="line"/>
      <point x="912" y="405" type="line"/>
    </contour>
    <contour>
      <point x="912" y="673" type="line"/>
      <point x="288" y="673" type="line"/>
      <point x="288" y="1119" type="line"/>
      <point x="734" y="1119" type="line"/>
      <point x="734" y="1008" type="line" smooth="yes"/>
      <point x="734" y="971"/>
      <point x="764" y="941"/>
      <point x="801" y="941" type="curve" smooth="yes"/>
      <point x="912" y="941" type="line"/>
    </contour>
    <contour>
      <point x="1091" y="629" type="curve" smooth="yes"/>
      <point x="1091" y="604"/>
      <point x="1071" y="584"/>
      <point x="1046" y="584" type="curve" smooth="yes"/>
      <point x="1022" y="584"/>
      <point x="1002" y="604"/>
      <point x="1002" y="629" type="curve" smooth="yes"/>
      <point x="1002" y="653"/>
      <point x="1022" y="673"/>
      <point x="1046" y="673" type="curve" smooth="yes"/>
      <point x="1071" y="673"/>
      <point x="1091" y="653"/>
    </contour>
    <contour>
      <point x="1180" y="339" type="curve" smooth="yes"/>
      <point x="1180" y="629" type="line" smooth="yes"/>
      <point x="1180" y="702"/>
      <point x="1119" y="762"/>
      <point x="1046" y="762" type="curve" smooth="yes"/>
      <point x="1002" y="762" type="line"/>
      <point x="1002" y="941" type="line" smooth="yes"/>
      <point x="1002" y="978"/>
      <point x="981" y="1029"/>
      <point x="954" y="1055" type="curve" smooth="yes"/>
      <point x="848" y="1161" type="line" smooth="yes"/>
      <point x="822" y="1188"/>
      <point x="771" y="1209"/>
      <point x="734" y="1209" type="curve" smooth="yes"/>
      <point x="265" y="1209" type="line" smooth="yes"/>
      <point x="228" y="1209"/>
      <point x="198" y="1179"/>
      <point x="198" y="1142" type="curve" smooth="yes"/>
      <point x="198" y="762" type="line"/>
      <point x="154" y="762" type="line" smooth="yes"/>
      <point x="81" y="762"/>
      <point x="20" y="702"/>
      <point x="20" y="629" type="curve" smooth="yes"/>
      <point x="20" y="339" type="line" smooth="yes"/>
      <point x="20" y="327"/>
      <point x="30" y="316"/>
      <point x="42" y="316" type="curve" smooth="yes"/>
      <point x="198" y="316" type="line"/>
      <point x="198" y="205" type="line" smooth="yes"/>
      <point x="198" y="168"/>
      <point x="228" y="138"/>
      <point x="265" y="138" type="curve" smooth="yes"/>
      <point x="935" y="138" type="line" smooth="yes"/>
      <point x="972" y="138"/>
      <point x="1002" y="168"/>
      <point x="1002" y="205" type="curve" smooth="yes"/>
      <point x="1002" y="316" type="line"/>
      <point x="1158" y="316" type="line" smooth="yes"/>
      <point x="1170" y="316"/>
      <point x="1180" y="327"/>
    </contour>
  </outline>
</glyph>
<glyph name="camera" format="2">
  <advance width="1200"/>
  <unicode hex="F030"/>
  <note>
camera
</note>
  <outline>
    <contour>
      <point x="600" y="749" type="curve" smooth="yes"/>
      <point x="504" y="749"/>
      <point x="426" y="671"/>
      <point x="426" y="575" type="curve" smooth="yes"/>
      <point x="426" y="479"/>
      <point x="504" y="401"/>
      <point x="600" y="401" type="curve" smooth="yes"/>
      <point x="696" y="401"/>
      <point x="774" y="479"/>
      <point x="774" y="575" type="curve" smooth="yes"/>
      <point x="774" y="671"/>
      <point x="696" y="749"/>
    </contour>
    <contour>
      <point x="1025" y="1000" type="curve" smooth="yes"/>
      <point x="890" y="1000" type="line"/>
      <point x="859" y="1083" type="line" smooth="yes"/>
      <point x="844" y="1122"/>
      <point x="797" y="1155"/>
      <point x="755" y="1155" type="curve" smooth="yes"/>
      <point x="445" y="1155" type="line" smooth="yes"/>
      <point x="403" y="1155"/>
      <point x="356" y="1122"/>
      <point x="341" y="1083" type="curve" smooth="yes"/>
      <point x="310" y="1000" type="line"/>
      <point x="175" y="1000" type="line" smooth="yes"/>
      <point x="89" y="1000"/>
      <point x="20" y="931"/>
      <point x="20" y="846" type="curve" smooth="yes"/>
      <point x="20" y="304" type="line" smooth="yes"/>
      <point x="20" y="219"/>
      <point x="89" y="150"/>
      <point x="175" y="150" type="curve" smooth="yes"/>
      <point x="1025" y="150" type="line" smooth="yes"/>
      <point x="1111" y="150"/>
      <point x="1180" y="219"/>
      <point x="1180" y="304" type="curve" smooth="yes"/>
      <point x="1180" y="846" type="line" smooth="yes"/>
      <point x="1180" y="931"/>
      <point x="1111" y="1000"/>
    </contour>
    <contour>
      <point x="600" y="304" type="curve" smooth="yes"/>
      <point x="451" y="304"/>
      <point x="329" y="426"/>
      <point x="329" y="575" type="curve" smooth="yes"/>
      <point x="329" y="724"/>
      <point x="451" y="846"/>
      <point x="600" y="846" type="curve" smooth="yes"/>
      <point x="749" y="846"/>
      <point x="871" y="724"/>
      <point x="871" y="575" type="curve" smooth="yes"/>
      <point x="871" y="426"/>
      <point x="749" y="304"/>
    </contour>
  </outline>
</glyph>
<glyph name="font" format="2">
  <advance width="1200"/>
  <unicode hex="F031"/>
  <note>
font
</note>
  <outline>
    <contour>
      <point x="420" y="569" type="curve"/>
      <point x="531" y="861" type="line"/>
      <point x="577" y="767"/>
      <point x="616" y="666"/>
      <point x="650" y="567" type="curve"/>
      <point x="638" y="567"/>
      <point x="625" y="566"/>
      <point x="613" y="566" type="curve" smooth="yes"/>
      <point x="549" y="566"/>
      <point x="485" y="568"/>
    </contour>
    <contour>
      <point x="60" y="144" type="line"/>
      <point x="101" y="144"/>
      <point x="142" y="146"/>
      <point x="182" y="153" type="curve" smooth="yes"/>
      <point x="191" y="154"/>
      <point x="204" y="158"/>
      <point x="213" y="158" type="curve" smooth="yes"/>
      <point x="289" y="158"/>
      <point x="365" y="145"/>
      <point x="440" y="145" type="curve"/>
      <point x="440" y="151"/>
      <point x="441" y="157"/>
      <point x="441" y="163" type="curve" smooth="yes"/>
      <point x="441" y="176"/>
      <point x="441" y="188"/>
      <point x="440" y="200" type="curve"/>
      <point x="404" y="206"/>
      <point x="308" y="208"/>
      <point x="308" y="257" type="curve" smooth="yes"/>
      <point x="308" y="282"/>
      <point x="374" y="452"/>
      <point x="391" y="490" type="curve"/>
      <point x="682" y="488" type="line"/>
      <point x="693" y="462"/>
      <point x="776" y="269"/>
      <point x="776" y="246" type="curve" smooth="yes"/>
      <point x="776" y="222"/>
      <point x="742" y="217"/>
      <point x="725" y="213" type="curve" smooth="yes"/>
      <point x="640" y="195" type="line"/>
      <point x="638" y="178"/>
      <point x="637" y="162"/>
      <point x="637" y="145" type="curve"/>
      <point x="722" y="147"/>
      <point x="807" y="154"/>
      <point x="892" y="154" type="curve" smooth="yes"/>
      <point x="974" y="154"/>
      <point x="1057" y="144"/>
      <point x="1139" y="144" type="curve"/>
      <point x="1139" y="150"/>
      <point x="1140" y="155"/>
      <point x="1140" y="161" type="curve" smooth="yes"/>
      <point x="1140" y="173"/>
      <point x="1138" y="185"/>
      <point x="1136" y="198" type="curve"/>
      <point x="1105" y="209"/>
      <point x="1046" y="213"/>
      <point x="1024" y="230" type="curve" smooth="yes"/>
      <point x="1015" y="237"/>
      <point x="1006" y="257"/>
      <point x="1001" y="267" type="curve" smooth="yes"/>
      <point x="969" y="333"/>
      <point x="946" y="403"/>
      <point x="917" y="470" type="curve" smooth="yes"/>
      <point x="868" y="584"/>
      <point x="823" y="700"/>
      <point x="774" y="815" type="curve" smooth="yes"/>
      <point x="642" y="1126" type="line" smooth="yes"/>
      <point x="640" y="1131"/>
      <point x="637" y="1136"/>
      <point x="634" y="1140" type="curve"/>
      <point x="600" y="1140" type="line"/>
      <point x="551" y="1140" type="line"/>
      <point x="370" y="671" type="line"/>
      <point x="216" y="271" type="line" smooth="yes"/>
      <point x="189" y="201"/>
      <point x="123" y="214"/>
      <point x="62" y="195" type="curve"/>
    </contour>
  </outline>
</glyph>
<glyph name="bold" format="2">
  <advance width="1200"/>
  <unicode hex="F032"/>
  <note>
bold
</note>
  <outline>
    <contour>
      <point x="503" y="237" type="curve"/>
      <point x="488" y="274"/>
      <point x="494" y="396"/>
      <point x="494" y="440" type="curve" smooth="yes"/>
      <point x="494" y="508"/>
      <point x="494" y="577"/>
      <point x="494" y="646" type="curve"/>
      <point x="512" y="652"/>
      <point x="540" y="652"/>
      <point x="560" y="652" type="curve" smooth="yes"/>
      <point x="664" y="652"/>
      <point x="751" y="647"/>
      <point x="811" y="550" type="curve" smooth="yes"/>
      <point x="833" y="516"/>
      <point x="838" y="473"/>
      <point x="838" y="433" type="curve" smooth="yes"/>
      <point x="838" y="275"/>
      <point x="742" y="216"/>
      <point x="594" y="216" type="curve" smooth="yes"/>
      <point x="563" y="216"/>
      <point x="532" y="224"/>
    </contour>
    <contour>
      <point x="494" y="721" type="curve"/>
      <point x="494" y="735"/>
      <point x="494" y="750"/>
      <point x="494" y="765" type="curve" smooth="yes"/>
      <point x="494" y="800"/>
      <point x="494" y="834"/>
      <point x="494" y="868" type="curve" smooth="yes"/>
      <point x="494" y="934"/>
      <point x="489" y="999"/>
      <point x="489" y="1065" type="curve"/>
      <point x="517" y="1069"/>
      <point x="545" y="1073"/>
      <point x="573" y="1073" type="curve" smooth="yes"/>
      <point x="682" y="1073"/>
      <point x="794" y="1030"/>
      <point x="794" y="903" type="curve" smooth="yes"/>
      <point x="794" y="754"/>
      <point x="699" y="716"/>
      <point x="565" y="716" type="curve" smooth="yes"/>
      <point x="542" y="716"/>
      <point x="518" y="717"/>
    </contour>
    <contour>
      <point x="143" y="144" type="line"/>
      <point x="259" y="149"/>
      <point x="376" y="159"/>
      <point x="492" y="159" type="curve" smooth="yes"/>
      <point x="549" y="159"/>
      <point x="606" y="155"/>
      <point x="664" y="155" type="curve" smooth="yes"/>
      <point x="854" y="155"/>
      <point x="1057" y="229"/>
      <point x="1057" y="452" type="curve" smooth="yes"/>
      <point x="1057" y="588"/>
      <point x="947" y="672"/>
      <point x="824" y="700" type="curve"/>
      <point x="915" y="741"/>
      <point x="1003" y="785"/>
      <point x="1003" y="901" type="curve" smooth="yes"/>
      <point x="1003" y="1069"/>
      <point x="842" y="1139"/>
      <point x="695" y="1139" type="curve" smooth="yes"/>
      <point x="666" y="1139"/>
      <point x="636" y="1140"/>
      <point x="607" y="1140" type="curve" smooth="yes"/>
      <point x="453" y="1140"/>
      <point x="299" y="1129"/>
      <point x="145" y="1126" type="curve"/>
      <point x="147" y="1073" type="line"/>
      <point x="169" y="1070"/>
      <point x="264" y="1066"/>
      <point x="274" y="1047" type="curve" smooth="yes"/>
      <point x="289" y="1016"/>
      <point x="288" y="396"/>
      <point x="288" y="382" type="curve" smooth="yes"/>
      <point x="288" y="339"/>
      <point x="291" y="271"/>
      <point x="269" y="233" type="curve"/>
      <point x="228" y="216"/>
      <point x="186" y="215"/>
      <point x="145" y="205" type="curve"/>
    </contour>
  </outline>
</glyph>
<glyph name="italic" format="2">
  <advance width="1200"/>
  <unicode hex="F033"/>
  <note>
italic
</note>
  <outline>
    <contour>
      <point x="268" y="145" type="line"/>
      <point x="325" y="149"/>
      <point x="381" y="158"/>
      <point x="439" y="158" type="curve" smooth="yes"/>
      <point x="483" y="158"/>
      <point x="528" y="158"/>
      <point x="573" y="157" type="curve" smooth="yes"/>
      <point x="610" y="156"/>
      <point x="648" y="144"/>
      <point x="685" y="144" type="curve" smooth="yes"/>
      <point x="699" y="144"/>
      <point x="713" y="146"/>
      <point x="727" y="146" type="curve"/>
      <point x="732" y="167"/>
      <point x="736" y="189"/>
      <point x="737" y="210" type="curve"/>
      <point x="697" y="217"/>
      <point x="657" y="221"/>
      <point x="618" y="230" type="curve"/>
      <point x="617" y="242" type="line" smooth="yes"/>
      <point x="614" y="269"/>
      <point x="646" y="398"/>
      <point x="653" y="429" type="curve" smooth="yes"/>
      <point x="687" y="596"/>
      <point x="728" y="764"/>
      <point x="760" y="932" type="curve" smooth="yes"/>
      <point x="766" y="969"/>
      <point x="769" y="1007"/>
      <point x="784" y="1042" type="curve"/>
      <point x="828" y="1060"/>
      <point x="875" y="1067"/>
      <point x="920" y="1082" type="curve"/>
      <point x="925" y="1101"/>
      <point x="929" y="1121"/>
      <point x="932" y="1140" type="curve"/>
      <point x="863" y="1136"/>
      <point x="795" y="1130"/>
      <point x="726" y="1130" type="curve" smooth="yes"/>
      <point x="642" y="1130"/>
      <point x="557" y="1136"/>
      <point x="473" y="1140" type="curve"/>
      <point x="461" y="1073" type="line"/>
      <point x="499" y="1067"/>
      <point x="543" y="1072"/>
      <point x="579" y="1053" type="curve"/>
      <point x="579" y="1036" type="line" smooth="yes"/>
      <point x="581" y="984"/>
      <point x="439" y="348"/>
      <point x="431" y="304" type="curve" smooth="yes"/>
      <point x="426" y="281"/>
      <point x="419" y="257"/>
      <point x="404" y="239" type="curve"/>
      <point x="365" y="219"/>
      <point x="320" y="213"/>
      <point x="279" y="200" type="curve"/>
    </contour>
  </outline>
</glyph>
<glyph name="text_height" format="2">
  <advance width="1200"/>
  <unicode hex="F034"/>
  <note>
text_height
</note>
  <outline>
    <contour>
      <point x="1151" y="310" type="curve" smooth="yes"/>
      <point x="1099" y="310" type="line"/>
      <point x="1099" y="974" type="line"/>
      <point x="1151" y="974" type="line" smooth="yes"/>
      <point x="1180" y="974"/>
      <point x="1189" y="992"/>
      <point x="1171" y="1015" type="curve" smooth="yes"/>
      <point x="1089" y="1120" type="line" smooth="yes"/>
      <point x="1072" y="1143"/>
      <point x="1043" y="1143"/>
      <point x="1026" y="1120" type="curve" smooth="yes"/>
      <point x="944" y="1015" type="line" smooth="yes"/>
      <point x="927" y="992"/>
      <point x="936" y="974"/>
      <point x="964" y="974" type="curve" smooth="yes"/>
      <point x="1016" y="974" type="line"/>
      <point x="1016" y="310" type="line"/>
      <point x="964" y="310" type="line" smooth="yes"/>
      <point x="936" y="310"/>
      <point x="927" y="292"/>
      <point x="944" y="269" type="curve" smooth="yes"/>
      <point x="1026" y="164" type="line" smooth="yes"/>
      <point x="1043" y="141"/>
      <point x="1072" y="141"/>
      <point x="1089" y="164" type="curve" smooth="yes"/>
      <point x="1171" y="269" type="line" smooth="yes"/>
      <point x="1189" y="292"/>
      <point x="1180" y="310"/>
    </contour>
    <contour>
      <point x="108" y="1122" type="curve" smooth="yes"/>
      <point x="73" y="1139" type="line"/>
      <point x="20" y="1139" type="line"/>
      <point x="20" y="890" type="line"/>
      <point x="28" y="879"/>
      <point x="45" y="869"/>
      <point x="56" y="862" type="curve"/>
      <point x="95" y="864"/>
      <point x="95" y="994"/>
      <point x="126" y="1016" type="curve" smooth="yes"/>
      <point x="145" y="1029"/>
      <point x="215" y="1040"/>
      <point x="239" y="1040" type="curve" smooth="yes"/>
      <point x="250" y="1040"/>
      <point x="335" y="1042"/>
      <point x="344" y="1032" type="curve" smooth="yes"/>
      <point x="351" y="1023"/>
      <point x="349" y="977"/>
      <point x="349" y="965" type="curve" smooth="yes"/>
      <point x="349" y="889" type="line" smooth="yes"/>
      <point x="349" y="758"/>
      <point x="353" y="627"/>
      <point x="353" y="496" type="curve" smooth="yes"/>
      <point x="353" y="455"/>
      <point x="355" y="280"/>
      <point x="340" y="248" type="curve"/>
      <point x="300" y="224"/>
      <point x="211" y="223"/>
      <point x="186" y="184" type="curve"/>
      <point x="186" y="178" type="line" smooth="yes"/>
      <point x="186" y="167"/>
      <point x="187" y="155"/>
      <point x="188" y="144" type="curve"/>
      <point x="253" y="144"/>
      <point x="319" y="156"/>
      <point x="384" y="156" type="curve" smooth="yes"/>
      <point x="477" y="156"/>
      <point x="568" y="141"/>
      <point x="660" y="144" type="curve" smooth="yes"/>
      <point x="682" y="145" type="line"/>
      <point x="683" y="151"/>
      <point x="684" y="158"/>
      <point x="684" y="163" type="curve" smooth="yes"/>
      <point x="684" y="174"/>
      <point x="682" y="185"/>
      <point x="681" y="196" type="curve"/>
      <point x="630" y="219"/>
      <point x="572" y="222"/>
      <point x="523" y="248" type="curve"/>
      <point x="508" y="296"/>
      <point x="516" y="348"/>
      <point x="516" y="398" type="curve" smooth="yes"/>
      <point x="516" y="580"/>
      <point x="514" y="763"/>
      <point x="514" y="945" type="curve" smooth="yes"/>
      <point x="513" y="974"/>
      <point x="515" y="1005"/>
      <point x="519" y="1033" type="curve"/>
      <point x="577" y="1040"/>
      <point x="639" y="1038"/>
      <point x="698" y="1038" type="curve" smooth="yes"/>
      <point x="718" y="1038"/>
      <point x="733" y="1041"/>
      <point x="746" y="1024" type="curve" smooth="yes"/>
      <point x="748" y="1023"/>
      <point x="763" y="935"/>
      <point x="768" y="922" type="curve" smooth="yes"/>
      <point x="777" y="894"/>
      <point x="788" y="865"/>
      <point x="803" y="839" type="curve"/>
      <point x="818" y="841"/>
      <point x="833" y="846"/>
      <point x="847" y="851" type="curve"/>
      <point x="851" y="874"/>
      <point x="850" y="899"/>
      <point x="850" y="922" type="curve" smooth="yes"/>
      <point x="850" y="994"/>
      <point x="850" y="1067"/>
      <point x="849" y="1139" type="curve"/>
      <point x="843" y="1139"/>
      <point x="836" y="1140"/>
      <point x="831" y="1140" type="curve" smooth="yes"/>
      <point x="803" y="1139" type="line"/>
      <point x="786" y="1115"/>
      <point x="771" y="1121"/>
      <point x="745" y="1121" type="curve" smooth="yes"/>
      <point x="555" y="1121" type="line" smooth="yes"/>
      <point x="508" y="1121"/>
      <point x="462" y="1121"/>
      <point x="416" y="1121" type="curve" smooth="yes"/>
      <point x="359" y="1121"/>
      <point x="301" y="1119"/>
      <point x="244" y="1119" type="curve" smooth="yes"/>
      <point x="231" y="1119"/>
      <point x="112" y="1120"/>
    </contour>
  </outline>
</glyph>
<glyph name="text_width" format="2">
  <advance width="1200"/>
  <unicode hex="F035"/>
  <note>
text_width
</note>
  <outline>
    <contour>
      <point x="189" y="1122" type="curve" smooth="yes"/>
      <point x="154" y="1139" type="line"/>
      <point x="102" y="1139" type="line"/>
      <point x="102" y="890" type="line"/>
      <point x="110" y="879"/>
      <point x="127" y="869"/>
      <point x="138" y="862" type="curve"/>
      <point x="177" y="865"/>
      <point x="178" y="995"/>
      <point x="208" y="1016" type="curve" smooth="yes"/>
      <point x="224" y="1026"/>
      <point x="376" y="1040"/>
      <point x="403" y="1040" type="curve" smooth="yes"/>
      <point x="415" y="1040"/>
      <point x="499" y="1042"/>
      <point x="509" y="1032" type="curve" smooth="yes"/>
      <point x="518" y="1021"/>
      <point x="514" y="869"/>
      <point x="514" y="842" type="curve" smooth="yes"/>
      <point x="514" y="833"/>
      <point x="517" y="823"/>
      <point x="517" y="814" type="curve" smooth="yes"/>
      <point x="517" y="757"/>
      <point x="522" y="450"/>
      <point x="505" y="414" type="curve"/>
      <point x="464" y="390"/>
      <point x="376" y="389"/>
      <point x="351" y="350" type="curve"/>
      <point x="351" y="344" type="line" smooth="yes"/>
      <point x="351" y="333"/>
      <point x="352" y="321"/>
      <point x="353" y="310" type="curve"/>
      <point x="418" y="310"/>
      <point x="484" y="322"/>
      <point x="549" y="322" type="curve" smooth="yes"/>
      <point x="642" y="322"/>
      <point x="733" y="307"/>
      <point x="825" y="310" type="curve" smooth="yes"/>
      <point x="847" y="311" type="line"/>
      <point x="848" y="317"/>
      <point x="849" y="324"/>
      <point x="849" y="329" type="curve" smooth="yes"/>
      <point x="849" y="340"/>
      <point x="847" y="352"/>
      <point x="846" y="362" type="curve"/>
      <point x="795" y="385"/>
      <point x="737" y="388"/>
      <point x="688" y="414" type="curve"/>
      <point x="673" y="462"/>
      <point x="681" y="514"/>
      <point x="681" y="564" type="curve" smooth="yes"/>
      <point x="681" y="669"/>
      <point x="680" y="774"/>
      <point x="679" y="880" type="curve" smooth="yes"/>
      <point x="679" y="846" type="line"/>
      <point x="678" y="945" type="line" smooth="yes"/>
      <point x="678" y="974"/>
      <point x="680" y="1005"/>
      <point x="684" y="1033" type="curve"/>
      <point x="762" y="1042"/>
      <point x="854" y="1038"/>
      <point x="934" y="1038" type="curve" smooth="yes"/>
      <point x="940" y="1038"/>
      <point x="972" y="1038"/>
      <point x="977" y="1036" type="curve" smooth="yes"/>
      <point x="984" y="1034"/>
      <point x="990" y="1030"/>
      <point x="994" y="1024" type="curve" smooth="yes"/>
      <point x="995" y="1023"/>
      <point x="1011" y="935"/>
      <point x="1016" y="922" type="curve" smooth="yes"/>
      <point x="1025" y="894"/>
      <point x="1036" y="865"/>
      <point x="1051" y="839" type="curve"/>
      <point x="1066" y="841"/>
      <point x="1081" y="846"/>
      <point x="1095" y="851" type="curve"/>
      <point x="1099" y="874"/>
      <point x="1098" y="898"/>
      <point x="1098" y="922" type="curve" smooth="yes"/>
      <point x="1098" y="994"/>
      <point x="1098" y="1067"/>
      <point x="1097" y="1139" type="curve"/>
      <point x="1091" y="1139"/>
      <point x="1084" y="1140"/>
      <point x="1079" y="1140" type="curve" smooth="yes"/>
      <point x="1051" y="1139" type="line"/>
      <point x="1043" y="1128"/>
      <point x="1029" y="1119"/>
      <point x="1015" y="1119" type="curve" smooth="yes"/>
      <point x="843" y="1125"/>
      <point x="669" y="1121"/>
      <point x="498" y="1121" type="curve" smooth="yes"/>
      <point x="440" y="1121"/>
      <point x="383" y="1119"/>
      <point x="326" y="1119" type="curve" smooth="yes"/>
      <point x="313" y="1119"/>
      <point x="194" y="1120"/>
    </contour>
    <contour>
      <point x="951" y="308" type="curve" smooth="yes"/>
      <point x="922" y="308"/>
      <point x="932" y="239"/>
      <point x="932" y="227" type="curve"/>
      <point x="268" y="227" type="line"/>
      <point x="268" y="239"/>
      <point x="278" y="308"/>
      <point x="248" y="308" type="curve" smooth="yes"/>
      <point x="226" y="308"/>
      <point x="140" y="231"/>
      <point x="122" y="217" type="curve" smooth="yes"/>
      <point x="112" y="209"/>
      <point x="105" y="198"/>
      <point x="105" y="185" type="curve" smooth="yes"/>
      <point x="105" y="173"/>
      <point x="112" y="162"/>
      <point x="122" y="154" type="curve" smooth="yes"/>
      <point x="140" y="140"/>
      <point x="226" y="63"/>
      <point x="248" y="63" type="curve" smooth="yes"/>
      <point x="278" y="63"/>
      <point x="268" y="132"/>
      <point x="268" y="144" type="curve"/>
      <point x="932" y="144" type="line"/>
      <point x="932" y="132"/>
      <point x="922" y="63"/>
      <point x="951" y="63" type="curve" smooth="yes"/>
      <point x="974" y="63"/>
      <point x="1060" y="140"/>
      <point x="1078" y="154" type="curve" smooth="yes"/>
      <point x="1088" y="162"/>
      <point x="1095" y="173"/>
      <point x="1095" y="185" type="curve" smooth="yes"/>
      <point x="1095" y="198"/>
      <point x="1088" y="209"/>
      <point x="1078" y="217" type="curve" smooth="yes"/>
      <point x="1060" y="231"/>
      <point x="974" y="308"/>
    </contour>
  </outline>
</glyph>
<glyph name="align_left" format="2">
  <advance width="1200"/>
  <unicode hex="F036"/>
  <note>
align_left
</note>
  <outline>
    <contour>
      <point x="1180" y="296" type="curve" smooth="yes"/>
      <point x="1180" y="379" type="line" smooth="yes"/>
      <point x="1180" y="401"/>
      <point x="1161" y="420"/>
      <point x="1139" y="420" type="curve" smooth="yes"/>
      <point x="61" y="420" type="line" smooth="yes"/>
      <point x="39" y="420"/>
      <point x="20" y="401"/>
      <point x="20" y="379" type="curve" smooth="yes"/>
      <point x="20" y="296" type="line" smooth="yes"/>
      <point x="20" y="273"/>
      <point x="39" y="254"/>
      <point x="61" y="254" type="curve" smooth="yes"/>
      <point x="1139" y="254" type="line" smooth="yes"/>
      <point x="1161" y="254"/>
      <point x="1180" y="273"/>
    </contour>
    <contour>
      <point x="931" y="544" type="curve" smooth="yes"/>
      <point x="931" y="627" type="line" smooth="yes"/>
      <point x="931" y="650"/>
      <point x="913" y="669"/>
      <point x="890" y="669" type="curve" smooth="yes"/>
      <point x="61" y="669" type="line" smooth="yes"/>
      <point x="39" y="669"/>
      <point x="20" y="650"/>
      <point x="20" y="627" type="curve" smooth="yes"/>
      <point x="20" y="544" type="line" smooth="yes"/>
      <point x="20" y="522"/>
      <point x="39" y="503"/>
      <point x="61" y="503" type="curve" smooth="yes"/>
      <point x="890" y="503" type="line" smooth="yes"/>
      <point x="913" y="503"/>
      <point x="931" y="522"/>
    </contour>
    <contour>
      <point x="1097" y="793" type="curve" smooth="yes"/>
      <point x="1097" y="876" type="line" smooth="yes"/>
      <point x="1097" y="898"/>
      <point x="1078" y="917"/>
      <point x="1056" y="917" type="curve" smooth="yes"/>
      <point x="61" y="917" type="line" smooth="yes"/>
      <point x="39" y="917"/>
      <point x="20" y="898"/>
      <point x="20" y="876" type="curve" smooth="yes"/>
      <point x="20" y="793" type="line" smooth="yes"/>
      <point x="20" y="770"/>
      <point x="39" y="751"/>
      <point x="61" y="751" type="curve" smooth="yes"/>
      <point x="1056" y="751" type="line" smooth="yes"/>
      <point x="1078" y="751"/>
      <point x="1097" y="770"/>
    </contour>
    <contour>
      <point x="849" y="1041" type="curve" smooth="yes"/>
      <point x="849" y="1124" type="line" smooth="yes"/>
      <point x="849" y="1147"/>
      <point x="830" y="1166"/>
      <point x="807" y="1166" type="curve" smooth="yes"/>
      <point x="61" y="1166" type="line" smooth="yes"/>
      <point x="39" y="1166"/>
      <point x="20" y="1147"/>
      <point x="20" y="1124" type="curve" smooth="yes"/>
      <point x="20" y="1041" type="line" smooth="yes"/>
      <point x="20" y="1019"/>
      <point x="39" y="1000"/>
      <point x="61" y="1000" type="curve" smooth="yes"/>
      <point x="807" y="1000" type="line" smooth="yes"/>
      <point x="830" y="1000"/>
      <point x="849" y="1019"/>
    </contour>
  </outline>
</glyph>
<glyph name="align_center" format="2">
  <advance width="1200"/>
  <unicode hex="F037"/>
  <note>
align_center
</note>
  <outline>
    <contour>
      <point x="1180" y="268" type="curve" smooth="yes"/>
      <point x="1180" y="351" type="line" smooth="yes"/>
      <point x="1180" y="374"/>
      <point x="1161" y="393"/>
      <point x="1139" y="393" type="curve" smooth="yes"/>
      <point x="61" y="393" type="line" smooth="yes"/>
      <point x="39" y="393"/>
      <point x="20" y="374"/>
      <point x="20" y="351" type="curve" smooth="yes"/>
      <point x="20" y="268" type="line" smooth="yes"/>
      <point x="20" y="246"/>
      <point x="39" y="227"/>
      <point x="61" y="227" type="curve" smooth="yes"/>
      <point x="1139" y="227" type="line" smooth="yes"/>
      <point x="1161" y="227"/>
      <point x="1180" y="246"/>
    </contour>
    <contour>
      <point x="931" y="517" type="curve" smooth="yes"/>
      <point x="931" y="600" type="line" smooth="yes"/>
      <point x="931" y="623"/>
      <point x="913" y="641"/>
      <point x="890" y="641" type="curve" smooth="yes"/>
      <point x="310" y="641" type="line" smooth="yes"/>
      <point x="287" y="641"/>
      <point x="269" y="623"/>
      <point x="269" y="600" type="curve" smooth="yes"/>
      <point x="269" y="517" type="line" smooth="yes"/>
      <point x="269" y="494"/>
      <point x="287" y="476"/>
      <point x="310" y="476" type="curve" smooth="yes"/>
      <point x="890" y="476" type="line" smooth="yes"/>
      <point x="913" y="476"/>
      <point x="931" y="494"/>
    </contour>
    <contour>
      <point x="1097" y="766" type="curve" smooth="yes"/>
      <point x="1097" y="848" type="line" smooth="yes"/>
      <point x="1097" y="871"/>
      <point x="1078" y="890"/>
      <point x="1056" y="890" type="curve" smooth="yes"/>
      <point x="144" y="890" type="line" smooth="yes"/>
      <point x="122" y="890"/>
      <point x="103" y="871"/>
      <point x="103" y="848" type="curve" smooth="yes"/>
      <point x="103" y="766" type="line" smooth="yes"/>
      <point x="103" y="743"/>
      <point x="122" y="724"/>
      <point x="144" y="724" type="curve" smooth="yes"/>
      <point x="1056" y="724" type="line" smooth="yes"/>
      <point x="1078" y="724"/>
      <point x="1097" y="743"/>
    </contour>
    <contour>
      <point x="849" y="1014" type="curve" smooth="yes"/>
      <point x="849" y="1097" type="line" smooth="yes"/>
      <point x="849" y="1120"/>
      <point x="830" y="1138"/>
      <point x="807" y="1138" type="curve" smooth="yes"/>
      <point x="393" y="1138" type="line" smooth="yes"/>
      <point x="370" y="1138"/>
      <point x="351" y="1120"/>
      <point x="351" y="1097" type="curve" smooth="yes"/>
      <point x="351" y="1014" type="line" smooth="yes"/>
      <point x="351" y="991"/>
      <point x="370" y="973"/>
      <point x="393" y="973" type="curve" smooth="yes"/>
      <point x="807" y="973" type="line" smooth="yes"/>
      <point x="830" y="973"/>
      <point x="849" y="991"/>
    </contour>
  </outline>
</glyph>
<glyph name="align_right" format="2">
  <advance width="1200"/>
  <unicode hex="F038"/>
  <note>
align_right
</note>
  <outline>
    <contour>
      <point x="1180" y="268" type="curve" smooth="yes"/>
      <point x="1180" y="351" type="line" smooth="yes"/>
      <point x="1180" y="374"/>
      <point x="1161" y="393"/>
      <point x="1139" y="393" type="curve" smooth="yes"/>
      <point x="61" y="393" type="line" smooth="yes"/>
      <point x="39" y="393"/>
      <point x="20" y="374"/>
      <point x="20" y="351" type="curve" smooth="yes"/>
      <point x="20" y="268" type="line" smooth="yes"/>
      <point x="20" y="246"/>
      <point x="39" y="227"/>
      <point x="61" y="227" type="curve" smooth="yes"/>
      <point x="1139" y="227" type="line" smooth="yes"/>
      <point x="1161" y="227"/>
      <point x="1180" y="246"/>
    </contour>
    <contour>
      <point x="1180" y="517" type="curve" smooth="yes"/>
      <point x="1180" y="600" type="line" smooth="yes"/>
      <point x="1180" y="623"/>
      <point x="1161" y="641"/>
      <point x="1139" y="641" type="curve" smooth="yes"/>
      <point x="310" y="641" type="line" smooth="yes"/>
      <point x="287" y="641"/>
      <point x="269" y="623"/>
      <point x="269" y="600" type="curve" smooth="yes"/>
      <point x="269" y="517" type="line" smooth="yes"/>
      <point x="269" y="494"/>
      <point x="287" y="476"/>
      <point x="310" y="476" type="curve" smooth="yes"/>
      <point x="1139" y="476" type="line" smooth="yes"/>
      <point x="1161" y="476"/>
      <point x="1180" y="494"/>
    </contour>
    <contour>
      <point x="1180" y="766" type="curve" smooth="yes"/>
      <point x="1180" y="848" type="line" smooth="yes"/>
      <point x="1180" y="871"/>
      <point x="1161" y="890"/>
      <point x="1139" y="890" type="curve" smooth="yes"/>
      <point x="144" y="890" type="line" smooth="yes"/>
      <point x="122" y="890"/>
      <point x="103" y="871"/>
      <point x="103" y="848" type="curve" smooth="yes"/>
      <point x="103" y="766" type="line" smooth="yes"/>
      <point x="103" y="743"/>
      <point x="122" y="724"/>
      <point x="144" y="724" type="curve" smooth="yes"/>
      <point x="1139" y="724" type="line" smooth="yes"/>
      <point x="1161" y="724"/>
      <point x="1180" y="743"/>
    </contour>
    <contour>
      <point x="1180" y="1014" type="curve" smooth="yes"/>
      <point x="1180" y="1097" type="line" smooth="yes"/>
      <point x="1180" y="1120"/>
      <point x="1161" y="1138"/>
      <point x="1139" y="1138" type="curve" smooth="yes"/>
      <point x="393" y="1138" type="line" smooth="yes"/>
      <point x="370" y="1138"/>
      <point x="351" y="1120"/>
      <point x="351" y="1097" type="curve" smooth="yes"/>
      <point x="351" y="1014" type="line" smooth="yes"/>
      <point x="351" y="991"/>
      <point x="370" y="973"/>
      <point x="393" y="973" type="curve" smooth="yes"/>
      <point x="1139" y="973" type="line" smooth="yes"/>
      <point x="1161" y="973"/>
      <point x="1180" y="991"/>
    </contour>
  </outline>
</glyph>
<glyph name="list" format="2">
  <advance width="1200"/>
  <unicode hex="F03A"/>
  <note>
list
</note>
  <outline>
    <contour>
      <point x="186" y="248" type="curve" smooth="yes"/>
      <point x="186" y="372" type="line" smooth="yes"/>
      <point x="186" y="383"/>
      <point x="176" y="393"/>
      <point x="165" y="393" type="curve" smooth="yes"/>
      <point x="41" y="393" type="line" smooth="yes"/>
      <point x="30" y="393"/>
      <point x="20" y="383"/>
      <point x="20" y="372" type="curve" smooth="yes"/>
      <point x="20" y="248" type="line" smooth="yes"/>
      <point x="20" y="237"/>
      <point x="30" y="227"/>
      <point x="41" y="227" type="curve" smooth="yes"/>
      <point x="165" y="227" type="line" smooth="yes"/>
      <point x="176" y="227"/>
      <point x="186" y="237"/>
    </contour>
    <contour>
      <point x="186" y="496" type="curve" smooth="yes"/>
      <point x="186" y="621" type="line" smooth="yes"/>
      <point x="186" y="632"/>
      <point x="176" y="641"/>
      <point x="165" y="641" type="curve" smooth="yes"/>
      <point x="41" y="641" type="line" smooth="yes"/>
      <point x="30" y="641"/>
      <point x="20" y="632"/>
      <point x="20" y="621" type="curve" smooth="yes"/>
      <point x="20" y="496" type="line" smooth="yes"/>
      <point x="20" y="485"/>
      <point x="30" y="476"/>
      <point x="41" y="476" type="curve" smooth="yes"/>
      <point x="165" y="476" type="line" smooth="yes"/>
      <point x="176" y="476"/>
      <point x="186" y="485"/>
    </contour>
    <contour>
      <point x="186" y="745" type="curve" smooth="yes"/>
      <point x="186" y="869" type="line" smooth="yes"/>
      <point x="186" y="880"/>
      <point x="176" y="890"/>
      <point x="165" y="890" type="curve" smooth="yes"/>
      <point x="41" y="890" type="line" smooth="yes"/>
      <point x="30" y="890"/>
      <point x="20" y="880"/>
      <point x="20" y="869" type="curve" smooth="yes"/>
      <point x="20" y="745" type="line" smooth="yes"/>
      <point x="20" y="734"/>
      <point x="30" y="724"/>
      <point x="41" y="724" type="curve" smooth="yes"/>
      <point x="165" y="724" type="line" smooth="yes"/>
      <point x="176" y="724"/>
      <point x="186" y="734"/>
    </contour>
    <contour>
      <point x="1180" y="248" type="curve" smooth="yes"/>
      <point x="1180" y="372" type="line" smooth="yes"/>
      <point x="1180" y="383"/>
      <point x="1170" y="393"/>
      <point x="1159" y="393" type="curve" smooth="yes"/>
      <point x="289" y="393" type="line" smooth="yes"/>
      <point x="278" y="393"/>
      <point x="269" y="383"/>
      <point x="269" y="372" type="curve" smooth="yes"/>
      <point x="269" y="248" type="line" smooth="yes"/>
      <point x="269" y="237"/>
      <point x="278" y="227"/>
      <point x="289" y="227" type="curve" smooth="yes"/>
      <point x="1159" y="227" type="line" smooth="yes"/>
      <point x="1170" y="227"/>
      <point x="1180" y="237"/>
    </contour>
    <contour>
      <point x="186" y="993" type="curve" smooth="yes"/>
      <point x="186" y="1118" type="line" smooth="yes"/>
      <point x="186" y="1129"/>
      <point x="176" y="1138"/>
      <point x="165" y="1138" type="curve" smooth="yes"/>
      <point x="41" y="1138" type="line" smooth="yes"/>
      <point x="30" y="1138"/>
      <point x="20" y="1129"/>
      <point x="20" y="1118" type="curve" smooth="yes"/>
      <point x="20" y="993" type="line" smooth="yes"/>
      <point x="20" y="982"/>
      <point x="30" y="973"/>
      <point x="41" y="973" type="curve" smooth="yes"/>
      <point x="165" y="973" type="line" smooth="yes"/>
      <point x="176" y="973"/>
      <point x="186" y="982"/>
    </contour>
    <contour>
      <point x="1180" y="496" type="curve" smooth="yes"/>
      <point x="1180" y="621" type="line" smooth="yes"/>
      <point x="1180" y="632"/>
      <point x="1170" y="641"/>
      <point x="1159" y="641" type="curve" smooth="yes"/>
      <point x="289" y="641" type="line" smooth="yes"/>
      <point x="278" y="641"/>
      <point x="269" y="632"/>
      <point x="269" y="621" type="curve" smooth="yes"/>
      <point x="269" y="496" type="line" smooth="yes"/>
      <point x="269" y="485"/>
      <point x="278" y="476"/>
      <point x="289" y="476" type="curve" smooth="yes"/>
      <point x="1159" y="476" type="line" smooth="yes"/>
      <point x="1170" y="476"/>
      <point x="1180" y="485"/>
    </contour>
    <contour>
      <point x="1180" y="745" type="curve" smooth="yes"/>
      <point x="1180" y="869" type="line" smooth="yes"/>
      <point x="1180" y="880"/>
      <point x="1170" y="890"/>
      <point x="1159" y="890" type="curve" smooth="yes"/>
      <point x="289" y="890" type="line" smooth="yes"/>
      <point x="278" y="890"/>
      <point x="269" y="880"/>
      <point x="269" y="869" type="curve" smooth="yes"/>
      <point x="269" y="745" type="line" smooth="yes"/>
      <point x="269" y="734"/>
      <point x="278" y="724"/>
      <point x="289" y="724" type="curve" smooth="yes"/>
      <point x="1159" y="724" type="line" smooth="yes"/>
      <point x="1170" y="724"/>
      <point x="1180" y="734"/>
    </contour>
    <contour>
      <point x="1180" y="993" type="curve" smooth="yes"/>
      <point x="1180" y="1118" type="line" smooth="yes"/>
      <point x="1180" y="1129"/>
      <point x="1170" y="1138"/>
      <point x="1159" y="1138" type="curve" smooth="yes"/>
      <point x="289" y="1138" type="line" smooth="yes"/>
      <point x="278" y="1138"/>
      <point x="269" y="1129"/>
      <point x="269" y="1118" type="curve" smooth="yes"/>
      <point x="269" y="993" type="line" smooth="yes"/>
      <point x="269" y="982"/>
      <point x="278" y="973"/>
      <point x="289" y="973" type="curve" smooth="yes"/>
      <point x="1159" y="973" type="line" smooth="yes"/>
      <point x="1170" y="973"/>
      <point x="1180" y="982"/>
    </contour>
  </outline>
</glyph>
<glyph name="indent_left" format="2">
  <advance width="1200"/>
  <unicode hex="F03B"/>
  <note>
indent_left
</note>
  <outline>
    <contour>
      <point x="269" y="524" type="curve" smooth="yes"/>
      <point x="269" y="896" type="line" smooth="yes"/>
      <point x="269" y="907"/>
      <point x="259" y="917"/>
      <point x="248" y="917" type="curve" smooth="yes"/>
      <point x="243" y="917"/>
      <point x="237" y="915"/>
      <point x="233" y="911" type="curve" smooth="yes"/>
      <point x="47" y="725" type="line" smooth="yes"/>
      <point x="43" y="721"/>
      <point x="41" y="715"/>
      <point x="41" y="710" type="curve" smooth="yes"/>
      <point x="41" y="705"/>
      <point x="43" y="699"/>
      <point x="47" y="695" type="curve" smooth="yes"/>
      <point x="233" y="509" type="line" smooth="yes"/>
      <point x="237" y="505"/>
      <point x="243" y="503"/>
      <point x="248" y="503" type="curve" smooth="yes"/>
      <point x="259" y="503"/>
      <point x="269" y="513"/>
    </contour>
    <contour>
      <point x="1180" y="275" type="curve" smooth="yes"/>
      <point x="1180" y="399" type="line" smooth="yes"/>
      <point x="1180" y="410"/>
      <point x="1170" y="420"/>
      <point x="1159" y="420" type="curve" smooth="yes"/>
      <point x="41" y="420" type="line" smooth="yes"/>
      <point x="30" y="420"/>
      <point x="20" y="410"/>
      <point x="20" y="399" type="curve" smooth="yes"/>
      <point x="20" y="275" type="line" smooth="yes"/>
      <point x="20" y="264"/>
      <point x="30" y="254"/>
      <point x="41" y="254" type="curve" smooth="yes"/>
      <point x="1159" y="254" type="line" smooth="yes"/>
      <point x="1170" y="254"/>
      <point x="1180" y="264"/>
    </contour>
    <contour>
      <point x="1180" y="524" type="curve" smooth="yes"/>
      <point x="1180" y="648" type="line" smooth="yes"/>
      <point x="1180" y="659"/>
      <point x="1170" y="669"/>
      <point x="1159" y="669" type="curve" smooth="yes"/>
      <point x="455" y="669" type="line" smooth="yes"/>
      <point x="444" y="669"/>
      <point x="434" y="659"/>
      <point x="434" y="648" type="curve" smooth="yes"/>
      <point x="434" y="524" type="line" smooth="yes"/>
      <point x="434" y="513"/>
      <point x="444" y="503"/>
      <point x="455" y="503" type="curve" smooth="yes"/>
      <point x="1159" y="503" type="line" smooth="yes"/>
      <point x="1170" y="503"/>
      <point x="1180" y="513"/>
    </contour>
    <contour>
      <point x="1180" y="772" type="curve" smooth="yes"/>
      <point x="1180" y="896" type="line" smooth="yes"/>
      <point x="1180" y="907"/>
      <point x="1170" y="917"/>
      <point x="1159" y="917" type="curve" smooth="yes"/>
      <point x="455" y="917" type="line" smooth="yes"/>
      <point x="444" y="917"/>
      <point x="434" y="907"/>
      <point x="434" y="896" type="curve" smooth="yes"/>
      <point x="434" y="772" type="line" smooth="yes"/>
      <point x="434" y="761"/>
      <point x="444" y="751"/>
      <point x="455" y="751" type="curve" smooth="yes"/>
      <point x="1159" y="751" type="line" smooth="yes"/>
      <point x="1170" y="751"/>
      <point x="1180" y="761"/>
    </contour>
    <contour>
      <point x="1180" y="1021" type="curve" smooth="yes"/>
      <point x="1180" y="1145" type="line" smooth="yes"/>
      <point x="1180" y="1156"/>
      <point x="1170" y="1166"/>
      <point x="1159" y="1166" type="curve" smooth="yes"/>
      <point x="41" y="1166" type="line" smooth="yes"/>
      <point x="30" y="1166"/>
      <point x="20" y="1156"/>
      <point x="20" y="1145" type="curve" smooth="yes"/>
      <point x="20" y="1021" type="line" smooth="yes"/>
      <point x="20" y="1010"/>
      <point x="30" y="1000"/>
      <point x="41" y="1000" type="curve" smooth="yes"/>
      <point x="1159" y="1000" type="line" smooth="yes"/>
      <point x="1170" y="1000"/>
      <point x="1180" y="1010"/>
    </contour>
  </outline>
</glyph>
<glyph name="indent_right" format="2">
  <advance width="1200"/>
  <unicode hex="F03C"/>
  <note>
indent_right
</note>
  <outline>
    <contour>
      <point x="248" y="683" type="curve" smooth="yes"/>
      <point x="248" y="688"/>
      <point x="246" y="694"/>
      <point x="242" y="698" type="curve" smooth="yes"/>
      <point x="56" y="884" type="line" smooth="yes"/>
      <point x="52" y="888"/>
      <point x="46" y="890"/>
      <point x="41" y="890" type="curve" smooth="yes"/>
      <point x="30" y="890"/>
      <point x="20" y="880"/>
      <point x="20" y="869" type="curve" smooth="yes"/>
      <point x="20" y="496" type="line" smooth="yes"/>
      <point x="20" y="485"/>
      <point x="30" y="476"/>
      <point x="41" y="476" type="curve" smooth="yes"/>
      <point x="46" y="476"/>
      <point x="52" y="478"/>
      <point x="56" y="481" type="curve" smooth="yes"/>
      <point x="242" y="668" type="line" smooth="yes"/>
      <point x="246" y="672"/>
      <point x="248" y="678"/>
    </contour>
    <contour>
      <point x="1180" y="248" type="curve" smooth="yes"/>
      <point x="1180" y="372" type="line" smooth="yes"/>
      <point x="1180" y="383"/>
      <point x="1170" y="393"/>
      <point x="1159" y="393" type="curve" smooth="yes"/>
      <point x="41" y="393" type="line" smooth="yes"/>
      <point x="30" y="393"/>
      <point x="20" y="383"/>
      <point x="20" y="372" type="curve" smooth="yes"/>
      <point x="20" y="248" type="line" smooth="yes"/>
      <point x="20" y="237"/>
      <point x="30" y="227"/>
      <point x="41" y="227" type="curve" smooth="yes"/>
      <point x="1159" y="227" type="line" smooth="yes"/>
      <point x="1170" y="227"/>
      <point x="1180" y="237"/>
    </contour>
    <contour>
      <point x="1180" y="496" type="curve" smooth="yes"/>
      <point x="1180" y="621" type="line" smooth="yes"/>
      <point x="1180" y="632"/>
      <point x="1170" y="641"/>
      <point x="1159" y="641" type="curve" smooth="yes"/>
      <point x="455" y="641" type="line" smooth="yes"/>
      <point x="444" y="641"/>
      <point x="434" y="632"/>
      <point x="434" y="621" type="curve" smooth="yes"/>
      <point x="434" y="496" type="line" smooth="yes"/>
      <point x="434" y="485"/>
      <point x="444" y="476"/>
      <point x="455" y="476" type="curve" smooth="yes"/>
      <point x="1159" y="476" type="line" smooth="yes"/>
      <point x="1170" y="476"/>
      <point x="1180" y="485"/>
    </contour>
    <contour>
      <point x="1180" y="745" type="curve" smooth="yes"/>
      <point x="1180" y="869" type="line" smooth="yes"/>
      <point x="1180" y="880"/>
      <point x="1170" y="890"/>
      <point x="1159" y="890" type="curve" smooth="yes"/>
      <point x="455" y="890" type="line" smooth="yes"/>
      <point x="444" y="890"/>
      <point x="434" y="880"/>
      <point x="434" y="869" type="curve" smooth="yes"/>
      <point x="434" y="745" type="line" smooth="yes"/>
      <point x="434" y="734"/>
      <point x="444" y="724"/>
      <point x="455" y="724" type="curve" smooth="yes"/>
      <point x="1159" y="724" type="line" smooth="yes"/>
      <point x="1170" y="724"/>
      <point x="1180" y="734"/>
    </contour>
    <contour>
      <point x="1180" y="993" type="curve" smooth="yes"/>
      <point x="1180" y="1118" type="line" smooth="yes"/>
      <point x="1180" y="1129"/>
      <point x="1170" y="1138"/>
      <point x="1159" y="1138" type="curve" smooth="yes"/>
      <point x="41" y="1138" type="line" smooth="yes"/>
      <point x="30" y="1138"/>
      <point x="20" y="1129"/>
      <point x="20" y="1118" type="curve" smooth="yes"/>
      <point x="20" y="993" type="line" smooth="yes"/>
      <point x="20" y="982"/>
      <point x="30" y="973"/>
      <point x="41" y="973" type="curve" smooth="yes"/>
      <point x="1159" y="973" type="line" smooth="yes"/>
      <point x="1170" y="973"/>
      <point x="1180" y="982"/>
    </contour>
  </outline>
</glyph>
<glyph name="facetime_video" format="2">
  <advance width="1200"/>
  <unicode hex="F03D"/>
  <note>
facetime_video
</note>
  <outline>
    <contour>
      <point x="1180" y="289" type="curve" smooth="yes"/>
      <point x="1180" y="993" type="line" smooth="yes"/>
      <point x="1180" y="1010"/>
      <point x="1170" y="1025"/>
      <point x="1155" y="1032" type="curve" smooth="yes"/>
      <point x="1150" y="1034"/>
      <point x="1144" y="1035"/>
      <point x="1139" y="1035" type="curve" smooth="yes"/>
      <point x="1128" y="1035"/>
      <point x="1117" y="1031"/>
      <point x="1109" y="1023" type="curve" smooth="yes"/>
      <point x="849" y="762" type="line"/>
      <point x="849" y="869" type="line" smooth="yes"/>
      <point x="849" y="972"/>
      <point x="765" y="1056"/>
      <point x="662" y="1056" type="curve" smooth="yes"/>
      <point x="206" y="1056" type="line" smooth="yes"/>
      <point x="104" y="1056"/>
      <point x="20" y="972"/>
      <point x="20" y="869" type="curve" smooth="yes"/>
      <point x="20" y="413" type="line" smooth="yes"/>
      <point x="20" y="311"/>
      <point x="104" y="227"/>
      <point x="206" y="227" type="curve" smooth="yes"/>
      <point x="662" y="227" type="line" smooth="yes"/>
      <point x="765" y="227"/>
      <point x="849" y="311"/>
      <point x="849" y="413" type="curve" smooth="yes"/>
      <point x="849" y="521" type="line"/>
      <point x="1109" y="260" type="line" smooth="yes"/>
      <point x="1117" y="252"/>
      <point x="1128" y="248"/>
      <point x="1139" y="248" type="curve" smooth="yes"/>
      <point x="1144" y="248"/>
      <point x="1150" y="249"/>
      <point x="1155" y="251" type="curve" smooth="yes"/>
      <point x="1170" y="257"/>
      <point x="1180" y="272"/>
    </contour>
  </outline>
</glyph>
<glyph name="picture" format="2">
  <advance width="1200"/>
  <unicode hex="F03E"/>
  <note>
picture
</note>
  <outline>
    <contour>
      <point x="407" y="807" type="curve" smooth="yes"/>
      <point x="407" y="871"/>
      <point x="355" y="923"/>
      <point x="291" y="923" type="curve" smooth="yes"/>
      <point x="227" y="923"/>
      <point x="175" y="871"/>
      <point x="175" y="807" type="curve" smooth="yes"/>
      <point x="175" y="743"/>
      <point x="227" y="691"/>
      <point x="291" y="691" type="curve" smooth="yes"/>
      <point x="355" y="691"/>
      <point x="407" y="743"/>
    </contour>
    <contour>
      <point x="1025" y="304" type="line"/>
      <point x="1025" y="575" type="line"/>
      <point x="774" y="826" type="line"/>
      <point x="465" y="517" type="line"/>
      <point x="368" y="614" type="line"/>
      <point x="175" y="420" type="line"/>
      <point x="175" y="304" type="line"/>
    </contour>
    <contour>
      <point x="1083" y="1000" type="line" smooth="yes"/>
      <point x="1094" y="1000"/>
      <point x="1103" y="991"/>
      <point x="1103" y="981" type="curve" smooth="yes"/>
      <point x="1103" y="246" type="line" smooth="yes"/>
      <point x="1103" y="236"/>
      <point x="1094" y="227"/>
      <point x="1083" y="227" type="curve" smooth="yes"/>
      <point x="117" y="227" type="line" smooth="yes"/>
      <point x="106" y="227"/>
      <point x="97" y="236"/>
      <point x="97" y="246" type="curve" smooth="yes"/>
      <point x="97" y="981" type="line" smooth="yes"/>
      <point x="97" y="991"/>
      <point x="106" y="1000"/>
      <point x="117" y="1000" type="curve" smooth="yes"/>
    </contour>
    <contour>
      <point x="1180" y="246" type="curve" smooth="yes"/>
      <point x="1180" y="981" type="line" smooth="yes"/>
      <point x="1180" y="1034"/>
      <point x="1137" y="1078"/>
      <point x="1083" y="1078" type="curve"/>
      <point x="1083" y="1078" type="line"/>
      <point x="117" y="1078" type="line" smooth="yes"/>
      <point x="64" y="1078"/>
      <point x="20" y="1034"/>
      <point x="20" y="981" type="curve" smooth="yes"/>
      <point x="20" y="246" type="line" smooth="yes"/>
      <point x="20" y="193"/>
      <point x="64" y="150"/>
      <point x="117" y="150" type="curve" smooth="yes"/>
      <point x="1083" y="150" type="line" smooth="yes"/>
      <point x="1137" y="150"/>
      <point x="1180" y="193"/>
    </contour>
  </outline>
</glyph>
<glyph name="pencil" format="2">
  <advance width="1200"/>
  <unicode hex="F040"/>
  <note>
pencil
</note>
  <outline>
    <contour>
      <point x="368" y="297" type="line"/>
      <point x="298" y="227" type="line"/>
      <point x="216" y="227" type="line"/>
      <point x="216" y="325" type="line"/>
      <point x="118" y="325" type="line"/>
      <point x="118" y="407" type="line"/>
      <point x="188" y="477" type="line"/>
    </contour>
    <contour>
      <point x="698" y="938" type="curve" smooth="yes"/>
      <point x="698" y="933"/>
      <point x="697" y="928"/>
      <point x="693" y="925" type="curve" smooth="yes"/>
      <point x="278" y="510" type="line" smooth="yes"/>
      <point x="274" y="506"/>
      <point x="270" y="504"/>
      <point x="265" y="504" type="curve" smooth="yes"/>
      <point x="255" y="504"/>
      <point x="248" y="511"/>
      <point x="248" y="521" type="curve" smooth="yes"/>
      <point x="248" y="526"/>
      <point x="250" y="530"/>
      <point x="254" y="534" type="curve" smooth="yes"/>
      <point x="669" y="949" type="line" smooth="yes"/>
      <point x="672" y="953"/>
      <point x="677" y="954"/>
      <point x="682" y="954" type="curve" smooth="yes"/>
      <point x="691" y="954"/>
      <point x="698" y="948"/>
    </contour>
    <contour>
      <point x="976" y="766" type="line"/>
      <point x="657" y="1085" type="line"/>
      <point x="20" y="448" type="line"/>
      <point x="20" y="129" type="line"/>
      <point x="339" y="129" type="line"/>
    </contour>
    <contour>
      <point x="1180" y="1011" type="curve" smooth="yes"/>
      <point x="1180" y="1037"/>
      <point x="1169" y="1062"/>
      <point x="1152" y="1081" type="curve" smooth="yes"/>
      <point x="972" y="1260" type="line" smooth="yes"/>
      <point x="953" y="1278"/>
      <point x="928" y="1289"/>
      <point x="902" y="1289" type="curve" smooth="yes"/>
      <point x="876" y="1289"/>
      <point x="851" y="1278"/>
      <point x="833" y="1260" type="curve" smooth="yes"/>
      <point x="706" y="1134" type="line"/>
      <point x="1025" y="815" type="line"/>
      <point x="1152" y="942" type="line" smooth="yes"/>
      <point x="1169" y="960"/>
      <point x="1180" y="985"/>
    </contour>
  </outline>
</glyph>
<glyph name="map_marker" format="2">
  <advance width="1200"/>
  <unicode hex="F041"/>
  <note>
map_marker
</note>
  <outline>
    <contour>
      <point x="837" y="1055" type="curve" smooth="yes"/>
      <point x="837" y="925"/>
      <point x="730" y="819"/>
      <point x="600" y="819" type="curve" smooth="yes"/>
      <point x="470" y="819"/>
      <point x="363" y="925"/>
      <point x="363" y="1055" type="curve" smooth="yes"/>
      <point x="363" y="1186"/>
      <point x="470" y="1292"/>
      <point x="600" y="1292" type="curve" smooth="yes"/>
      <point x="730" y="1292"/>
      <point x="837" y="1186"/>
    </contour>
    <contour>
      <point x="1073" y="1055" type="curve" smooth="yes"/>
      <point x="1073" y="1317"/>
      <point x="862" y="1529"/>
      <point x="600" y="1529" type="curve" smooth="yes"/>
      <point x="338" y="1529"/>
      <point x="127" y="1317"/>
      <point x="127" y="1055" type="curve" smooth="yes"/>
      <point x="127" y="999"/>
      <point x="133" y="941"/>
      <point x="157" y="890" type="curve" smooth="yes"/>
      <point x="495" y="174" type="line" smooth="yes"/>
      <point x="513" y="134"/>
      <point x="556" y="109"/>
      <point x="600" y="109" type="curve" smooth="yes"/>
      <point x="644" y="109"/>
      <point x="687" y="134"/>
      <point x="706" y="174" type="curve" smooth="yes"/>
      <point x="1043" y="890" type="line" smooth="yes"/>
      <point x="1067" y="941"/>
      <point x="1073" y="999"/>
    </contour>
  </outline>
</glyph>
<glyph name="adjust" format="2">
  <advance width="1200"/>
  <unicode hex="F042"/>
  <note>
adjust
</note>
  <outline>
    <contour>
      <point x="600" y="299" type="curve"/>
      <point x="600" y="1121" type="line"/>
      <point x="373" y="1121"/>
      <point x="189" y="937"/>
      <point x="189" y="710" type="curve" smooth="yes"/>
      <point x="189" y="483"/>
      <point x="373" y="299"/>
    </contour>
    <contour>
      <point x="1180" y="710" type="curve" smooth="yes"/>
      <point x="1180" y="1030"/>
      <point x="920" y="1290"/>
      <point x="600" y="1290" type="curve" smooth="yes"/>
      <point x="280" y="1290"/>
      <point x="20" y="1030"/>
      <point x="20" y="710" type="curve" smooth="yes"/>
      <point x="20" y="390"/>
      <point x="280" y="130"/>
      <point x="600" y="130" type="curve" smooth="yes"/>
      <point x="920" y="130"/>
      <point x="1180" y="390"/>
    </contour>
  </outline>
</glyph>
<glyph name="tint" format="2">
  <advance width="1200"/>
  <unicode hex="F043"/>
  <note>
tint
</note>
  <outline>
    <contour>
      <point x="600" y="597" type="curve" smooth="yes"/>
      <point x="600" y="529"/>
      <point x="545" y="474"/>
      <point x="477" y="474" type="curve" smooth="yes"/>
      <point x="408" y="474"/>
      <point x="353" y="529"/>
      <point x="353" y="597" type="curve" smooth="yes"/>
      <point x="353" y="622"/>
      <point x="361" y="645"/>
      <point x="372" y="664" type="curve" smooth="yes"/>
      <point x="385" y="683"/>
      <point x="436" y="749"/>
      <point x="456" y="814" type="curve" smooth="yes"/>
      <point x="459" y="824"/>
      <point x="469" y="829"/>
      <point x="477" y="829" type="curve" smooth="yes"/>
      <point x="484" y="829"/>
      <point x="494" y="824"/>
      <point x="497" y="814" type="curve" smooth="yes"/>
      <point x="517" y="749"/>
      <point x="568" y="683"/>
      <point x="581" y="664" type="curve" smooth="yes"/>
      <point x="592" y="645"/>
      <point x="600" y="622"/>
    </contour>
    <contour>
      <point x="1094" y="721" type="curve" smooth="yes"/>
      <point x="1094" y="818"/>
      <point x="1065" y="909"/>
      <point x="1016" y="986" type="curve" smooth="yes"/>
      <point x="967" y="1063"/>
      <point x="760" y="1325"/>
      <point x="682" y="1585" type="curve" smooth="yes"/>
      <point x="670" y="1627"/>
      <point x="631" y="1647"/>
      <point x="600" y="1647" type="curve" smooth="yes"/>
      <point x="569" y="1647"/>
      <point x="531" y="1627"/>
      <point x="518" y="1585" type="curve" smooth="yes"/>
      <point x="440" y="1325"/>
      <point x="233" y="1063"/>
      <point x="184" y="986" type="curve" smooth="yes"/>
      <point x="136" y="909"/>
      <point x="106" y="818"/>
      <point x="106" y="721" type="curve" smooth="yes"/>
      <point x="106" y="448"/>
      <point x="327" y="227"/>
      <point x="600" y="227" type="curve" smooth="yes"/>
      <point x="873" y="227"/>
      <point x="1094" y="448"/>
    </contour>
  </outline>
</glyph>
<glyph name="edit" format="2">
  <advance width="1200"/>
  <unicode hex="F044"/>
  <note>
edit
</note>
  <outline>
    <contour>
      <point x="673" y="531" type="line"/>
      <point x="597" y="456" type="line"/>
      <point x="561" y="456" type="line"/>
      <point x="561" y="518" type="line"/>
      <point x="499" y="518" type="line"/>
      <point x="499" y="555" type="line"/>
      <point x="574" y="630" type="line"/>
    </contour>
    <contour>
      <point x="884" y="924" type="curve" smooth="yes"/>
      <point x="889" y="918"/>
      <point x="889" y="909"/>
      <point x="883" y="903" type="curve" smooth="yes"/>
      <point x="655" y="675" type="line" smooth="yes"/>
      <point x="650" y="669"/>
      <point x="640" y="669"/>
      <point x="634" y="674" type="curve" smooth="yes"/>
      <point x="628" y="680"/>
      <point x="629" y="690"/>
      <point x="635" y="696" type="curve" smooth="yes"/>
      <point x="862" y="923" type="line" smooth="yes"/>
      <point x="868" y="929"/>
      <point x="878" y="930"/>
    </contour>
    <contour>
      <point x="936" y="414" type="curve" smooth="yes"/>
      <point x="936" y="538" type="line" smooth="yes"/>
      <point x="936" y="546"/>
      <point x="930" y="553"/>
      <point x="923" y="557" type="curve" smooth="yes"/>
      <point x="915" y="560"/>
      <point x="906" y="559"/>
      <point x="900" y="552" type="curve" smooth="yes"/>
      <point x="858" y="511" type="line" smooth="yes"/>
      <point x="854" y="507"/>
      <point x="852" y="501"/>
      <point x="852" y="496" type="curve" smooth="yes"/>
      <point x="852" y="414" type="line" smooth="yes"/>
      <point x="852" y="357"/>
      <point x="806" y="310"/>
      <point x="748" y="310" type="curve" smooth="yes"/>
      <point x="207" y="310" type="line" smooth="yes"/>
      <point x="150" y="310"/>
      <point x="103" y="357"/>
      <point x="103" y="414" type="curve" smooth="yes"/>
      <point x="103" y="955" type="line" smooth="yes"/>
      <point x="103" y="1013"/>
      <point x="150" y="1059"/>
      <point x="207" y="1059" type="curve" smooth="yes"/>
      <point x="748" y="1059" type="line" smooth="yes"/>
      <point x="758" y="1059"/>
      <point x="768" y="1058"/>
      <point x="778" y="1056" type="curve" smooth="yes"/>
      <point x="785" y="1053"/>
      <point x="793" y="1055"/>
      <point x="798" y="1061" type="curve" smooth="yes"/>
      <point x="830" y="1093" type="line" smooth="yes"/>
      <point x="835" y="1098"/>
      <point x="837" y="1104"/>
      <point x="836" y="1111" type="curve" smooth="yes"/>
      <point x="835" y="1118"/>
      <point x="830" y="1124"/>
      <point x="824" y="1126" type="curve" smooth="yes"/>
      <point x="800" y="1137"/>
      <point x="774" y="1143"/>
      <point x="748" y="1143" type="curve" smooth="yes"/>
      <point x="207" y="1143" type="line" smooth="yes"/>
      <point x="104" y="1143"/>
      <point x="20" y="1059"/>
      <point x="20" y="955" type="curve" smooth="yes"/>
      <point x="20" y="414" type="line" smooth="yes"/>
      <point x="20" y="311"/>
      <point x="104" y="227"/>
      <point x="207" y="227" type="curve" smooth="yes"/>
      <point x="748" y="227" type="line" smooth="yes"/>
      <point x="852" y="227"/>
      <point x="936" y="311"/>
    </contour>
    <contour>
      <point x="1061" y="830" type="line"/>
      <point x="873" y="1018" type="line"/>
      <point x="436" y="581" type="line"/>
      <point x="436" y="393" type="line"/>
      <point x="623" y="393" type="line"/>
    </contour>
    <contour>
      <point x="1162" y="932" type="line" smooth="yes"/>
      <point x="1186" y="956"/>
      <point x="1186" y="996"/>
      <point x="1162" y="1020" type="curve" smooth="yes"/>
      <point x="1063" y="1119" type="line" smooth="yes"/>
      <point x="1039" y="1143"/>
      <point x="999" y="1143"/>
      <point x="975" y="1119" type="curve" smooth="yes"/>
      <point x="915" y="1059" type="line"/>
      <point x="1102" y="872" type="line"/>
    </contour>
  </outline>
</glyph>
<glyph name="share" format="2">
  <advance width="1200"/>
  <unicode hex="F045"/>
  <note>
share
</note>
  <outline>
    <contour>
      <point x="975" y="414" type="curve" smooth="yes"/>
      <point x="975" y="583" type="line" smooth="yes"/>
      <point x="975" y="591"/>
      <point x="969" y="598"/>
      <point x="961" y="602" type="curve" smooth="yes"/>
      <point x="953" y="605"/>
      <point x="944" y="602"/>
      <point x="938" y="596" type="curve" smooth="yes"/>
      <point x="928" y="587"/>
      <point x="916" y="578"/>
      <point x="903" y="572" type="curve" smooth="yes"/>
      <point x="896" y="568"/>
      <point x="891" y="561"/>
      <point x="891" y="553" type="curve" smooth="yes"/>
      <point x="891" y="414" type="line" smooth="yes"/>
      <point x="891" y="357"/>
      <point x="845" y="310"/>
      <point x="787" y="310" type="curve" smooth="yes"/>
      <point x="246" y="310" type="line" smooth="yes"/>
      <point x="189" y="310"/>
      <point x="142" y="357"/>
      <point x="142" y="414" type="curve" smooth="yes"/>
      <point x="142" y="955" type="line" smooth="yes"/>
      <point x="142" y="1013"/>
      <point x="189" y="1059"/>
      <point x="246" y="1059" type="curve" smooth="yes"/>
      <point x="319" y="1059" type="line" smooth="yes"/>
      <point x="323" y="1059"/>
      <point x="326" y="1061"/>
      <point x="330" y="1062" type="curve"/>
      <point x="354" y="1077"/>
      <point x="384" y="1090"/>
      <point x="416" y="1101" type="curve"/>
      <point x="426" y="1103"/>
      <point x="433" y="1111"/>
      <point x="433" y="1122" type="curve" smooth="yes"/>
      <point x="433" y="1134"/>
      <point x="423" y="1143"/>
      <point x="412" y="1143" type="curve"/>
      <point x="412" y="1143"/>
      <point x="412" y="1143"/>
      <point x="412" y="1143" type="curve"/>
      <point x="412" y="1143"/>
      <point x="412" y="1143"/>
      <point x="412" y="1143" type="curve"/>
      <point x="246" y="1143" type="line" smooth="yes"/>
      <point x="143" y="1143"/>
      <point x="59" y="1059"/>
      <point x="59" y="955" type="curve" smooth="yes"/>
      <point x="59" y="414" type="line" smooth="yes"/>
      <point x="59" y="311"/>
      <point x="143" y="227"/>
      <point x="246" y="227" type="curve" smooth="yes"/>
      <point x="787" y="227" type="line" smooth="yes"/>
      <point x="891" y="227"/>
      <point x="975" y="311"/>
    </contour>
    <contour>
      <point x="1129" y="905" type="line" smooth="yes"/>
      <point x="1145" y="922"/>
      <point x="1145" y="948"/>
      <point x="1129" y="964" type="curve" smooth="yes"/>
      <point x="879" y="1214" type="line" smooth="yes"/>
      <point x="871" y="1221"/>
      <point x="861" y="1226"/>
      <point x="850" y="1226" type="curve" smooth="yes"/>
      <point x="845" y="1226"/>
      <point x="839" y="1225"/>
      <point x="834" y="1223" type="curve" smooth="yes"/>
      <point x="819" y="1216"/>
      <point x="808" y="1201"/>
      <point x="808" y="1184" type="curve" smooth="yes"/>
      <point x="808" y="1059" type="line"/>
      <point x="704" y="1059" type="line" smooth="yes"/>
      <point x="280" y="1059"/>
      <point x="225" y="859"/>
      <point x="225" y="685" type="curve" smooth="yes"/>
      <point x="225" y="555"/>
      <point x="329" y="408"/>
      <point x="333" y="402" type="curve" smooth="yes"/>
      <point x="337" y="397"/>
      <point x="344" y="393"/>
      <point x="350" y="393" type="curve" smooth="yes"/>
      <point x="353" y="393"/>
      <point x="356" y="394"/>
      <point x="358" y="395" type="curve"/>
      <point x="367" y="399"/>
      <point x="372" y="408"/>
      <point x="371" y="417" type="curve" smooth="yes"/>
      <point x="351" y="566"/>
      <point x="367" y="664"/>
      <point x="419" y="724" type="curve" smooth="yes"/>
      <point x="470" y="782"/>
      <point x="561" y="810"/>
      <point x="704" y="810" type="curve" smooth="yes"/>
      <point x="808" y="810" type="line"/>
      <point x="808" y="685" type="line" smooth="yes"/>
      <point x="808" y="668"/>
      <point x="819" y="653"/>
      <point x="834" y="646" type="curve" smooth="yes"/>
      <point x="839" y="645"/>
      <point x="845" y="643"/>
      <point x="850" y="643" type="curve" smooth="yes"/>
      <point x="861" y="643"/>
      <point x="871" y="647"/>
      <point x="879" y="656" type="curve" smooth="yes"/>
    </contour>
  </outline>
</glyph>
